<svg enable-background="new 0 0 566.929 128.211" height="128.21" viewBox="0 0 566.929 128.211" width="566.93" xmlns="http://www.w3.org/2000/svg"><g fill="#fff"><g fill="#fff"><g enable-background="new"><path d="m252.63 61.838 3.529 5.3c-.273-.412-.726-.676-1.179-.676-.478 0-.955.295-1.221 1.027l-3.529-5.299c.267-.732.743-1.029 1.222-1.029.45 0 .9.266 1.18.677z"/><path d="m311.43 60.064 3.53 5.3c-.172-.258-.422-.391-.687-.391-.353 0-.724.236-.964.721l-3.527-5.299c.239-.483.613-.72.965-.72.27-.001.52.132.69.389z"/><path d="m314.47 41.153 29.807.189c.568 0 4.659.663-.453 1.999-4.084 1.063-7.429.661-8.764 5.979l-16.086 64.575c-1.336 5.768 3.152 10.742 8.955 12.301 1.313.32 1.393 1.714-.157 1.799l-19.586-.723-23.796.804c-1.728 0-1.795-1.794.085-2.125 5.562-.567 10.478-5.151 11.548-8.913l15.643-56.077c.002-.846-.435-1.287-.914-1.287-.35 0-.724.236-.965.719l-44.044 63.917c-1.22 1.967-3.14 3.271-4.838 3.271-1.835 0-3.412-1.521-3.578-5.375l-4.433-59.588c-.048-.826-.744-1.454-1.438-1.454-.478 0-.956.297-1.222 1.029l-15.107 47.273c-1.237 3.592-1.325 7.104.147 9.645 1.463 2.611 5.229 5.803 9.64 6.701 1.714.412 1.628 2.125-.004 2.209l-15.824-.662-13.293.498c-1.561-.084-1.393-1.631.004-1.883 4.578-.979 9.826-5.637 12.205-12.266l19.571-62.897c.821-2.376-.476-5.236-2.852-5.804l-6.055-1.229c-1.063-.082-1.215-1.632.002-1.632l34.736-.282 3.482 54.755 2.548-3.099 33.147-49.173c.38-.676 1.37-2.225 1.87-3.206z"/></g><path d="m359.42 40.928 40.013.331c1.882 0 2.765 3.332-1 3.664-4.021.354-8.226 3.215-9.214 6.641l-18.747 64.8c-.905 3.439 1.593 9.183 8.05 9.669 1.063.247 1.061 1.877.079 1.877l-23.63-.906-22.697.685c-1.232 0-.896-1.629.154-1.795 3.111-.567 12.154-4.076 13.88-9.633l20.901-64.692c1.309-4.656-3.016-6.949-7.922-8.095-1.05-.159-.83-2.452.14-2.535z"/><path d="m464.13 36.898c4.105 0 8.133.34 12.004 1.062 2.461.496 5.475 1.62 4.738 3.746l-5.906 15.057c-.467 1.534-1.244 2.462-2.031 2.462-1.094 0-2.207-1.792-2.551-6.244-.195-2.436.197-11.205-3.146-11.393-.85-.046-1.695-.067-2.543-.067-5.363 0-10.688.885-15.43 2.396-18.068 5.767-29.525 15.623-37.079 32.453-7.386 16.191-3.739 33.693 1.478 39.662 3.557 4.066 11.865 6.874 18.252 6.874 3.75 0 6.836-.97 7.904-3.224 3.457-8.307 5.133-18.494 4.809-23.151.014-5.647-2.201-6.086-6.41-6.866-2.951-.313-3.896-2.227 1.615-2.227.293 0 .604.006.936.019 1.77-.011 3.492-.017 5.188-.017 3.881 0 7.602.021 11.299.039 3.473.018 6.924.035 10.473.035 3.246 0 6.576-.017 10.072-.06.98.483.896.897-.088 1.384-5.973.897-8.352 2.043-8.924 4.254-2.309 7.85-4.383 16.438-8.123 24.488-1.33 2.883-7.604 5.626-9.648 6.204-6.354 2.263-16.916 4.063-26.975 4.063-8.072 0-15.821-1.16-20.812-4.183-18.713-11.438-22.079-33.127-14.438-47.428 11.33-21.272 45.47-39.334 75.34-39.334z"/></g><g enable-background="new" opacity=".78"><path d="m558.18 127.46v-4.979h-1.861v-.667h4.477v.667h-1.867v4.979h-.75z"/><path d="m561.54 127.46v-5.646h1.125l1.338 4c .123.371.213.65.271.836.063-.206.164-.508.299-.906l1.352-3.93h1.006v5.646h-.719v-4.727l-1.643 4.727h-.674l-1.633-4.808v4.808h-.73z"/></g><path d="m28.491 59.393h23.887l44.928 67.067h-23.669z"/><path d="m158.26.001h23.67l-84.377 126.459h-22.573z"/><path d="m0 59.393h23.889l44.927 67.067h-23.669z"/><path d="m129.77 0h23.67l-84.377 126.46h-22.574z"/><path d="m154.31 97.063-11.644 16.51c-3.452 5.4 3.078 11.04 10.279 12.354.66.512.548 2.163-.415 2.163-.105 0-.219-.02-.345-.062-.144-.063-2.86-1.195-9.034-1.772-1.652-.157-4.623-.663-8.245-.663-1.248 0-2.571.061-3.947.213l-13.024 1.834c-1.232-.082-1.229-1.55.002-1.881 6.293-.814 13.835-5.482 18.259-11.771l52.979-73.901c.875-1.269 2.745-2.007 4.565-2.007 2.279 0 4.474 1.158 4.517 3.887l1.745 73.983c.566 6.205 4.724 8.829 9.962 10.294.732.495.411 1.477-.086 1.645-.34-.007-6.801-.106-14.522-1.254-1.807-.267-3.22-.421-4.946-.421-1.493 0-3.221.116-5.64.373-3.029.32-1.598.366-13.862.91-.466.022-.919-.099-1.017-.888.109-.91 1.48-1.348 1.918-1.465 4.9-1.358 7.317-3.816 8.392-9.846 1.16-6.631.85-12.268.694-18.072m-7.51-4.477c2.696 0 5.234.015 7.125.056l-.7-30.797c-.133-.4-.313-.605-.519-.605-.169 0-.357.145-.546.439-6.558 9.313-15.59 20.729-22.065 29.972-.415.73-.001.979.98.979.157.015.688.019 1.498.019 1.393 0 3.607-.015 6.142-.026 2.54-.019 5.4-.037 8.09-.037" fill="#fff"/><path d="m551.41 126.37c.732.482.398 1.464-.086 1.632-.34-.006-6.801-.106-14.521-1.239-1.834-.271-3.254-.429-5.002-.429-1.479 0-3.189.113-5.584.366-3.041.318-1.598.365-13.877.91-.457.021-.904-.098-1.002-.887.107-.909 1.48-1.338 1.906-1.467 4.908-1.348 7.326-3.815 8.404-9.845 1.158-6.618.838-12.256.684-18.069l-26.588-.153-11.645 16.512c-3.439 5.392 3.09 11.024 10.289 12.338.662.521.539 2.168-.422 2.168-.107 0-.223-.021-.352-.063-.145-.06-2.859-1.183-9.021-1.773-1.65-.156-4.625-.662-8.246-.662-1.248 0-2.57.059-3.945.213l-13.035 1.834c-1.221-.084-1.219-1.551.004-1.881 6.305-.814 13.834-5.472 18.27-11.771l52.98-73.886c.875-1.274 2.744-2.013 4.563-2.013 2.281 0 4.479 1.163 4.52 3.891l1.744 73.972c.57 6.22 4.74 8.84 9.98 10.31zm-36.62-33.497c2.705 0 5.256.015 7.152.056l-.689-30.812c-.137-.4-.318-.605-.521-.605-.172 0-.355.144-.539.44-6.568 9.325-15.592 20.74-22.078 29.97-.404.732-.002.98.979.98.191.018.945.022 2.078.022 1.377 0 3.32-.012 5.516-.022 2.53-.014 5.39-.029 8.1-.029" fill="#fff"/></g></svg>