<svg enable-background="new 0 0 566.924 121.752" height="121.75" viewBox="0 0 566.924 121.752" width="566.92" xmlns="http://www.w3.org/2000/svg"><g fill="#fff"><path d="m207.01 5.277c4.724-6.043 14.501-7.076 20.297-2.006 2.37 1.996 4.031 4.75 4.88 7.715 10.73 36.92 21.508 73.822 32.223 110.75-6.332.006-12.667-.012-18.999.006-2.987-10.18-5.903-20.377-8.852-30.566-12.246-.025-24.485-.006-36.73-.012-2.998 10.184-5.958 20.379-8.901 30.582-6.298-.021-12.596-.004-18.895-.01 10.194-35.221 20.4-70.439 30.643-105.65 1.22-3.686 1.68-7.803 4.33-10.813m11.18 22.625c-4.49 15.295-8.889 30.619-13.354 45.922 8.9.043 17.796.016 26.692.016-4.45-15.313-8.88-30.625-13.34-45.938z"/><path d="m340.41 6.072c3.301-4.787 9.681-7.109 15.296-5.631 5.142 1.184 9.075 5.615 10.434 10.604 10.719 36.893 21.476 73.773 32.194 110.67-6.342.049-12.679 0-19.02.025-2.949-10.188-5.865-20.387-8.835-30.576-12.225.006-24.447-.021-36.671.01-2.922 10.195-5.935 20.367-8.856 30.563-6.293.006-12.581-.006-18.874.006 10.188-35.414 20.497-70.797 30.768-106.19 1.07-3.203 1.49-6.726 3.56-9.488m-1.54 67.768c8.863.012 17.722.006 26.584.006-4.409-15.346-8.89-30.67-13.284-46.014-4.43 15.338-8.9 30.662-13.3 46.008z"/><path d="m250.24.256h68.719v18.533c-8.436.006-16.865-.01-25.296.006 0 34.313.006 68.627-.005 102.94h-18.122c0-34.311-.005-68.625.005-102.94-8.436-.016-16.866 0-25.301-.006 0-6.183-.01-12.356 0-18.538z"/><path d="m418.48 1.01c1.74-.602 3.598-.807 5.436-.764 7.223.025 14.446.006 21.667.01 12.164.225 23.773 7.771 29.037 18.719 3.646 7.109 4.021 15.377 3.102 23.176-.634 8.164-4.058 16.328-10.334 21.74-3.314 2.953-7.443 4.744-10.992 7.375-1.948 1.482-2.047 4.365-1.039 6.428 9.586 14.799 19.551 29.367 29.339 44.039-7.158.012-14.316-.016-21.475.012-9.37-14.074-18.643-28.219-27.976-42.313-2.743-4.012-3.489-9.324-1.845-13.902 1.281-3.512 4.35-6.08 7.768-7.406 6.525-2.49 12.958-6.4 16.572-12.559 2.749-4.627 2.606-10.336 1.37-15.4-1.45-6.574-7.855-11.746-14.624-11.52-4.682.031-9.36-.021-14.034.021-2.116-.049-4.107 1.791-4.08 3.934-.022 33.047.011 66.096-.01 99.141-6.087-.012-12.168 0-18.255-.006-.012-35.576.011-71.154-.012-106.73 0-6.23 4.43-12.098 10.35-13.99z"/><path d="m494.26.256h19.21c-.006 40.496.012 80.986-.012 121.48-6.396-.018-12.796 0-19.198-.006v-121.47z"/><path d="m54.173.008c3.076-.01 6.153 0 9.229-.008.013 7.234 0 14.469.005 21.701.032 6.039-.139 12.076-.389 18.107-.412 8.711-.957 17.439-2.4 26.051-.991 5.936-3.044 11.662-5.592 17.098-4.156 8.76-10.686 16.172-18.027 22.406-6.567 5.779-14.405 9.986-22.649 12.834-4.664 1.605-9.463 2.844-14.35 3.533.005-6.066.005-12.137 0-18.203 5.883-.883 11.538-2.971 16.791-5.73 6.233-3.295 11.844-7.729 16.566-12.953 4.877-5.395 8.764-11.641 11.714-18.273 3.474-7.625 5.333-15.861 6.597-24.109 1.584-10.482 2.244-21.088 2.489-31.684.035-3.583.005-7.175.016-10.763z"/><path d="m67.116.02c5.662-.037 11.328-.006 16.992-.016.002 40.574.002 81.15 0 121.73-5.65.012-11.303-.027-16.953.021-.072-12.938-.01-25.879-.03-38.816-.007-27.639.011-55.276-.009-82.914z"/><path d="m87.888.004c3.06-.002 6.118-.008 9.176.002-.099 12.371.322 24.766 1.797 37.057 1.207 9.547 2.909 19.164 6.711 28.059 3.605 8.605 8.801 16.604 15.572 23.051 6.466 6.166 14.302 10.906 22.815 13.635 2.375.76 4.805 1.355 7.274 1.715-.003 6.064-.006 12.129 0 18.191-4.852-.658-9.61-1.908-14.24-3.482-5.514-1.918-10.847-4.402-15.745-7.588-3.576-2.301-6.828-5.053-9.952-7.924-5.149-4.748-9.758-10.146-13.219-16.256-2.708-4.758-4.683-9.9-6.23-15.145-1.418-5.271-2.023-10.717-2.573-16.135-1.064-11.709-1.462-23.477-1.386-35.23.006-6.649.004-13.302.006-19.95z"/><path d="m54.173.008c-.01 3.588.02 7.18-.016 10.77-.245 10.596-.904 21.201-2.489 31.684-1.264 8.248-3.124 16.484-6.597 24.109-2.95 6.635-6.837 12.879-11.714 18.273-4.722 5.227-10.333 9.658-16.566 12.953-5.253 2.762-10.908 4.848-16.791 5.73.005 6.066.005 12.137 0 18.203 4.887-.689 9.686-1.928 14.35-3.533 8.244-2.848 16.082-7.055 22.649-12.834 7.341-6.234 13.871-13.646 18.027-22.406 2.547-5.436 4.601-11.162 5.592-17.098 1.443-8.611 1.989-17.34 2.4-26.051.25-6.031.421-12.068.389-18.107-.005-7.239.008-14.474-.005-21.708-3.077.008-6.153-.002-9.229.008"/><path d="m67.116.02c.02 27.641.002 55.275.01 82.916.02 12.938-.042 25.879.03 38.816 5.65-.051 11.302-.012 16.953-.021.002-40.574.002-81.15 0-121.73-5.665.014-11.331-.018-16.993.02"/><path d="m87.888.004c-.002 6.648 0 13.301 0 19.949-.076 11.754.322 23.521 1.386 35.23.55 5.418 1.155 10.863 2.573 16.135 1.547 5.244 3.522 10.387 6.23 15.145 3.46 6.109 8.07 11.508 13.219 16.256 3.124 2.871 6.376 5.623 9.952 7.922 4.898 3.188 10.231 5.672 15.745 7.59 4.63 1.574 9.388 2.824 14.24 3.482-.006-6.063-.003-12.127 0-18.191-2.47-.359-4.899-.955-7.274-1.715-8.513-2.729-16.35-7.469-22.815-13.635-6.771-6.447-11.967-14.445-15.572-23.051-3.802-8.895-5.504-18.512-6.711-28.061-1.475-12.289-1.896-24.684-1.797-37.055-3.075-.002-6.134.004-9.194.006"/><path d="m562.21 99.303h3.963v22.449l-18.669-15.213c-1.751-1.43-3.919-3.09-6.225-3.09-3.641 0-6.637 3.229-6.637 6.822 0 3.551 2.856 6.455 6.358 6.686v4.334c-6.177-.691-10.324-4.703-10.324-11.02 0-5.898 4.379-10.971 10.418-10.971 2.582 0 5.164.969 7.146 2.58l13.969 11.434-.01-14.007z"/><path d="m532.8 79.432 12.538 9.266.095-.092c-.509-1.016-.83-2.166-.83-3.412 0-5.715 5.302-10.049 10.88-10.049 6.36 0 11.433 5.164 11.433 11.479 0 5.992-4.979 11.572-11.108 11.572-3.506 0-6.454-1.752-9.176-3.779l-15.949-11.85 2.12-3.135zm23.14-.139c-4.334 0-7.469 3.688-7.469 7.375 0 3.781 3.458 7.377 7.236 7.377 4.013 0 7.332-3.41 7.332-7.377 0-3.873-3.22-7.375-7.1-7.375z"/><path d="m530.68 56.256c0 9.955 8.162 18.053 18.195 18.053 9.953 0 18.049-8.098 18.049-18.053 0-10.242-7.96-18.268-18.121-18.268-10.17 0-18.13 8.026-18.13 18.268zm18.2-14c7.854 0 14.003 6.248 14.003 14.223 0 7.479-6.281 13.563-14.003 13.563-7.801 0-14.147-6.084-14.147-13.563 0-8.11 6.08-14.223 14.15-14.223z"/><path d="m530.68 18.299c0 9.953 8.162 18.051 18.195 18.051 9.953 0 18.049-8.098 18.049-18.051 0-10.244-7.96-18.27-18.121-18.27-10.17 0-18.13 8.026-18.13 18.27zm18.2-14.002c7.854 0 14.003 6.246 14.003 14.223 0 7.479-6.281 13.563-14.003 13.563-7.801 0-14.147-6.084-14.147-13.563 0-8.108 6.08-14.223 14.15-14.223z"/></g></svg>