<?xml version="1.0" encoding="UTF-8"?>
<svg width="36.44" height="34.821" version="1.1" viewBox="0 0 36.44 34.821" xml:space="preserve" xmlns="http://www.w3.org/2000/svg"><defs><clipPath id="a"><path d="M 0,141.73 H 141.73 V 0 H 0 Z"/></clipPath></defs><g transform="matrix(1.3333 0 0 -1.3333 -20.714 111.9)"><g clip-path="url(#a)"><g transform="translate(24.134 67.476)"><path d="m0 0h-2.917c-.229 0-.413-.186-.413-.415 0 0 .001 0 .001-.002h-.001v-2.082h.001l-.001-.002c0-.228.184-.415.413-.415h2.917v-1.389h-3.641v.003c-.595 0-1.077.482-1.077 1.076v3.54c0 .591.482 1.072 1.077 1.072h3.641z" fill="#fff" fill-rule="evenodd"/></g><g transform="translate(25.187 71.342)"><path d="m0 0c0-.606-.489-1.093-1.092-1.093h-4.683v1.408h3.948c.233 0 .419.19.419.421v4.652c0 .232-.186.42-.419.42h-2.122c-.232 0-.418-.188-.418-.42v-2.117c0-.232.186-.421.418-.421h1.696v-1.407h-2.43c-.604 0-1.092.488-1.092 1.091v3.591c0 .603.488 1.092 1.092 1.092h3.591c.603 0 1.092-.489 1.092-1.092z" fill="#fff" fill-rule="evenodd"/></g><g transform="translate(38.985 63.174)"><path d="m0 0h-1.388v4.302h-.975c-.229 0-.413-.186-.413-.415v-3.887h-1.387v4.302h-.976c-.229 0-.413-.186-.413-.415v-3.89h-1.387v4.619c0 .591.48 1.072 1.076 1.072h5.863z" fill="#fff" fill-rule="evenodd"/></g><g transform="translate(38.989,71.342)"><path d="m0 0c0-.606-.49-1.093-1.092-1.093h-4.683v1.408h3.948c.234 0 .421.19.421.421v4.652c0 .232-.187.42-.421.42h-2.121c-.23 0-.417-.188-.417-.42v-2.117c0-.232.187-.421.417-.421h1.694v-1.407h-2.428c-.604 0-1.093.488-1.093 1.091v3.591c0 .603.489 1.092 1.093 1.092h3.59c.602 0 1.092-.489 1.092-1.092z" fill="#fff" fill-rule="evenodd"/></g><g transform="translate(30.677,76.727)"><path d="m0 0v-2.114c0-.232-.182-.421-.415-.421h-2.121c-.233 0-.419.189-.419.421v2.117c0 .232.186.42.419.42h2.121c.233 0 .415-.188.415-.42zm.32 1.832h-3.592c-.604 0-1.091-.489-1.091-1.092v-3.591c0-.603.487-1.091 1.091-1.091h3.592c.601 0 1.091.488 1.091 1.091v3.591c0 .603-.49 1.092-1.091 1.092" fill="#fff" fill-rule="evenodd"/></g><g transform="translate(29.547 67.059)"><path d="m0 0v-2.082c0-.228-.184-.416-.412-.416-.002 0-.002.003-.004.003v-.003h-2.082v.003s-.002-.003-.004-.003c-.229 0-.413.188-.413.416v2.085c0 .229.184.414.413.414h2.09c.228 0 .412-.185.412-.414zm.312 1.804h-3.538c-.596 0-1.077-.482-1.077-1.073v-3.54c0-.594.481-1.076 1.077-1.076h3.538c.593 0 1.075.482 1.075 1.076v3.54c0 .591-.482 1.073-1.075 1.073" fill="#fff" fill-rule="evenodd"/></g><g transform="translate(41.208 60.756)"><path d="m0 0c0-.358-.144-.679-.378-.913-.235-.234-.556-.378-.913-.378h-21.432c-.357 0-.678.144-.913.378-.234.234-.377.555-.378.913v20.218c.001.357.144.678.378.913.235.233.556.377.913.378h21.432c.357-.001.678-.145.913-.378.234-.235.378-.556.378-.913zm-.002 21.507c-.329.33-.786.535-1.289.535h-21.432c-.503 0-.96-.205-1.289-.535-.33-.328-.535-.786-.535-1.289v-20.218c0-.503.205-.961.535-1.29.329-.33.786-.534 1.289-.534h21.432c.503 0 .96.204 1.289.534.33.329.535.787.535 1.29v20.218c0 .503-.205.961-.535 1.289" fill="#fff"/></g></g></g></svg>
