<svg enable-background="new 0 0 566.932 90.32" height="90.32" viewBox="0 0 566.932 90.32" width="566.932" xmlns="http://www.w3.org/2000/svg" xmlns:xlink="http://www.w3.org/1999/xlink"><linearGradient id="a" gradientTransform="matrix(1 0 0 -1 -1.1348 -390.2554)" gradientUnits="userSpaceOnUse" x1="284.8535" x2="284.8535" y1="-415.7005" y2="-480.576"><stop offset="0" stop-color="#f1f3f2"/><stop offset=".1937" stop-color="#a4b5d3"/><stop offset=".5858" stop-color="#f1f3f2"/><stop offset=".6" stop-color="#5878b5"/><stop offset="1" stop-color="#f1f3f2"/></linearGradient><path d="m302.592 15.683c-.369 1.215-.74 2.438-1.108 3.667-.371 1.229-.742 2.465-1.112 3.708-.372 1.242-.742 2.488-1.113 3.742-.369 1.253-.74 2.511-1.111 3.772.186-.008.367-.016.552-.021.183-.008.364-.016.55-.022.183-.009.364-.017.548-.025s.367-.017.551-.024c.372-1.212.743-2.419 1.114-3.62.372-1.199.743-2.396 1.114-3.583.371-1.188.742-2.369 1.112-3.543.371-1.174.742-2.341 1.113-3.5.04-.158.103-.308.18-.438.078-.132.173-.248.278-.343.107-.097.229-.171.354-.221.132-.049.269-.073.412-.069.146.005.284.038.414.096.129.057.252.139.356.239.107.101.204.221.281.354.078.133.138.283.18.44.313.979.629 1.953.943 2.919.313.967.628 1.927.94 2.879.313.953.629 1.899.942 2.839.313.938.629 1.869.942 2.794-.492.03-.986.063-1.479.093-.492.03-.984.061-1.479.089-.492.027-.984.056-1.479.083-.492.025-.986.052-1.479.076v.539.537.538.539c.733-.047 1.469-.097 2.2-.148.732-.051 1.468-.105 2.199-.162.732-.057 1.467-.116 2.198-.178.73-.062 1.465-.125 2.196-.19-.37-1.093-.741-2.199-1.111-3.315-.371-1.117-.74-2.245-1.111-3.386-.371-1.14-.742-2.291-1.11-3.451-.371-1.162-.743-2.333-1.114-3.517-.106-.392-.271-.757-.485-1.093-.217-.333-.479-.632-.781-.887-.301-.253-.641-.46-1.006-.609-.364-.15-.758-.24-1.166-.259-.405-.019-.797.037-1.162.158-.362.119-.7.303-1.002.539-.299.237-.563.526-.776.858-.211.329-.377.703-.485 1.106zm2.614 9.042c.063-.207.129-.415.192-.622.064-.207.13-.414.194-.62.063-.206.128-.413.192-.619.063-.206.13-.412.194-.617.066.204.136.407.203.608.067.204.136.406.202.607.068.202.136.404.204.606.066.201.135.403.202.604-.132.005-.265.009-.396.013-.133.004-.267.01-.398.014s-.266.008-.396.012-.261.01-.393.014zm-.326-7.086c-.332 1.044-.664 2.096-.996 3.151-.331 1.059-.663 2.12-.994 3.188-.332 1.067-.664 2.144-.998 3.222-.33 1.079-.662 2.163-.994 3.25.216-.012.429-.021.645-.032.214-.011.428-.021.642-.032.216-.013.431-.022.646-.036.214-.013.428-.023.643-.037.138-.446.274-.893.412-1.336.139-.444.273-.89.413-1.331.136-.441.272-.884.409-1.323.137-.44.272-.881.412-1.319v.616.616.614s0 .411 0 .616c.433-.021.862-.041 1.296-.063.431-.021.862-.043 1.293-.065.432-.022.862-.046 1.294-.069s.861-.048 1.294-.073c-.257-.774-.513-1.555-.771-2.339-.257-.783-.513-1.572-.77-2.365-.256-.794-.513-1.593-.769-2.396-.259-.804-.515-1.609-.771-2.423-.039-.135-.097-.334-.172-.557-.073-.225-.164-.471-.267-.7-.104-.229-.216-.444-.341-.604-.121-.158-.254-.26-.392-.265-.138-.004-.271.09-.395.242-.122.153-.237.362-.34.591s-.189.475-.266.697c-.068.225-.126.425-.163.562zm-14.083-2.132c.645.003 1.285.007 1.93.012.644.005 1.283.012 1.928.019.643.006 1.284.015 1.928.021.645.008 1.285.019 1.929.026 0-.201-.001-.403-.001-.606 0-.201 0-.403 0-.606s0-.404 0-.607c-.001-.203-.001-.404 0-.607-.658-.017-1.315-.031-1.975-.045-.657-.015-1.314-.025-1.976-.036-.655-.011-1.313-.021-1.973-.026-.659-.009-1.315-.015-1.976-.02-.531-.003-1.039.115-1.5.334-.463.217-.877.534-1.226.928-.351.394-.632.861-.827 1.382-.193.52-.303 1.091-.303 1.688v2.272 2.271s0 1.515 0 2.272v2.271c-.001.6.107 1.169.303 1.688.195.521.479.986.828 1.379.348.392.762.708 1.227.925.459.217.969.333 1.5.326.658-.008 1.316-.02 1.977-.03.658-.014 1.315-.028 1.976-.046.658-.019 1.314-.038 1.975-.061.657-.021 1.314-.048 1.976-.074 0-.944 0-1.89 0-2.834-.002-.944-.002-1.891-.003-2.834.001-.944 0-1.89 0-2.833s-.001-1.89-.001-2.833c-.521-.001-1.041-.002-1.563-.002-.521-.001-1.039-.002-1.562-.003-.52 0-1.039-.001-1.559-.001-.521 0-1.041-.001-1.563-.001v.564.565.565c.002.188 0 .377 0 .564.336 0 .675-.002 1.011-.003s.674-.002 1.011-.004c.336-.001.672-.002 1.008-.004s.672-.004 1.008-.006c.001.562.001 1.122.001 1.683.001.562 0 1.121 0 1.683 0 .561.001 1.121.001 1.681 0 .562.001 1.121.001 1.683-.459.013-.916.022-1.376.033-.46.01-.919.02-1.378.026s-.917.016-1.377.021c-.459.007-.918.013-1.377.018-.254.003-.495-.053-.715-.154-.222-.104-.418-.253-.582-.438-.165-.187-.302-.408-.394-.654-.094-.247-.146-.52-.146-.804 0-.724 0-1.446 0-2.168.001-.724 0-1.445 0-2.168 0-.724 0-1.446 0-2.17.001-.723.001-1.445.001-2.168 0-.283.049-.557.143-.803.092-.247.229-.469.394-.654.166-.188.36-.337.582-.44.219-.102.46-.16.715-.157zm1.471 6.592v.618.617s0 .412 0 .618 0 .412 0 .619c.106-.001.215-.002.321-.003s.214-.001.32-.003c.105-.001.215-.002.32-.003s.214-.001.318-.003c0 .053.001.104 0 .153 0 .053.001.104.001.154s0 .104 0 .152v.155c-.105.001-.213.003-.319.004-.105.001-.215.002-.32.003-.106.001-.214.002-.32.003s-.215.002-.321.003c-.076.001-.147-.017-.215-.047-.066-.029-.126-.076-.177-.131-.05-.057-.088-.122-.119-.196-.026-.073-.042-.153-.042-.239 0-.446 0-.894 0-1.34s0-.894-.001-1.34c0-.445 0-.894 0-1.34 0-.445 0-.894 0-1.34.001-.085.017-.166.042-.239.03-.073.068-.141.119-.196s.109-.102.177-.133c.065-.03.138-.049.216-.048.521.001 1.039.002 1.56.003.521 0 1.039.002 1.563.004.521.002 1.039.004 1.562.006.521.002 1.039.004 1.56.007 0-.202 0-.403 0-.605s.001-.403 0-.605c0-.203.001-.405 0-.606 0-.202 0-.404 0-.604-.597-.009-1.191-.016-1.791-.021-.597-.007-1.191-.014-1.788-.019s-1.192-.011-1.791-.015c-.597-.004-1.191-.008-1.789-.012-.254-.001-.496.057-.716.159-.22.104-.418.254-.585.439-.167.187-.301.407-.395.655-.094.245-.146.519-.146.802v1.856 1.859c-.001.619-.001 1.238 0 1.858.001.619 0 1.237 0 1.857 0 .285.053.557.146.803.094.247.228.468.395.653.168.187.366.335.586.438.221.103.463.157.717.154.367-.004.733-.009 1.104-.014.365-.006.733-.011 1.103-.018.367-.007.733-.014 1.103-.021.367-.007.735-.016 1.104-.023 0-.459 0-.917-.001-1.377 0-.459 0-.919 0-1.378s0-.918 0-1.378c-.001-.459 0-.918-.001-1.377-.291.002-.582.003-.873.005-.289.002-.582.003-.871.005-.291.003-.582.004-.873.005s-.592.006-.883.007zm-14.138-6.542c.644-.008 1.285-.017 1.929-.021.644-.007 1.284-.013 1.928-.019.643-.004 1.285-.008 1.928-.012.643-.003 1.283-.005 1.927-.006 0-.207 0-.414 0-.621s0-.412 0-.619 0-.413 0-.621c0-.207 0-.414 0-.62-.657.002-1.315.006-1.974.011-.657.005-1.315.012-1.973.021-.658.008-1.315.017-1.975.027s-1.314.022-1.975.037c-.531.011-1.039.144-1.5.369-.461.227-.875.548-1.224.938-.35.392-.632.854-.825 1.361-.195.509-.307 1.063-.306 1.646v2.184s0 1.454-.001 2.183v2.183c0 .729 0 1.455-.001 2.183 0 .583.108 1.14.304 1.649.193.514.478.979.825 1.375.349.396.765.727 1.226.958.459.232.967.372 1.5.391.658.021 1.315.042 1.976.061.658.019 1.315.032 1.976.046.656.013 1.314.023 1.975.031.658.009 1.316.015 1.975.019 0-.207 0-.414 0-.619 0-.207 0-.414 0-.62 0-.207.002-.414.002-.62 0-.207 0-.413 0-.62-.644-.002-1.285-.007-1.929-.014-.644-.006-1.287-.015-1.929-.024-.643-.009-1.285-.021-1.928-.033-.645-.014-1.287-.028-1.93-.045-.253-.007-.492-.07-.713-.18-.22-.108-.418-.263-.584-.449-.166-.188-.3-.411-.393-.655-.094-.244-.146-.512-.146-.792 0-.701 0-1.401.001-2.104 0-.701 0-1.401 0-2.104.001-.701.001-1.401.001-2.104s.001-1.4 0-2.103c0-.279.053-.546.146-.79.093-.242.228-.463.394-.647.166-.188.363-.337.583-.442.215-.107.457-.165.71-.169zm6.054 5.929c0-.189 0-.379 0-.567 0-.189 0-.379.002-.566 0-.188 0-.379 0-.567s0-.378 0-.566c-.43 0-.855 0-1.285 0s-.856.001-1.285.001c-.428 0-.855.001-1.283.001s-.855 0-1.285.001c0-.085.016-.165.042-.238.028-.073.069-.139.119-.194.05-.057.108-.102.175-.132.066-.031.141-.05.215-.051.521-.001 1.04-.002 1.561-.004.521 0 1.041-.001 1.562-.003.521 0 1.04-.001 1.562-.002.521 0 1.039-.001 1.561-.001-.001-.206-.001-.413-.001-.618.001-.207.001-.413.001-.62 0-.206 0-.412 0-.618s0-.412 0-.618c-.597.001-1.191.002-1.789.005-.597.002-1.191.006-1.79.01-.597.004-1.192.007-1.791.013-.597.004-1.192.011-1.788.017-.254.003-.494.063-.715.167-.22.104-.417.256-.583.441-.167.188-.301.404-.394.647-.094.243-.146.511-.146.79v.813.812s0 .541 0 .813v.812c.612.004 1.226.009 1.835.011.611.003 1.225.006 1.834.009.611.003 1.225.004 1.836.006.608-.007 1.218-.005 1.83-.004zm0 .826v.567.567s.002.378 0 .567c0 .188.002.378 0 .565-.429-.002-.855-.004-1.285-.008-.429-.003-.855-.008-1.283-.012s-.856-.009-1.285-.014c-.428-.005-.855-.01-1.285-.016 0 .085.016.165.042.238.028.074.069.142.119.197.049.056.108.103.175.134.066.032.141.051.215.052.521.007 1.04.014 1.561.02.521.007 1.041.012 1.563.017.52.005 1.04.009 1.563.012.52.003 1.039.005 1.561.007v.619s0 .412 0 .618 0 .412 0 .618 0 .412 0 .619c-.597-.002-1.191-.007-1.79-.012-.598-.005-1.192-.012-1.791-.02-.598-.009-1.192-.02-1.791-.028-.597-.01-1.192-.022-1.79-.037-.253-.006-.492-.068-.713-.177-.22-.108-.417-.264-.583-.45-.166-.188-.3-.408-.394-.653-.092-.245-.145-.514-.145-.793 0-.271 0-.541 0-.812s0-.541 0-.812 0-.542 0-.813 0-.542 0-.813c.612.006 1.225.012 1.835.017.611.005 1.224.009 1.834.013.612.003 1.226.008 1.835.011.609.008 1.22.011 1.832.012zm-18.86 2.658c-.385-.016-.771-.03-1.155-.045-.386-.017-.771-.032-1.153-.049-.388-.016-.771-.032-1.156-.049-.383-.017-.771-.034-1.154-.051v.503s0 .335 0 .503 0 .335 0 .503 0 .335 0 .502c.588.038 1.176.074 1.763.109.587.036 1.177.07 1.765.104s1.176.066 1.764.098 1.176.063 1.764.091c.008 0 .016.001.021.001.009 0 .016.001.022.001s.017 0 .022.002c.008 0 .016.001.023.001.33.003.646-.063.93-.188.285-.127.543-.31.758-.538.216-.229.389-.507.509-.813.12-.308.188-.646.188-1.006 0-.365-.069-.716-.194-1.036-.125-.319-.306-.609-.53-.854-.223-.244-.488-.44-.785-.579-.296-.138-.621-.216-.964-.222-.231-.003-.464-.006-.694-.01-.232-.003-.465-.007-.696-.011-.232-.003-.464-.007-.696-.01-.23-.003-.463-.007-.693-.012-.281-.114-.553-.272-.801-.467-.248-.193-.472-.421-.66-.676-.189-.255-.346-.536-.453-.836-.105-.299-.166-.617-.166-.947 0-.424.097-.831.268-1.204.171-.371.415-.709.712-.999.297-.288.646-.525 1.024-.695.38-.169.789-.271 1.207-.283.574-.019 1.146-.033 1.721-.05.574-.017 1.146-.031 1.721-.046.574-.016 1.146-.028 1.721-.041.574-.014 1.146-.025 1.722-.037 0-.199 0-.397 0-.599 0-.198 0-.398 0-.6 0-.199 0-.398 0-.599s0-.398 0-.601c-.597.02-1.193.039-1.79.062-.596.021-1.193.044-1.79.067-.597.022-1.192.048-1.79.075-.598.025-1.193.053-1.789.082-.709.033-1.383.218-1.997.514-.612.297-1.167.707-1.631 1.196-.465.489-.84 1.059-1.101 1.682-.26.622-.402 1.299-.402 2.003 0 .707.154 1.381.432 1.998.276.617.676 1.181 1.163 1.661.486.48 1.063.882 1.692 1.167.632.287 1.316.458 2.025.481 0-.002 0-.004 0-.006s0-.005 0-.007c0-.003 0-.005 0-.008 0-.001 0-.003 0-.005 0 .002.002.004.004.006s.002.004.004.008c0 .002.002.004.004.006 0 .002.002.004.002.006.137.005.271.01.41.014.135.004.271.009.407.013.138.005.273.009.41.013.136.005.272.01.409.014.049.001.098.014.141.033.043.021.084.051.116.085.033.036.062.079.079.125.02.047.029.099.029.152s-.012.104-.03.149c-.021.045-.045.087-.079.12s-.072.062-.117.079c-.043.019-.091.026-.141.024-.195-.008-.391-.015-.586-.021-.195-.009-.391-.016-.586-.022s-.391-.014-.586-.021c-.197.006-.391-.003-.587-.01zm3.035-6.497c.387-.003.771-.007 1.158-.011.387-.003.771-.006 1.157-.009.388-.003.772-.006 1.159-.009.385-.003.771-.007 1.158-.009 0-.184 0-.365 0-.548 0-.184 0-.367 0-.55s0-.366 0-.549c0-.182 0-.365 0-.548-.59.01-1.178.021-1.766.031-.591.012-1.18.022-1.768.036-.589.014-1.178.025-1.766.041-.59.016-1.178.028-1.767.044-.008 0-.016.001-.022 0-.008 0-.017 0-.023.001-.008 0-.016 0-.023 0-.006 0-.017 0-.022 0-.331.021-.646.108-.933.251-.285.143-.541.337-.756.569-.215.233-.39.507-.51.81-.119.299-.186.623-.186.966 0 .352.068.684.193.986s.308.578.53.811c.226.231.491.421.788.555.296.132.623.209.965.214.232.002.465.006.696.008.231.003.463.006.694.009s.465.006.697.008c.23.002.463.005.693.008.281.117.553.28.799.481.248.2.473.439.661.708s.345.565.45.884c.105.317.166.657.166 1.006 0 .45-.098.876-.268 1.259-.17.384-.416.723-.711 1.004-.298.278-.646.499-1.025.644-.381.145-.791.212-1.209.188-.572-.031-1.145-.063-1.717-.097-.572-.032-1.146-.066-1.718-.104-.573-.034-1.146-.071-1.718-.108-.57-.038-1.145-.076-1.716-.116v.55s0 .366 0 .549v.55s0 .365 0 .549c.595.054 1.19.105 1.784.155.596.052 1.19.101 1.787.146.595.049 1.19.095 1.785.139.597.044 1.191.087 1.789.128.707.05 1.383-.061 1.998-.3.614-.242 1.17-.616 1.635-1.096.465-.479.843-1.063 1.104-1.721.262-.658.404-1.391.405-2.162 0-.771-.155-1.511-.433-2.182-.277-.672-.676-1.274-1.164-1.78-.486-.504-1.063-.909-1.694-1.188-.632-.279-1.318-.429-2.027-.425v.008.008.007.009c-.001-.002-.003-.005-.004-.008-.001-.002-.003-.005-.004-.007-.002-.002-.004-.005-.005-.007s-.004-.006-.004-.008c-.137 0-.271.001-.409.001-.136.001-.271.001-.408.002-.136 0-.272.002-.407.002-.138.001-.272.001-.408.002-.051 0-.102-.01-.146-.028-.044-.02-.083-.046-.114-.08-.033-.033-.061-.075-.078-.121-.019-.047-.028-.096-.028-.149 0-.052.01-.102.028-.146.019-.046.045-.087.078-.122.031-.035.07-.063.114-.083.043-.021.093-.031.144-.031.195-.002.391-.005.584-.007.195-.002.392-.004.586-.006.195-.003.391-.006.586-.008.197 0 .393-.002.586-.004z" fill="#fff"/><path d="m413.979 49.74 4.438 6.651h12.134l-4.438-6.651zm36.842 0-4.437 6.651h12.133l4.437-6.651zm-386.569.571v6.082h53.917 5.385c0-3.322-2.405-6.025-5.385-6.082zm65.479 0v6.082h39.027v-6.082zm50.052 0c-3.01.02-5.449 2.734-5.449 6.082h5.449 5.512 35.163v-6.082h-40.644zm51.572 0c-2.996.037-5.418 2.747-5.418 6.082h5.418 5.512 27.115 5.64c0-3.357-2.457-6.082-5.479-6.082-.057 0-.104-.002-.158 0zm63.925 0v6.082h40.2 5.416c0-3.334-2.424-6.042-5.416-6.082zm57.846 0v .031c-2.818.248-5.037 2.855-5.037 6.051h5.037 5.893 20.115 2.598 8.901 2.06c0-3.335-2.422-6.045-5.416-6.082zm46.06 0v6.082h10.931v-6.082zm68.012 0v6.082h39.028v-6.082zm-427.941 5.29c-3.891 0-7.032 3.143-7.032 7.033s3.142 7.063 7.032 7.063c3.892 0 7.033-3.174 7.033-7.063.001-3.892-3.141-7.033-7.033-7.033zm488.923 0c-3.891 0-7.063 3.143-7.063 7.033s3.174 7.063 7.063 7.063c3.891 0 7.033-3.174 7.033-7.063-.001-3.892-3.144-7.033-7.033-7.033zm-463.928 2.818v18.058h10.834v-18.058zm24.107 0v18.058h10.865v-18.058zm24.139 0v18.058h10.96v-18.058zm17.233 0v11.563c.146 3.611 3.46 6.494 7.508 6.494h31.52v-6.082h-25.659c-1.345 0-2.407-1.096-2.407-2.438v-1.521h26.167v-5.574h-23.76c-1.345 0-2.407-1.097-2.407-2.439h-1.015zm44.603 0v11.753h.031c.238 3.313 3.13 5.968 6.779 6.272v.03h32.026v-.03c4.069-.265 7.286-3.623 7.286-7.763 0-4.312-3.48-7.823-7.793-7.823-.042 0-.084-.002-.126 0h-18.722v5.574h13.525c1.096 0 1.965.9 1.965 1.996s-.869 1.964-1.965 1.964h-20.084c-1.095 0-1.964-.869-1.964-1.964v-10.01zm51.604 0v18.058h10.93v-18.058zm32.724 0v5.387h-19.862v7.097h19.862v5.574h10.961v-18.058zm36.618 0v18.058h10.93v-18.058zm34.658 0v10.012c0 1.096-.868 1.964-1.965 1.964h-20.243v6.082h26.294v-.03c3.842-.293 6.875-3.183 6.875-6.717v-11.311zm18.15 0v18.058h10.93v-18.058zm33.642 0v3.423c0 .021.003.042 0 .063-.03 1.063-.893 1.899-1.963 1.899h-2.407-15.902v7.097h15.27l5.543 5.574h13.084l-7.539-7.57c2.854-1.159 4.88-3.954 4.88-7.224v-3.264h-.729zm17.456 0v18.058h10.931v-18.058zm20.559 0 12.037 18.058h1.235 10.896 1.236l12.036-18.058h-12.133l-6.59 9.885-6.59-9.885zm47.453 0v11.563c.147 3.611 3.461 6.494 7.508 6.494h31.521v-6.082h-25.659c-1.343 0-2.439-1.096-2.439-2.438v-1.521h26.168v-5.574h-23.729c-1.343 0-2.439-1.097-2.439-2.439z" fill="url(#a)"/></svg>