<svg enable-background="new 0 0 566.929 70.521" height="70.521" viewBox="0 0 566.929 70.521" width="566.929" xmlns="http://www.w3.org/2000/svg"><path d="m215.935 24.467c-2.663 0-4.929.934-6.792 2.797-1.864 1.863-2.794 4.127-2.794 6.79 0 2.624.93 4.869 2.794 6.733 1.863 1.862 4.129 2.796 6.792 2.796 2.62 0 4.869-.934 6.729-2.796 1.866-1.864 2.799-4.109 2.799-6.733 0-2.663-.933-4.927-2.799-6.79-1.86-1.863-4.109-2.797-6.729-2.797zm182.479-23.382c-9.875-.395-18.195 2.721-24.957 9.348-6.766 6.628-10.148 14.906-10.148 24.836 0 8.848 2.601 16.494 7.802 22.939 6.582 8.156 15.899 12.232 27.946 12.232 12.013 0 21.31-4.272 27.894-12.824 4.97-6.445 7.454-13.911 7.454-22.396 0-9.931-3.332-18.201-9.997-24.812-6.667-6.61-15.33-9.718-25.994-9.323zm15.722 53.094c-1.606 4.621-3.859 7.982-6.754 10.085-2.268 1.646-5.09 2.466-8.476 2.466-5.027 0-8.938-1.907-11.73-5.721-4.01-5.457-6.015-13.891-6.015-25.299 0-9.602 1.297-16.965 3.895-22.093 3.188-6.248 7.838-9.373 13.95-9.373 3.317 0 6.249.906 8.799 2.713 2.545 1.81 4.64 4.907 6.282 9.295 1.642 4.391 2.466 11.007 2.466 19.851 0 7.432-.807 13.457-2.417 18.076zm-111.768-13.28h-32.546v1.736h1.724c1.606 0 2.976.318 4.105.948 1.135.63 1.879 1.336 2.24 2.115.36.78.541 2.499.541 5.153v13.935c-1.77.659-3.498 1.161-5.187 1.504-1.689.348-3.337.52-4.942.52-4.622 0-8.613-1.136-11.975-3.405-3.36-2.268-5.792-5.821-7.302-10.655-1.509-4.834-2.261-10.458-2.261-16.872 0-5.296.692-10.457 2.076-15.49 1.381-5.031 3.739-8.954 7.064-11.765 3.327-2.812 7.492-4.219 12.5-4.219 5.236 0 10.06 1.678 14.473 5.036 4.416 3.357 7.725 8.263 9.934 14.713h1.736v-23.621h-1.736c-.659 1.899-1.386 3.191-2.176 3.873-.791.684-1.646 1.025-2.569 1.025-.591 0-2.513-.618-5.758-1.854-3.247-1.238-5.591-1.988-7.041-2.252-2.671-.526-5.667-.791-8.995-.791-10.741 0-19.651 3.468-26.734 10.401-7.085 6.933-10.624 15.427-10.624 25.481 0 5.617 1.151 10.696 3.455 15.231 1.807 3.514 4.315 6.676 7.524 9.487 3.206 2.809 6.91 5.077 11.103 6.802 4.194 1.724 9.469 2.586 15.818 2.586 4.967 0 9.761-.482 14.382-1.443 4.622-.966 9.072-2.394 13.351-4.291v-13.935c0-2.456.149-3.999.444-4.632.523-1.194 1.268-2.048 2.235-2.563.969-.513 2.683-.853 5.141-1.021zm-135.799-39.814c-9.876-.395-18.196 2.721-24.958 9.348-6.766 6.628-10.145 14.906-10.145 24.836 0 8.848 2.597 16.494 7.8 22.939 6.582 8.156 15.897 12.232 27.942 12.232 12.015 0 21.313-4.272 27.897-12.824 4.968-6.445 7.456-13.911 7.456-22.396 0-9.931-3.333-18.201-9.998-24.812-6.666-6.61-15.331-9.718-25.994-9.323zm15.722 53.094c-1.61 4.621-3.86 7.982-6.752 10.085-2.268 1.646-5.093 2.466-8.476 2.466-5.031 0-8.94-1.907-11.731-5.721-4.011-5.457-6.015-13.891-6.015-25.299 0-9.602 1.295-16.965 3.893-22.093 3.189-6.248 7.838-9.373 13.949-9.373 3.319 0 6.25.906 8.799 2.713 2.548 1.81 4.639 4.907 6.283 9.295 1.645 4.391 2.466 11.007 2.466 19.851.001 7.432-.806 13.457-2.416 18.076zm168.337 6.789c-3.766 2.893-8.773 4.34-15.019 4.34h-3.998c-1.907 0-3.289-.261-4.144-.79-.854-.526-1.439-1.202-1.751-2.022-.313-.822-.466-3.079-.466-6.765v-18.86c3.189 0 5.626.421 7.305 1.259 1.681.84 3.153 2.479 4.419 4.916 1.268 2.437 2.098 5.567 2.493 9.386h1.896v-35.075h-1.896c-.526 5.202-1.743 9.136-3.653 11.801-1.909 2.666-4.986 3.999-9.23 3.999h-1.333v-27.253h6.872c5.066 0 8.525.297 10.368.889 3.158.989 5.603 2.538 7.329 4.646 1.73 2.107 3.07 5.583 4.026 10.424h1.896v-19.83h-56.01v1.737h2.215c2.167 0 3.873.466 5.118 1.395.887.633 1.494 1.529 1.823 2.692.162.698.248 2.574.248 5.631v44.079c0 3.392-.185 5.48-.547 6.277-.455 1.13-1.111 1.928-1.969 2.394-1.181.698-2.738 1.046-4.674 1.046h-2.215v1.737h57.817l3.009-21.279h-1.82c-1.637 5.925-4.344 10.334-8.109 13.226zm-231.842 0c-3.767 2.893-8.774 4.34-15.021 4.34h-3.996c-1.907 0-3.288-.261-4.144-.79-.856-.526-1.438-1.202-1.751-2.022-.312-.822-.469-3.079-.469-6.765v-18.86c3.192 0 5.631.421 7.308 1.259 1.679.84 3.153 2.479 4.419 4.916 1.265 2.437 2.098 5.567 2.496 9.386h1.894v-35.075h-1.894c-.53 5.202-1.747 9.136-3.655 11.801-1.912 2.666-4.988 3.999-9.233 3.999h-1.334v-27.253h6.874c5.07 0 8.523.297 10.367.889 3.163.989 5.604 2.538 7.334 4.646 1.728 2.107 3.068 5.583 4.022 10.424h1.896v-19.83h-76.977v1.737c3.734-.065 6.395.863 7.984 2.783 1.155 1.424 1.733 4.158 1.733 8.198v28.722l-32.901-41.44h-23.735v1.737c2.042.069 3.606.388 4.691.958s2.335 1.763 3.752 3.575l1.428 1.773v47.254c0 3.603-.723 6.152-2.173 7.652-1.447 1.502-4.015 2.268-7.701 2.302v1.737h23.778v-1.737h-1.581c-2.271 0-4.286-.682-6.047-2.049-1.761-1.368-2.64-4.005-2.64-7.905v-42.62l45.096 55.812h1.668v-55.77c0-3.179.271-5.423.812-6.731.544-1.309 1.299-2.253 2.266-2.832.971-.58 2.868-1.052 5.69-1.417h1.063c2.165 0 3.873.466 5.119 1.395.889.633 1.496 1.529 1.822 2.692.163.698.246 2.574.246 5.631v44.079c0 3.392-.182 5.48-.54 6.277-.461 1.13-1.117 1.928-1.971 2.394-1.18.698-2.741 1.046-4.676 1.046h-2.212v1.737h57.815l3.01-21.279h-1.818c-1.647 5.923-4.353 10.332-8.114 13.224zm417.872-53.594c-2.166-.937-5.761-1.389-10.783-1.359v49.376c0 2.538.12 4.095.362 4.668.238.574.645 1.014 1.217 1.313.813.453 1.984.678 3.52.678 5.021 0 8.854-1.719 11.504-5.162 3.607-4.653 5.413-12.488 5.413-22.277 0-7.884-1.235-14.182-3.699-18.893-1.957-3.686-4.468-7.016-7.534-8.344zm3.706 47.875c-2.14 2.782-5.208 4.131-9.391 4.131-1.492 0-2.074-.261-2.217-.342-.021-.011-.026-.015-.04-.021-.049-.288-.169-1.196-.169-3.625v-46.666c3.969.141 6.014.653 7.046 1.1 2.518 1.092 4.558 3.981 6.238 7.144 2.243 4.293 3.383 10.233 3.383 17.641 0 9.137-1.63 16.489-4.85 20.638zm21.985-39.057c-3.093-5.43-7.681-10.359-13.643-13.031-4.791-2.14-11.105-3.154-18.773-3.154l-27.659-.007h-6.741l-.316 2.309c-.18 1.304-.521 1.729-.621 1.83-.223.223-.391.273-.597.277-.151-.018-1.082-.167-4.347-1.439-5.089-1.976-10.01-2.977-14.632-2.977-6.285 0-12.3 1.574-17.88 4.681-5.603 3.12-10.113 7.563-13.403 13.207-3.289 5.636-4.957 11.692-4.957 17.997 0 5.989 1.509 11.712 4.483 17.01 3.004 5.355 7.333 9.521 12.864 12.377 5.441 2.811 11.724 4.233 18.665 4.233 5.319 0 10.067-.889 14.114-2.645 4.032-1.75 7.939-4.583 11.613-8.424l.74-.775v-13.579l-4.699 5.467c-3.318 3.86-6.465 6.589-9.356 8.112-2.802 1.478-5.943 2.225-9.338 2.225-4.063 0-7.371-.974-9.822-2.894-2.499-1.951-4.38-4.949-5.595-8.904-1.299-4.229-1.956-9.012-1.956-14.213 0-5.199.887-9.967 2.639-14.175 1.285-3.107 3.265-5.548 6.045-7.469 2.76-1.903 5.705-2.83 9.003-2.83 3.973 0 7.435 1.255 10.584 3.839 3.132 2.569 5.318 6.385 6.498 11.342l.489 2.054h6.522v-19.758h2.242c1.522 0 2.323.283 2.727.521.674.398.85.699.891.793.049.162.297 2.604.297 6.357v40.408c0 3.365-.156 4.448-.219 4.744-.19.389-.51.739-.979 1.018-.295.178-1.041.473-2.717.473h-4.703v6.938h30.12c4.158 0 7.167-.195 9.199-.592 4.365-.826 8.151-2.023 11.235-3.562 3.151-1.567 5.972-3.683 8.382-6.276 2.426-2.611 4.418-5.935 5.922-9.882 1.498-3.924 2.258-8.874 2.258-13.5.001-6.691-1.539-12.789-4.579-18.126zm-62.748 7.771h-1.736c-1.326-5.563-3.794-9.826-7.405-12.789-3.612-2.964-7.706-4.446-12.279-4.446-3.822 0-7.33 1.101-10.52 3.302-3.19 2.203-5.522 5.083-6.998 8.643-1.896 4.556-2.844 9.621-2.844 15.201 0 5.49.692 10.489 2.076 14.999 1.384 4.509 3.552 7.916 6.502 10.225 2.949 2.31 6.773 3.46 11.47 3.46 3.85 0 7.377-.843 10.585-2.531 3.205-1.69 6.583-4.602 10.137-8.735v5.297c-3.438 3.594-7.021 6.199-10.745 7.819-3.723 1.614-8.074 2.424-13.051 2.424-6.545 0-12.357-1.313-17.438-3.936-5.082-2.625-9.003-6.395-11.761-11.313-2.761-4.916-4.139-10.148-4.139-15.699 0-5.852 1.528-11.402 4.59-16.651 3.062-5.248 7.191-9.319 12.395-12.217 5.203-2.895 10.728-4.344 16.581-4.344 4.311 0 8.864.933 13.661 2.795 2.775 1.082 4.538 1.623 5.293 1.623.964 0 1.802-.353 2.509-1.059.71-.707 1.169-1.825 1.382-3.359h1.736v21.291zm62.572 22.903c-1.387 3.639-3.179 6.643-5.381 9.013-2.201 2.369-4.741 4.272-7.618 5.704-2.88 1.435-6.4 2.545-10.557 3.33-1.844.361-4.736.542-8.685.542h-27.447v-1.591h2.03c1.773 0 3.135-.282 4.082-.847.946-.563 1.646-1.333 2.098-2.307.271-.638.406-2.558.406-5.754v-40.408c0-3.165-.165-6.583-.495-7.375-.331-.792-1-1.484-2.009-2.078-1.006-.594-2.367-.891-4.082-.891h-2.03v-1.593h27.447c7.326 0 13.22.997 17.68 2.989 5.457 2.445 9.594 6.965 12.414 11.917 2.819 4.951 4.228 10.551 4.228 16.8 0 4.317-.691 8.911-2.081 12.549z" fill="#fff"/></svg>