<svg enable-background="new -0.003 -0.001 566.931 154.093" height="154.093" viewBox="-.003 -.001 566.931 154.093" width="566.931" xmlns="http://www.w3.org/2000/svg" xmlns:xlink="http://www.w3.org/1999/xlink"><linearGradient id="a"><stop offset="0" stop-color="#ecefeb"/><stop offset=".1746" stop-color="#eaece9"/><stop offset=".2796" stop-color="#e1e4e0"/><stop offset=".3661" stop-color="#d3d6d3"/><stop offset=".4427" stop-color="#c0c1bf"/><stop offset=".5127" stop-color="#a6a7a6"/><stop offset=".5769" stop-color="#878787"/><stop offset=".6" stop-color="#7a7a7a"/><stop offset="1" stop-color="#343732"/></linearGradient><linearGradient id="b" gradientUnits="userSpaceOnUse" x1="489.3931" x2="489.3931" xlink:href="#a" y1="11.0293" y2="146.5224"/><linearGradient id="c" gradientUnits="userSpaceOnUse" x1="374.2456" x2="374.2456" xlink:href="#a" y1="8.0195" y2="137.1045"/><g fill="#fff"><path d="m436.783 14.144-17.318 116.254c-.141.942.103 1.867.683 2.603s1.423 1.187 2.37 1.271l16.047 1.399c1.91.168 3.686-1.244 3.947-3.146 0 0 8.807-63.336 9.371-67.417 1.156 3.975 20.719 71.149 20.719 71.149.504 1.722 2.293 3.222 4.078 3.41l10.701 1.14c1.773.188 3.861-.875 4.752-2.418 0 0 34.193-59.302 36.105-62.614-.326 3.786-5.582 64.872-5.582 64.872-.01.104-.016.205-.016.31 0 1.805 1.385 3.369 3.209 3.56l19.23 1.987c.938.099 1.854-.18 2.586-.778.729-.601 1.174-1.447 1.258-2.388l10.424-116.891c.082-.938-.205-1.854-.813-2.578-.607-.724-1.457-1.168-2.396-1.25l-18.051-1.57c-1.777-.155-3.842.951-4.699 2.516l-44.734 81.701c-.004.006-.006.006-.008.01-.002-.004-.002-.004-.004-.01l-23.939-88.783c-.469-1.743-2.244-3.25-4.041-3.431l-19.895-2.003c-1.918-.195-3.701 1.194-3.984 3.095z" fill="url(#b)"/><path d="m564.333 19c-1.908-2.275-4.586-3.671-7.543-3.929l-18.049-1.569c-4.77-.415-9.699 2.227-11.996 6.423 0 0-24.188 44.166-35.697 65.188-6.199-22.988-19.039-70.604-19.039-70.604-1.293-4.797-5.645-8.496-10.594-8.993l-19.896-2.003c-5.975-.601-11.344 3.579-12.229 9.516l-17.317 116.256c-.442 2.984.364 6.049 2.228 8.406 1.858 2.354 4.647 3.855 7.658 4.121l16.043 1.4c5.963.521 11.277-3.717 12.104-9.646 0 0 2.26-16.262 4.5-32.362 5.41 18.58 10.822 37.168 10.822 37.168 1.363 4.68 5.699 8.31 10.545 8.821l10.703 1.142c4.746.504 9.725-2.028 12.107-6.164 0 0 9.551-16.562 19.084-33.092-1.322 15.371-2.66 30.918-2.66 30.918-.027.317-.041.637-.041.949 0 5.629 4.309 10.506 10.002 11.094l19.229 1.992c2.971.307 5.875-.57 8.18-2.472 2.307-1.897 3.721-4.582 3.984-7.56l10.422-116.889c.267-2.952-.639-5.834-2.55-8.111zm-30.062 5.044c.666-1.218 2.344-2.116 3.729-1.996l5.943.517-6.096 18.277h-12.773zm-93.607-11.995 19.895 2.003c1.383.139 2.811 1.349 3.168 2.69l5.494 20.373h-23.074-.553l-.168.527-2.979 9.373h-9.541l4.877-32.722c.203-1.373 1.5-2.382 2.881-2.244zm-9.561 90.799 3.496 1.902.17.092h.191 10.377l-1.459 10.486-20.783-2.473 1.498-10.049zm7.547 31.819-16.047-1.401c-1.383-.121-2.348-1.343-2.143-2.716l2.412-16.196 20.797 2.476-2.162 15.56c-.187 1.37-1.474 2.396-2.857 2.277zm13.586-71.948c-.391-1.333-.861-1.297-1.055.076l-5.635 40.534h-10.395l-3.494-1.899-.166-.093-.191-.002-6.479-.041 7.855-52.764h10.318.553l.168-.528 2.98-9.372h22.928l11.049 40.976h-10.77-.764v.756 27.635h-3.723zm92.945 82.778-9.295-.961.938-13.306 4.813-.633.4-.054.18-.36 1.225-2.479h5.861l-1.385 15.541c-.126 1.38-1.356 2.392-2.737 2.252zm4.256-19.309h-6.473-.469l-.209.42-1.252 2.541-5.023.662-.609.08-.047.617-.975 13.869-8.428-.871c-1.379-.145-2.412-1.393-2.293-2.775l3.408-39.619h10.426.756l.002-.756.064-24.132 4.314-15.606 12.646.051zm5.977-67.033-13.355-.054-.574-.002-.152.557-4.5 16.264-.027.098v.102l-.066 23.48h-9.541l2.217-25.75c.117-1.383-.355-1.531-1.045-.329l-37.113 64.363c-.691 1.203-2.391 2.064-3.77 1.918l-10.701-1.139c-1.381-.146-2.828-1.356-3.215-2.688l-7.709-26.466h4.041.758v-.758-27.633h10.426l6.58 24.403c.361 1.338 1.203 1.439 1.869.224l34.709-63.387h14.148.545l.176-.518 6.379-19.139 10.557.918c1.383.12 2.412 1.35 2.289 2.733z" fill="#fff"/><path d="m421.875 8.088 0 0-18.472 3.722c-1.782.359-3.37 2.05-3.618 3.85 0 0-10.306 74.859-10.435 75.795-.463-.822-37.666-67.015-37.666-67.015-.896-1.594-3-2.553-4.791-2.183l-21.271 4.396c-.975.2-1.732.776-2.088 1.579-.354.802-.27 1.752.238 2.605l61.738 104.019c.928 1.561 3.045 2.518 4.822 2.182l10.776-2.038c1.776-.336 3.404-1.996 3.707-3.781l20.308-119.985c.168-.984-.096-1.897-.723-2.504-.625-.605-1.547-.837-2.525-.642z" fill="url(#c)"/><path d="m430.519 2.419c-2.027-1.968-4.895-2.809-7.668-2.251l-23.417 4.719c-3.576.72-6.31 3.625-6.808 7.241 0 0-4.403 31.996-7.705 55.993-11.916-21.201-27.871-49.589-27.871-49.589-1.829-3.256-5.559-4.954-9.217-4.198l-26.215 5.418c-2.72.561-4.994 2.4-6.115 4.938-1.119 2.537-.942 5.459.472 7.844l64.317 108.356c1.84 3.104 5.426 4.721 8.972 4.051l15.729-2.971c3.526-.666 6.269-3.46 6.866-7l21.148-124.96c.471-2.784-.459-5.625-2.488-7.591zm-29.734 13.379c.188-1.375 1.457-2.724 2.815-2.999l7.015-1.413v5.358l-1.759 1.556-.256.226v.341 3.905l-1.806 1.93-.205.219v.299 11.849l-2.353 1.972h-6.653zm-59.255 30.801h.759v-.759-9.318h6.762.386l.228-.311 1.335-1.827h5.119l22.877 40.706-18.58 15.5-26.116-43.99zm-15.702-18.954 21.271-4.396c1.355-.281 3.025.48 3.707 1.689l4.459 7.934h-4.648-.387l-.229.31-1.338 1.828h-7.135-.76v.757 9.32h-7.368l-8.762-14.76c-.704-1.196-.172-2.403 1.19-2.682zm77.993 103.408c-.229 1.369-1.536 2.701-2.899 2.957l-10.771 2.035c-1.362.258-3.062-.508-3.771-1.701l-7.616-12.834 15.272-5.639.494-.182v-.527-6.848l3.793-2.902 5.36.043.267.002.209-.164 4.637-3.643zm2.262-64.336 1.992-1.949.228-.223v-.318-3.582h7.434l-3.547 20.953h-6.147zm18.043-55.649-8.135 48.063h-8.445-.76v.758 4.021l-1.99 1.947-.226.223-.002.317-.049 15.958-.002.76h.76 6.652l-2.763 16.316-5.737 4.506-5.357-.043-.26-.002-.205.157-4.297 3.291-.297.226v.375 6.692l-15.039 5.553-16.783-28.273 18.554-15.48 8.959 15.937c.68 1.209 1.392 1.074 1.58-.301l7.09-51.511h7.14.274l.212-.178 2.834-2.376.271-.226v-.354-11.903l1.809-1.931.205-.218v-.299-3.864l1.756-1.557.254-.225v-.341-6.003l9.945-2.003c1.359-.275 2.285.621 2.052 1.988z" fill="#fff"/><path d="m65.161 95.064c1.551 3.064 2.33 6.711 2.33 10.945 0 4.084-.854 7.619-2.558 10.605-1.705 2.985-3.921 5.44-6.649 7.37-2.727 1.929-5.816 3.363-9.263 4.312-3.449.943-6.916 1.416-10.399 1.416-6.973 0-12.826-1.287-17.562-3.854s-8.998-6.463-12.786-11.681l8.075-10.193c.747-.942 2.017-.979 2.817-.086 0 0 .929 1.037 2.52 2.283 1.591 1.25 3.313 2.344 5.171 3.289 1.854.947 3.75 1.721 5.683 2.326s3.731.908 5.398.908c1.666 0 2.938-.304 3.807-.908.871-.604 1.309-1.738 1.309-3.402 0-1.436-.779-2.797-2.33-4.084-1.555-1.283-3.487-2.625-5.797-4.024-2.313-1.397-4.813-2.91-7.502-4.537-2.689-1.625-5.189-3.533-7.5-5.728-2.313-2.19-4.245-4.707-5.797-7.541-1.553-2.836-2.33-6.105-2.33-9.811 0-3.629.682-6.805 2.045-9.526 1.363-2.723 3.201-5.008 5.513-6.862 2.31-1.851 4.981-3.25 8.013-4.197 3.029-.944 6.25-1.417 9.66-1.417 6.061 0 11.498 1.116 16.311 3.345 4.812 2.231 9.377 5.539 13.697 9.922l-6.539 10.073c-.654 1.009-1.936 1.191-2.846.402 0 0-1.643-1.42-3.46-2.595-1.817-1.17-3.599-2.171-5.341-3.004-1.744-.832-3.374-1.455-4.889-1.872-1.517-.415-2.84-.624-3.978-.624-1.364 0-2.368.341-3.012 1.021-.646.681-.966 1.55-.966 2.608 0 1.36.775 2.628 2.33 3.8 1.551 1.172 3.504 2.381 5.853 3.629 2.349 1.249 4.868 2.646 7.56 4.195 2.688 1.552 5.209 3.423 7.559 5.613 2.346 2.197 4.297 4.824 5.853 7.884zm29.793-4.388c.866-.941 1.848-1.656 2.944-2.146 1.093-.487 2.168-.733 3.228-.733 3.17 0 5.528.791 7.076 2.373 1.547 1.582 2.248 3.197 2.248 3.197.477 1.1 1.818 1.762 2.981 1.473l13.737-3.428c-1.435-6.25-4.342-11.3-8.719-15.139-4.379-3.842-10.267-5.762-17.664-5.762-4.529 0-8.568.695-12.117 2.09s-6.529 3.389-8.944 5.989c-2.417 2.599-4.247 5.726-5.492 9.377-1.246 3.656-1.869 7.74-1.869 12.259 0 3.918.566 7.646 1.698 11.188s2.887 6.646 5.266 9.32c2.377 2.676 5.377 4.803 9.002 6.385 3.623 1.58 7.963 2.371 13.021 2.371 2.868 0 5.661-.438 8.379-1.299 2.718-.867 5.209-2.186 7.474-3.955 2.266-1.77 4.246-4.01 5.944-6.725 1.698-2.711 3.16-7.518 3.16-7.518.349-1.146-.31-2.354-1.461-2.687l-13.304-3.807c-.228 1.207-.719 2.297-1.473 3.277-.756.979-1.604 1.826-2.548 2.541-.944.719-1.907 1.284-2.888 1.698s-1.887.619-2.717.619c-2.944 0-5.342-1.129-7.19-3.389-1.851-2.261-2.774-5.233-2.774-8.929 0-1.954.283-3.649.85-5.084.566-1.425 1.282-2.612 2.152-3.556zm94.375 9.574c-.189-4.686-.379-9.461-.568-14.334s-.445-13.508-.445-13.508c-.035-1.201-1.049-2.164-2.25-2.137l-18.598.404c.229 3.627.436 6.763.625 9.407.189 2.645.342 5.176.455 7.592s.189 4.91.229 7.477c.035 2.57.057 5.593.057 9.066 0 2.645-.871 4.74-2.611 6.289-1.742 1.549-3.822 2.322-6.248 2.322-2.572 0-4.504-.775-5.791-2.322-1.289-1.549-1.93-3.418-1.93-5.609 0-3.92.18-7.598.566-11.442.379-3.774.756-7.25 1.137-10.427.455-3.625 1.229-8.268 1.229-8.268.197-1.186-.623-2.146-1.826-2.133l-19.391.203c-.531 3.779-.984 7.555-1.363 11.333-.379 3.248-.699 6.685-.965 10.312-.266 3.625-.396 6.873-.396 9.743 0 4.078.492 7.755 1.477 11.025.982 3.271 2.5 6.051 4.543 8.34s4.674 4.051 7.893 5.291c3.217 1.235 7.059 1.856 11.525 1.856 1.287 0 2.611-.17 3.975-.51 1.361-.341 2.668-.813 3.918-1.419 1.248-.604 2.4-1.301 3.463-2.094.477-.356 1.313-1.485 1.998-1.248.889.312.387 2.306.387 2.97 0 1.202.982 2.163 2.186 2.137l17.801-.399c-.152-5.554-.322-10.756-.512-15.61-.193-4.855-.383-9.623-.57-14.307zm82.494-19.064c-1.736-2.672-4.115-4.762-7.133-6.27-3.02-1.506-6.945-2.26-11.775-2.26-3.625 0-6.738.791-9.344 2.373-.693.422-1.373.869-2.025 1.354-.586.435-1.154.898-1.684 1.399-.395.373-.738.944-1.311 1.045-.146.024-.299.062-.453.047-.523-.049-.668-.401-.938-.791-.754-1.094-1.732-2.015-2.818-2.772-1.889-1.316-4.266-1.977-7.133-1.977-1.436 0-2.795.226-4.078.678-1.285.451-2.434 1.035-3.453 1.751-.861.604-1.604 1.334-2.426 1.984-.404.317-.564.756-1.131.721-.586-.038-.502-.784-.543-1.184-.049-.474-.1-.947-.148-1.421-.037-.347-.074-.694-.109-1.04-.123-1.191-1.205-2.144-2.404-2.115l-16.279.399c.227 4.595.396 9 .51 13.22.114 4.219.188 8.491.227 12.821.037 4.332.037 8.908 0 13.729-.039 4.82-.053 13.75-.053 13.75-.002 1.199.977 2.164 2.176 2.146l15.797-.27c1.197-.021 2.199-1.02 2.223-2.215l.637-31.037c0-1.055.264-2.127.791-3.221.527-1.093 1.771-1.64 3.736-1.64.906 0 1.623.338 2.152 1.019.525.678.961 1.582 1.303 2.711.34 1.129.564 2.428.678 3.897.113 1.467.17 2.994.17 4.576v9.604c0 2.483-.02 4.649-.057 6.493-.039 1.851-.096 3.58-.17 5.199-.076 1.62-.143 3.416-.143 3.416-.045 1.196.896 2.198 2.096 2.228l18.543.401c-.152-1.129-.283-2.522-.395-4.181-.113-1.655-.191-3.351-.229-5.084-.037-1.731-.074-3.389-.113-4.971s-.057-2.861-.057-3.843c0-7.229.303-12.612.908-16.155.604-3.539 2.188-5.311 4.756-5.311 1.584 0 2.811.66 3.68 1.979.865 1.318 1.303 3.521 1.303 6.609 0 2.938-.359 6.686-1.076 11.242-.719 4.558-2.971 14.427-2.971 14.427-.266 1.168.49 2.244 1.68 2.396l18.672 2.33c.83-4.67 1.529-9.188 2.096-13.56.566-4.366.85-8.625.85-12.769 0-4.442-.322-8.528-.963-12.258-.646-3.724-1.836-6.926-3.572-9.599zm89.059 9.604c-.644-3.729-1.83-6.931-3.563-9.604-1.737-2.672-4.116-4.762-7.137-6.27-3.021-1.506-6.942-2.26-11.774-2.26-3.623 0-6.736.791-9.343 2.373-.666.405-1.315.834-1.946 1.295-.593.434-1.162.896-1.697 1.396-.442.414-1.014 1.406-1.715 1.203-.5-.146-.938-.701-1.229-1.105-.718-.984-1.644-1.813-2.64-2.506-1.889-1.315-4.267-1.978-7.133-1.978-1.438 0-2.795.227-4.078.679-1.282.452-2.435 1.036-3.451 1.751-1.02.716-1.852 1.469-2.491 2.259-.104.127-.205.252-.317.369-.162.168-.416.396-.671.334-.288-.067-.459-.498-.522-.752-.116-.445-.127-.917-.172-1.374-.062-.592-.121-1.186-.185-1.777-.125-1.193-1.207-2.145-2.403-2.115l-16.277.399c.225 4.595.396 9.001.508 13.22.115 4.219.189 8.492.229 12.822.037 4.332.037 8.908 0 13.729-.039 4.82-.055 13.75-.055 13.75-.002 1.199.977 2.164 2.178 2.146l15.799-.269c1.197-.021 2.197-1.016 2.223-2.215l.635-31.037c0-1.055.266-2.127.793-3.221.527-1.092 1.773-1.639 3.736-1.639.906 0 1.623.338 2.15 1.018.525.678.963 1.582 1.303 2.711s.563 2.428.68 3.898c.113 1.469.17 2.994.17 4.574v9.604c0 2.483-.02 4.649-.057 6.495-.039 1.849-.096 3.578-.17 5.197-.076 1.621-.146 3.416-.146 3.416-.045 1.196.896 2.198 2.1 2.228h.033c.6.012 1.197.024 1.799.039 1.293.026 2.586.057 3.881.084 1.582.032 3.164.067 4.748.104 1.494.031 2.988.063 4.48.098.916.021 1.99.219 2.891.012.76-.176.592-.777.57-1.385-.025-.918-.193-1.814-.26-2.729-.109-1.655-.188-3.352-.229-5.084-.037-1.731-.074-3.391-.111-4.971-.039-1.582-.059-2.861-.059-3.843 0-7.229.301-12.614.906-16.155s2.189-5.313 4.756-5.313c1.586 0 2.813.662 3.682 1.979.865 1.317 1.305 3.521 1.305 6.608 0 2.938-.357 6.687-1.078 11.242-.717 4.562-2.969 14.428-2.969 14.428-.268 1.168.486 2.246 1.68 2.396.51.063 1.018.127 1.521.19 2.555.32 5.104.636 7.656.955 1.619.203 3.242.373 4.863.563.984.113 1.957.332 2.938.443.607.066 1.377.375 1.867-.166.465-.52.438-1.469.545-2.109.166-.967.264-1.939.344-2.916.121-1.495.313-2.959.523-4.443.18-1.248.344-2.496.506-3.746.564-4.367.85-8.624.85-12.768-.006-4.443-.328-8.529-.97-12.257z" fill="#fff"/></g></svg>