<svg enable-background="new 0 0 566.929 98.437" height="98.437" viewBox="0 0 566.929 98.437" width="566.929" xmlns="http://www.w3.org/2000/svg"><g fill="#fff"><g fill="#fff"><path d="m59.308 59.926c.002 8.188-13.273 14.827-29.652 14.827-16.377.002-29.655-6.636-29.656-14.825 0-.001 0-.001 0-.002-.001-8.189 13.274-14.828 29.652-14.829 16.377 0 29.655 6.639 29.656 14.826z"/><path d="m110.379 83.357c.002 8.188-13.273 14.828-29.651 14.828-16.377 0-29.655-6.637-29.657-14.825 0-.002 0-.002 0-.003-.002-8.188 13.273-14.828 29.651-14.829 16.379 0 29.655 6.637 29.657 14.826z"/><path d="m60.398.252c-14.947 0-27.095 11.946-27.449 26.822.621-.043 1.239-.069 1.871-.069 15.169 0 27.466 12.309 27.466 27.492 0 .227-.011.446-.017.671 14.3-.96 25.595-12.867 25.595-27.424 0-15.183-12.297-27.492-27.466-27.492z"/><path d="m112.393 24.334c-15.165 0-27.458 12.301-27.458 27.474 0 .338.005.68.017 1.013.367-.014.728-.032 1.098-.032 14.824 0 26.905 11.759 27.441 26.46 14.659-.572 26.359-12.631 26.359-27.44.001-15.174-12.292-27.475-27.457-27.475z"/></g><path d="m186.893 0c-3.758 0-7.412 3.09-8.083 6.918v.069.068.069l-.068.068v.138.068l-.069.137v.138l-.069.137v.206l-.068.137v.206l-.069.205-.069.206-.068.41-.137.479-.067.479-.138.479-.069.547-.138.548-.136.616-.138.548-.205 1.165-.138.617-.137.547-.067.548-.138.547-.136.548-.069.548-.069.479-.138.411-.069.479v.206l-.067.137v.206.137l-.068.206v.137.137l-.069.137v.069.068c-.07 1.675.163 3.96.685 4.385.665 3.688 12.958 20.758 12.604 23.358-.332 2.606-1.781 10.276-1.781 10.276-.446 2.585-2.21 4.657-4.794 4.657-2.586 0-4.351-2.065-3.905-4.657l2.329-12.741h-9.179l-3.083 17.674c-.628 3.588 1.801 6.438 5.411 6.438h13.085c3.624 0 7.076-2.85 7.739-6.438 0 0 3.372-16.508 3.356-17.674-.013-1.174-.341-1.302-.341-1.302 0-1.342-10.939-19.4-12.056-20.072-.481-.281-.877-2.069-.892-3.15-.021-1.074 1.439-8.289 1.439-8.289.444-2.585 2.894-4.658 5.48-4.658 2.585 0 3.664 2.073 3.219 4.658l-1.986 11.439h9.247l3.22-17.194c.729-3.825-1.721-6.915-5.479-6.915zm25.207 0-10.959 63.16c-.628 3.588 1.802 6.438 5.412 6.438h13.084c3.624 0 7.138-2.85 7.809-6.438l11.712-63.16h-8.219l-11.167 61.377c-.163.892-1.028 1.645-1.917 1.645h-6.509c-.911 0-1.519-.747-1.371-1.645l10.894-61.377zm31.511 0-13.221 69.597h8.768l6.029-31.51h11.166c3.632 0 7.074-2.871 7.739-6.438l4.795-24.73c.724-3.836-1.72-6.919-5.477-6.919h-11.03zm31.306 0-13.699 69.597h19.727l1.37-8.631h-9.727l3.974-23.496h9.726l1.37-7.261h-9.725l4.315-21.578h9.728l1.368-8.631zm23.564 0-13.151 69.597h8.768l5.96-31.51h6.235c.818.763.915 2.171 1.024 2.877.164 1.025.334 2.333.208 3.357-.114 1.017-4.797 25.276-4.797 25.276h8.769s4.933-26.428 4.933-26.852c.014-.431 0-1.785-.478-2.534-.322-.48-.873-1.583-1.509-1.986-1.223-.785-2.603-1.303-2.603-1.303h-.62c2.512-.989 7.24-2.618 7.744-5.274l4.794-24.73c.728-3.835-1.721-6.918-5.479-6.918zm46.924 0-13.222 69.597h10.071l8.15-40.346 3.221 40.346h8.769l13.22-69.597h-10.069l-6.851 36.375-4.521-36.375zm34.798 0-13.22 69.597h8.769l13.218-69.597zm13.356 0-13.219 69.597h10.139l8.151-40.346 3.22 40.346h8.769l13.221-69.597h-10.139l-6.781 36.375-4.522-36.375zm33.979 0-1.646 8.632h5.481l-10.824 60.965h10.003l11.028-60.965h5.274l1.371-8.632zm24.111 0-13.698 69.597h19.726l1.371-8.631h-9.726l4.042-23.496h9.725l1.371-7.261h-9.726l4.245-21.578h9.728l1.37-8.631zm22.264 0-13.22 69.597h10.137l8.153-40.346 3.219 40.346h8.768l13.223-69.597h-10.139l-6.782 36.375-4.523-36.375zm34.869 0-13.223 69.597h20.003c3.633 0 7.137-2.85 7.81-6.438l10.616-56.241c.721-3.835-1.72-6.918-5.478-6.918zm37.606 0c-3.76 0-7.344 3.09-8.015 6.918l-9.798 56.241c-.635 3.588 1.74 6.438 5.347 6.438h14.452c3.624 0 7.138-2.85 7.812-6.438l10.615-56.241c.728-3.828-1.729-6.918-5.479-6.918zm-30.14 8.015h4.042c2.585 0 4.349 2.073 3.903 4.658l-8.631 45.554c-.451 2.585-2.962 4.727-5.548 4.727h-3.973zm35.277 0h .275c2.585 0 4.281 2.073 3.834 4.658l-8.217 45.554c-.448 2.577-2.829 4.727-5.412 4.727-2.587 0-3.666-2.142-3.223-4.727l8.153-45.554.067-.206.07-.206.067-.274.068-.206.07-.274.067-.206.07-.206.134-.205.069-.206.138-.206.068-.205.138-.206.138-.137.135-.205.138-.206.205-.137.138-.138.137-.137.205-.137.206-.137.138-.137.204-.138.206-.068.207-.137.137-.069.273-.069.205-.068h.204l.206-.069h.275zm-299.489.274h4.248c.933 0 2.911 2.136 2.741 3.083l-3.632 17.194c-.169.89-1.37 2.945-2.258 2.945h-5.14-.068-.068l-.069-.068h-.067-.069-.069-.069v-.069h-.069-.068l-.07-.068h-.068l-.068-.069-.068-.068h-.068v-.069l-.069-.068-.069-.069v-.069l-.068-.068-.07-.069v-.068-.069l-.068-.068v-.069-.068l-.07-.069v-.068c0-.114-.012-.285 0-.412l4.111-21.03c.377-.309.837-.547 1.302-.547zm54.595 0h .07.068.069.068 3.974c.933 0 2.923 2.136 2.738 3.083l-3.632 17.125c-.159.897-2.389 3.014-3.286 3.014h-3.768c-.777 0-1.314-.511-1.369-1.231 0-.114-.016-.278 0-.412l4.042-21.03.067-.069.07-.068.134-.069h.068l.069-.069.068-.068h.069l.068-.069h.07l.136-.068h.067.068.067v-.069zm-139.193 67.337v22.811h391.005v-22.811zm287.434 2.397h.066.067.07.067.068 3.017c.811 0 1.395.651 1.232 1.507l-.755 3.838h-1.848l.409-2.535c.094-.573-.244-1.029-.823-1.029-.571 0-1.135.454-1.232 1.029l-.34 1.85c-.058.11.114.629.204.686.254.146 2.671 4.153 2.671 4.451.058.149.09.22.067.275-.069.501-.753 3.903-.753 3.903-.147.781-.907 1.438-1.712 1.438h-2.877c-.799 0-1.313-.657-1.165-1.438l.686-3.903h1.988l-.479 2.809c-.092.571.239 1.095.818 1.095.554 0 1.144-.52 1.237-1.095l.409-2.261c-.367-.945-2.791-4.388-2.946-5.207-.106-.092-.152-.587-.136-.959.021-.407.547-2.946.547-2.946h.07v-.068-.067-.068l.067-.138v-.067l.066-.07v-.068l.069-.067v-.068l.068-.067.07-.07v-.067h.067l.07-.068.067-.07.068-.067v-.07h.069l.066-.067.067-.068h.07l.068-.067h.069l.068-.068h.067.138zm15.753 0h2.467l.342 5.824 3.15-5.824h2.468l-5.07 8.906-1.233 6.507h-2.191l1.097-6.988zm22.401 0h .067.07.067.07.067 3.013c.812 0 1.381.651 1.233 1.507l-.754 3.838h-1.85l.413-2.535c.091-.573-.243-1.029-.822-1.029-.574 0-1.144.454-1.233 1.029l-.343 1.85c-.072.11.092.629.205.686.242.146 2.671 4.153 2.671 4.451.072.149.07.22.07.275-.094.501-.686 3.903-.686 3.903-.147.781-.915 1.438-1.714 1.438h-2.944c-.798 0-1.314-.657-1.167-1.438l.686-3.903h1.987l-.479 2.809c-.092.571.264 1.095.823 1.095.571 0 1.119-.52 1.232-1.095l.41-2.261c-.374-.945-2.787-4.388-2.945-5.207-.105-.092-.149-.587-.136-.959.021-.407.548-2.946.548-2.946l.067-.068v-.067-.068l.068-.138v-.067l.069-.07v-.068l.068-.067v-.068l.069-.067.068-.07v-.067h.07l.065-.068.068-.07.069-.067.068-.07.067-.067.07-.068h.068l.069-.067h.068l.067-.068h.068.136zm15.96 0h4.591l-.344 1.851h-1.165l-2.396 13.563h-2.26l2.396-13.563h-1.163zm17.948 0h4.109l-.344 1.851h-2.124l-.956 4.864h2.191l-.344 1.574h-2.124l-.889 5.206h2.121l-.271 1.918h-4.385zm16.919 0h2.535l.409 8.906 3.906-8.836 2.465-.07-2.601 15.413h-1.918l1.232-8.15-3.426 8.15h-1.371l-.409-8.358-1.508 8.358h-2.262zm-367.921.55h4.042l-.275 1.916h-2.191l-.89 4.797h2.124l-.275 1.644h-2.192l-.821 5.207h2.123l-.343 1.917h-4.384zm18.906 0h1.918l1.027 8.083 1.506-8.083h2.262l-2.947 15.48h-1.917l-.754-8.976-1.78 8.976h-2.262zm20.551 0h4.521l-.273 1.916h-1.165l-2.466 13.564h-2.19l2.396-13.564h-1.233zm19.934 0h4.11l-.343 1.916h-2.124l-.959 4.797h2.124l-.274 1.644h-2.123l-.89 5.207h2.123l-.273 1.917h-4.384zm19.318 0h4.383c.813 0 1.327.719 1.165 1.574l-1.027 5.48c-.114.593-1.157 1.078-1.714 1.302h.138.068.07v.068h.068.07.066.07l.068.067h.068.068.07v.068h.068.07v.07h.068c.092.165.136.659.136.753 0 .092-1.097 6.097-1.097 6.097h-1.986s1.061-5.394 1.097-5.617c.022-.24-.026-.529-.068-.753-.016-.166-.024-.45-.206-.618h-1.371l-1.301 6.988h-1.987zm19.59 0h4.589l-.273 1.916h-1.163l-2.467 13.564h-2.192l2.397-13.564h-1.232zm22.811 0h2.604l-.822 15.48h-2.604l.342-3.563h-1.574l-1.303 3.563h-2.327zm18.224 0h1.986l-2.947 15.48h-1.918zm17.671 0h1.92l1.026 8.083 1.509-8.083h2.191l-2.877 15.48h-1.986l-.685-8.976-1.784 8.976h-2.258zm22.675 0h2.535l.409 8.974 3.908-8.905h2.463l-2.602 15.412h-1.917l1.232-8.152-3.427 8.152h-1.37l-.409-8.356-1.507 8.356h-2.193zm24.866 0h4.042l-.276 1.916h-2.191l-.889 4.797h2.123l-.275 1.644h-2.191l-.89 5.207h2.19l-.342 1.917h-4.315zm19.864 0h1.918l1.028 8.083 1.507-8.083h2.191l-2.875 15.48h-1.918l-.755-8.976-1.782 8.976h-2.26zm20.346 0h4.589l-.342 1.916h-1.163l-2.399 13.564h-2.193l2.399-13.564h-1.232zm-164.197 1.847c-.108 0-.198.064-.276.138l-.89 4.657v.07c0 .149.104.273.274.273h.821c.204 0 .717-.411.755-.617l.751-3.836c.036-.22-.342-.686-.547-.686h-.888zm40.551 4.658-1.437 3.905h1.095z" fill="#fff"/></g></svg>