<svg enable-background="new 0 0 566.926 121.783" height="121.783" viewBox="0 0 566.926 121.783" width="566.926" xmlns="http://www.w3.org/2000/svg"><g fill="#fff"><path d="m0 0h28.081v8.264h-8.219v112.161h-9.933v-112.161h-9.929z"/><path d="m53.519 112.216h10.961v-78.582h9.587v78.582c0 5.086-4.622 8.688-9.36 8.688h-11.188c-5.007 0-9.474-4.074-9.474-8.791v-78.479h9.474z"/><path d="m259.674 52.827h14.642v68.154h-20.632c-4.412 0-9.846-3.377-9.846-8.5v-103.024c0-4.328 4.535-8.937 9.629-8.937h11.259c4.994 0 9.525 4.567 9.525 8.836v24.407h-9.868v-24.067h-11.213v102.862h11.472v-51.39h-4.968z"/><path d="m401.255 79.153v41.311h-9.244v-79.119c0-3.574 3.553-7.468 8.047-7.468h15.24v7.626h-14.043v29.232h11.561v8.457z"/><path d="m434.045 33.899h9.703v31.512l5.479 5.509 5.363-5.356v-31.665h9.586v29.982c0 3.661-9.47 13.306-9.47 13.306s9.586 9.64 9.586 13.547v29.904h-9.017v-31.134l-5.822-5.887-5.821 5.81v31.213h-9.587v-29.834c0-3.668 10.155-13.695 10.155-13.695s-10.155-9.537-10.155-13.381z"/><path d="m115.616 79.349c3.253 0 7.578-3.888 7.578-9.092v-28.437c0-4.092-4.667-7.902-9.975-7.902h-19.691v86.894h9.076v-40.825h3.425l10.101 40.671h8.904zm-1.796-8.496h-10.874v-28.516h10.874z"/><path d="m316.457 79.122c3.254 0 7.581-3.895 7.581-9.096v-28.436c0-4.091-4.67-7.905-9.975-7.905h-19.69v86.9h9.069v-40.83h3.428l10.104 40.669h8.901zm-1.928-8.594h-10.867v-28.514h10.867z"/><path d="m171.712 81.397c-.042-3.894-4.107-6.357-4.107-6.357s4.107-2.658 4.107-6.354v-26.526c0-5.007-4.408-8.264-8.901-8.264h-20.719v86.744h20.719c4.195 0 8.901-2.621 8.901-8.262 0 0 .046-27.091 0-30.981zm-9.331 30.743h-10.871v-32.332h10.871zm0-41.308h-10.871v-28.514h10.871z"/><path d="m211.392 33.255h-5.479-5.308c-5.437 0-9.396 4.648-9.396 8.183v70.448c0 4.553 5.072 8.682 9.354 8.682h11.728c4.58 0 9.16-4.729 9.16-8.5v-70.869c0-3.176-4.325-7.944-10.059-7.944zm.342 78.359h-10.502v-69.778h10.502z"/><path d="m363.691 33.876h-11.979c-5.396 0-8.563 4.447-8.563 7.944v78.644h9.074v-41.311h11.47v41.311h9.075v-78.169c-.001-5.188-3.591-8.419-9.077-8.419zm-.259 36.7h-10.866v-27.96h10.866z"/><g><path d="m518.902 79.942h28.094v10.479h-28.094z" fill="#fff"/><path d="m522.37 32.673c-24.607 0-44.551 19.946-44.551 44.553s19.942 44.558 44.551 44.558c24.605 0 44.557-19.949 44.557-44.558-.001-24.606-19.951-44.553-44.557-44.553zm-15.163 62.86h-14.128v-4.949h4.554v-26.146h-4.47v-5.113h9.58v31.175h4.464zm44.66-26.71h-4.541v-4.547h-28.67v10.879h30.617l2.594 2.602v14.374l-3.247 3.247h-31.341l-3.248-3.247v-29.64l3.008-3.005h32.072l2.756 2.759z" fill="#fff"/></g></g></svg>