<svg enable-background="new 0 -13.883 566.929 170.079" height="170.079" viewBox="0 -13.883 566.929 170.079" width="566.929" xmlns="http://www.w3.org/2000/svg"><g fill="#fff"><path d="m240.575 77.262c-14.877 14.885-14.877 39.008 0 53.894 14.885 14.877 39.008 14.877 53.893 0 12.871-12.871 14.605-32.655 5.219-47.392l-20.5 20.5c-.016 2.971-1.151 5.934-3.414 8.194-4.557 4.55-11.945 4.55-16.502 0-4.55-4.557-4.55-11.942 0-16.501 4.557-4.55 11.945-4.55 16.502 0l .35.372 18.705-18.703-.356-.364c-14.889-14.877-39.012-14.877-53.897 0z"/><path d="m92.1 142.16 92.101-104.839h-38.433l-58.87 59.936c-1.797 1.827-4.713 1.827-6.509 0-1.796-1.826-1.796-4.798 0-6.634l52.361-53.301h-132.75z"/><path d="m503.134 104.037-31.893 37.501h26.061l24.832-25.282c1.439-1.463 3.771-1.463 5.211 0 1.438 1.462 1.438 3.834 0 5.306l-19.621 19.979h59.205l-31.893-37.501 31.893-37.499h-26.061l-24.832 25.282c-1.439 1.47-3.771 1.47-5.211 0-1.439-1.462-1.439-3.833 0-5.304l19.621-19.979h-59.205z"/><path d="m356.339 66.539v75h23.938v-48.746h18.15l22.326-26.254h-26.061l-24.839 25.282c-1.431 1.47-3.765 1.47-5.202 0-1.439-1.462-1.439-3.833 0-5.304l19.62-19.979z"/><path d="m338.494 66.857h14.465l23.892-24.691h-38.354v-42.166l-58.35 66.857h25.518l17.473-16.23c1.439-1.462 3.773-1.462 5.203 0 1.438 1.472 1.438 3.842 0 5.306l-13.781 14.036v71.57h23.938v-74.682z"/><path d="m158.919 77.262c-14.877 14.885-14.877 39.008 0 53.894 14.885 14.877 39.008 14.877 53.893 0 12.871-12.871 14.605-32.655 5.218-47.392l-20.5 20.5c-.016 2.971-1.151 5.934-3.414 8.194-3.741 3.733-9.379 4.401-13.796 2.017l34.747-34.747c-.599-.715-4.425-4.512-5.576-5.42-14.954-11.852-36.753-10.865-50.572 2.954zm16.175 31.442c-1.765-4.229-.925-9.301 2.52-12.745s8.516-4.286 12.746-2.521z"/><path d="m418.664 77.262c-14.877 14.885-14.877 39.008 0 53.894 14.887 14.877 39.01 14.877 53.895 0 12.871-12.871 14.605-32.655 5.221-47.392l-20.5 20.5c-.018 2.971-1.15 5.934-3.414 8.194-3.74 3.733-9.379 4.401-13.795 2.017l34.746-34.747c-.602-.715-4.428-4.512-5.576-5.42-14.958-11.852-36.757-10.865-50.577 2.954zm16.175 31.442c-1.766-4.229-.926-9.301 2.52-12.745s8.518-4.286 12.746-2.521z"/></g></svg>