<?xml version="1.0" encoding="UTF-8"?>
<svg width="425.05" height="425.05" version="1.1" viewBox="0 0 112.46 112.46" xmlns="http://www.w3.org/2000/svg"><g transform="translate(-24.29 14.269)"><ellipse transform="rotate(-26.09)" cx="53.862" cy="73.097" rx="56.885" ry="47.36" fill="#333" stroke-width="1.2262"/><path d="m115.46 8.8885-12.42 2.867-19.43 4.4829-14.351-3.3112v6.6241l-25.622 5.9121v11.864l25.622-5.9138 7.9185-1.8267a6.6319 6.6319 0 0 1-.09851-1.1389 6.6319 6.6319 0 0 1 6.631-6.631 6.6319 6.6319 0 0 1 6.3701 4.7922l18.243-4.2098 11.549-2.6648a51.409 40.67 0 0 0-.22985-1.208 51.409 40.67 0 0 0-1.2719-3.9385 51.409 40.67 0 0 0-1.761-3.8193 51.409 40.67 0 0 0-1.1492-1.8803zm5.1984 17.584-12.025 2.7754c-.56604 4.7493-2.7267 9.3225-6.2871 13.314-4.5742 5.1381-11.072 9.4544-18.754 11.235l-14.333 3.3216-25.622 5.9138v11.864l25.622-5.9138v6.0521h14.333v-9.3615c16.089-3.7139 29.349-13.661 34.605-26.768 1.6162-3.9747 2.4493-8.1241 2.4696-12.299-.002-.04413-.007-.08857-.007-.13307zm-51.399 11.862-25.622 5.9138v11.862l25.622-5.9121z" fill="#ff4b4b"/></g></svg>
