<svg enable-background="new 0 0 566.929 458.929" height="155" viewBox="0 0 504.99999 155" width="505" xmlns="http://www.w3.org/2000/svg"><g style="stroke-width:7;stroke-linecap:round;stroke-linejoin:round;enable-background:accumulate;fill:#fff;stroke:none"><path d="m95.598526 131.08104h-27.37774v-8.59728q-3.92303 4.92466-7.929529 7.17831-7.011372 3.92303-15.942525 3.92303-14.440089 0-25.708366-9.93278-13.4384643-11.85255-13.4384643-31.384236 0-19.865555 13.7723393-31.718113 10.934402-9.431966 25.124084-9.431966 8.263404 0 15.525182 3.505687 4.173436 2.003249 8.597279 6.594029v-7.595654h27.37774zm-26.543053-38.729487q0-7.345247-5.175061-12.436839-5.175061-5.175061-12.520308-5.175061-8.179935 0-13.438464 6.176686-4.256905 5.008123-4.256905 11.435214 0 6.427092 4.256905 11.435217 5.175061 6.17668 13.438464 6.17668 7.428716 0 12.520308-5.09159 5.175061-5.091591 5.175061-12.520307z"/><path d="m161.59669 78.913089q-5.75935-2.754468-11.68563-2.754468-13.52193 0-17.52843 11.017872-1.50243 4.006498-1.50243 10.767464v33.137083h-27.37774v-77.458973h27.37774v12.687245q4.34037-6.760966 9.34849-9.76584 6.76097-4.006498 16.026-4.006498 2.17018 0 5.342.250406z"/><path d="m221.41816 129.41167q-8.51381 4.2569-17.8623 4.2569-21.20106 0-33.6379-14.35662-10.01624-11.60215-10.01624-26.876928 0-15.358245 10.01624-26.876928 12.43684-14.35662 33.6379-14.35662 9.51543 0 17.8623 4.340374v23.287773q-7.26178-5.091592-14.18968-5.091592-8.17993 0-13.52193 5.258529-5.342 5.258529-5.342 13.438464 0 8.179938 5.342 13.438468 5.342 5.25853 13.52193 5.25853 6.84444 0 14.18968-5.00813z"/><path d="m313.45856 131.08104h-27.37774v-8.59728q-3.92303 4.92466-7.92953 7.17831-7.01137 3.92303-15.94253 3.92303-14.44009 0-25.70836-9.93278-13.43847-11.85255-13.43847-31.384236 0-19.865555 13.77234-31.718113 10.9344-9.431966 25.12409-9.431966 8.2634 0 15.52518 3.505687 4.17343 2.003249 8.59728 6.594029v-7.595654h27.37774zm-26.54306-38.729487q0-7.345247-5.17506-12.436839-5.17506-5.175061-12.5203-5.175061-8.17994 0-13.43847 6.176686-4.2569 5.008123-4.2569 11.435214 0 6.427092 4.2569 11.435217 5.17506 6.17668 13.43847 6.17668 7.42871 0 12.5203-5.09159 5.17506-5.091591 5.17506-12.520307z"/><path d="m408.67076 131.08104h-27.37774v-8.59728q-3.92303 4.92466-7.92953 7.17831-7.01137 3.92303-15.94252 3.92303-14.44009 0-25.70837-9.93278-13.43846-11.85255-13.43846-31.384236 0-19.865555 13.77234-31.718113 10.9344-9.431966 25.12408-9.431966 8.2634 0 15.52518 3.505687 4.17344 2.003249 8.59728 6.594029v-55.5066995h27.37774zm-26.54305-38.729487q0-7.345247-5.17506-12.436839-5.17506-5.175061-12.52031-5.175061-8.17994 0-13.43846 6.176686-4.25691 5.008123-4.25691 11.435214 0 6.427092 4.25691 11.435217 5.17506 6.17668 13.43846 6.17668 7.42872 0 12.52031-5.09159 5.17506-5.091591 5.17506-12.520307z"/><path d="m498.79139 97.359676h-57.59342q0 17.444964 16.86068 17.444964 8.59728 0 13.18806-7.34525h26.45958q-3.17181 10.51706-9.34849 16.2764-11.18481 10.43359-29.96527 10.43359-23.87206 0-35.89155-14.52356-9.01462-10.85093-9.01462-26.45958 0-18.530056 11.26827-30.132208 11.26828-11.602152 31.80159-11.602152 25.29102 0 36.14195 18.363119 6.09322 10.350121 6.09322 24.038991zm-25.54143-15.692119q-2.92141-12.854183-15.60865-12.854183-7.01137 0-11.35175 4.089967-3.42221 3.25528-4.34037 8.764216z"/></g></svg>