<svg enable-background="new 0 0 566.929 104.51" height="104.51" viewBox="0 0 566.929 104.51" width="566.93" xmlns="http://www.w3.org/2000/svg"><g fill="#fff"><path d="m432.61 68.958-48.48 17.581h48.79l18.56-10.243z"/><path d="m387.34 18.221h57.59l76.69 38.876h-30.08l-21.14-9.72-13.04 5.304z"/><path d="m494.6 36.031 48.49-17.573h-48.79l-18.55 10.235z"/><path d="m539.89 86.768h-57.6l-76.69-38.876h30.08l21.14 9.721 13.04-5.305z"/><path d="m23.837 17.749h38.175v46.65h-38.175z"/><path d="m23.837 70.11h97.824v14.281h-97.824z"/><path d="m85.87 17.749h45.34l31.02 26.177-22.42 16.449z"/><path d="m143.14 62.967v21.425h35.79v-21.425l69.19-45.218h-33.4l-69.19 45.218z"/><path d="m252.9 24.885 38.17 23.801v35.706h-38.17z"/><path d="m257.67 17.749 97.83 66.643h21.47v-66.65h-18.61v46.871l-69.67-46.864z"/></g></svg>