<svg enable-background="new 0 0 566.929 86.457" height="86.457" viewBox="0 0 566.929 86.457" width="566.929" xmlns="http://www.w3.org/2000/svg"><g fill="#fff"><path d="m56.324 24.657h36.038l-15.777 16.452h-20.261z"/><path d="m56.29 61.805h36.037l-15.778-16.451h-20.259z"/><path d="m55.539 1.699v20.725c-3.683-2.28-7.78-3.405-12.293-3.405-4.307 0-8.306 1.08-11.987 3.255-3.688 2.159-6.585 5.113-8.704 8.858-2.118 3.724-3.18 7.739-3.18 12.004 0 4.313 1.063 8.299 3.18 11.981 2.118 3.671 5.027 6.586 8.731 8.738 3.699 2.146 7.683 3.231 11.958 3.231 4.474 0 8.576-1.092 12.294-3.255v20.819c-3.994 1.206-8.093 1.807-12.294 1.807-7.71 0-14.907-1.945-21.573-5.836-6.661-3.89-11.947-9.182-15.837-15.842-3.891-6.66-5.834-13.88-5.834-21.642 0-5.75 1.125-11.289 3.382-16.61 2.257-5.315 5.39-9.967 9.407-13.95 4.006-3.982 8.61-7.07 13.787-9.269 5.188-2.205 10.741-3.308 16.668-3.308 4.098.002 8.196.579 12.295 1.699"/></g><g fill="#fff"><path d="m566.28 28.599c.324.341.463.753.555 1.645.047.425.096 1.266.096 1.898 0 2.058-.141 3.005-.604 3.498-.508.522-1.432.685-3.975.685-2.217 0-3.65-.083-4.297-.217-.693-.144-1.201-.67-1.34-1.345-.141-.545-.186-1.332-.186-2.672 0-2.246.186-3.127.785-3.6.416-.324.877-.434 1.986-.508.51-.023 1.939-.055 2.635-.055 2.868.001 3.792.139 4.345.671m-8.78 3.428c0 1.932.047 2.556.371 2.898.275.285.646.383 1.523.438l2.402.06c1.342 0 2.727-.063 3.145-.171.414-.101.738-.442.877-.872.092-.459.139-1.304.139-2.334 0-1.803-.092-2.458-.416-2.783-.416-.407-.924-.462-4.205-.462-3.789.001-3.836.084-3.836 3.226m.973-2.338h3.834c1.803 0 1.803 0 2.127.188.416.236.555.564.555 1.396 0 1.021-.186 1.274-.926 1.377.508.083.693.176.787.452.045.177.092.287.092.953v.518h-1.664v-.323c0-.887 0-.887-.971-.905h-2.125v1.229h-1.709zm3.834 2.358c1.018-.02 1.018-.02 1.018-.537 0-.504 0-.504-1.018-.518h-2.125v1.053h2.125z"/><path d="m151.471 46.328c-.183 5.143-.824 7.355-2.838 9.372-2.93 2.976-6.686 3.763-18.78 3.763-9.417 0-13.377-.654-16.427-2.865-2.989-2.074-3.964-5.394-3.964-13.513 0-7.403.911-10.653 3.635-12.854 2.92-2.404 6.95-3.113 17.337-3.113 10.188 0 14.673.774 17.604 3.177 2.472 1.946 3.296 4.354 3.479 10.128h-11.67c-.389-3.498-2.655-4.675-9.413-4.675-7.989 0-9.477 1.231-9.477 7.659 0 4.031.649 5.591 2.729 6.438 1.36.588 3.828.907 6.877.907 6.753 0 8.703-.907 9.221-4.422z"/><path d="m193.407 29.969c3.113 2.271 3.983 5.059 3.983 12.791 0 8.444-.779 11.311-3.571 13.642-2.93 2.407-6.774 3.062-18.129 3.062-11.492 0-15.337-.654-18.222-3.062-2.884-2.331-3.617-5.196-3.617-14.099 0-7.201.916-10.123 3.983-12.333 2.838-2.079 7.324-2.797 17.809-2.797 10.485-.001 14.926.717 17.764 2.796m-28.064 13.574c0 4.09.549 5.454 2.608 6.301 1.42.646 4.029.972 7.737.972 8.698 0 10.209-1.108 10.209-7.606 0-4.152-.687-5.645-2.792-6.482-1.465-.586-4.167-.916-7.417-.916-8.788-.001-10.345 1.167-10.345 7.731"/><path d="m210.53 27.959v4.606h.596c1.693-3.695 5.585-5.393 12.406-5.393 7.418 0 11.492 1.886 13.965 6.437 1.969-4.615 5.723-6.437 13.23-6.437 6.363 0 10.164 1.176 12.818 3.964 2.654 2.725 3.25 5.261 3.25 13.174v14.365h-11.492v-14.364c-.091-5.121-.229-5.702-1.328-6.811-1.145-1.167-3.113-1.689-6.455-1.689-3.479 0-5.631.587-6.82 1.951-1.328 1.428-1.694 3.246-1.694 8.241v12.673h-11.492v-14.365c0-4.795-.137-5.644-1.235-6.811-1.054-1.167-3.068-1.689-6.365-1.689-3.479 0-5.723.587-7.004 1.882-1.327 1.3-1.693 3.25-1.693 8.311v12.673h-11.491v-30.718z"/><path d="m280.301 27.959v4.606h.549c1.694-3.695 5.586-5.393 12.408-5.393 7.417 0 11.492 1.886 13.964 6.437 1.97-4.615 5.724-6.437 13.277-6.437 6.364 0 10.118 1.176 12.772 3.964 2.655 2.725 3.25 5.261 3.25 13.174v14.365h-11.49v-14.364c-.047-5.121-.184-5.702-1.282-6.811-1.19-1.167-3.114-1.689-6.502-1.689-3.433 0-5.585.587-6.821 1.951-1.327 1.428-1.693 3.246-1.693 8.241v12.673h-11.492v-14.365c0-4.795-.137-5.644-1.235-6.811-1.054-1.167-3.067-1.689-6.365-1.689-3.434 0-5.723.587-7.005 1.882-1.326 1.3-1.693 3.25-1.693 8.311v12.673h-11.49v-30.718z"/><path d="m378.553 29.969c3.111 2.271 3.936 5.059 3.936 12.791 0 8.444-.777 11.311-3.57 13.642-2.93 2.407-6.729 3.062-18.129 3.062-11.492 0-15.292-.654-18.221-3.062-2.84-2.331-3.572-5.196-3.572-14.099 0-7.201.914-10.123 3.982-12.333 2.838-2.079 7.325-2.797 17.764-2.797 10.531-.001 14.925.717 17.81 2.796m-28.066 13.574c0 4.09.504 5.454 2.609 6.301 1.42.646 4.029.972 7.691.972 8.744 0 10.209-1.108 10.209-7.606 0-4.152-.641-5.645-2.793-6.482-1.42-.586-4.166-.916-7.416-.916-8.743-.001-10.3 1.167-10.3 7.731"/><path d="m428.317 58.676h-10.805v-4.028h-.596c-2.197 3.704-5.264 4.815-13.596 4.815-8.289 0-12.27-.852-14.926-3.25-2.52-2.34-3.297-5.463-3.297-13.128 0-7.797 1.236-11.491 4.484-13.629 2.795-1.827 5.953-2.339 13.873-2.339 8.059 0 10.713 1.035 12.912 4.936h.457v-16.698h11.49v43.32h.004zm-31.729-15.719c0 6.749 1.283 7.793 9.938 7.793 4.211 0 7.324-.517 8.652-1.428 1.281-.852 1.738-2.479 1.738-6.049 0-6.35-1.512-7.527-9.705-7.527-9.064 0-10.623 1.044-10.623 7.211"/><path d="m469.934 29.969c3.111 2.271 3.98 5.059 3.98 12.791 0 8.444-.775 11.311-3.57 13.642-2.93 2.407-6.775 3.062-18.129 3.062-11.492 0-15.293-.654-18.223-3.062-2.883-2.331-3.57-5.196-3.57-14.099 0-7.201.916-10.123 3.938-12.333 2.885-2.079 7.371-2.797 17.811-2.797 10.529-.001 14.923.717 17.763 2.796m-28.021 13.574c0 4.09.506 5.454 2.611 6.301 1.373.646 3.98.972 7.689.972 8.697 0 10.211-1.108 10.211-7.606 0-4.152-.643-5.645-2.795-6.482-1.418-.586-4.164-.916-7.416-.916-8.742-.001-10.3 1.167-10.3 7.731"/><path d="m487.1 27.959v4.606h.598c2.105-3.901 5.355-5.393 11.813-5.393 9.246 0 12.359 3.122 12.359 12.343v2.078h-10.805c0-4.551-1.328-5.783-6.043-5.783-2.609 0-4.762.783-5.861 2.212-1.098 1.493-1.418 3.182-1.418 7.922v12.731h-11.493v-30.716z"/><path d="m555.086 48.869c-.869 8.51-5.082 10.594-21.518 10.594-8.881 0-13.094-.787-15.887-2.865-3.021-2.271-3.891-5.334-3.891-13.191 0-8.245.867-11.299 4.119-13.565 3.021-2.079 6.822-2.724 16.848-2.724 10.348 0 14.01.646 16.803 2.912 2.701 2.275 3.756 5.718 3.756 12.667 0 .389 0 1.812-.047 3.11h-30.033c0 3.123.367 4.156 1.465 5.009 1.236.911 3.617 1.305 7.783 1.305 7.324 0 8.697-.522 9.156-3.25zm-11.306-9.355c-.094-2.403-.229-2.984-.918-3.703-1.053-1.108-3.387-1.558-7.918-1.558-7.738 0-9.568.976-9.707 5.261z"/></g></svg>