<svg enable-background="new 0 0 566.929 87.964" height="70.467651" viewBox="0 0 343.64012 70.467654" width="343.64014" xmlns="http://www.w3.org/2000/svg"><g fill="#fff" transform="matrix(.81916268 0 0 .81916268 -.000016623689 0)"><g stroke="#fff"><path d="m333.43068 86.023995h34.39609l51.67494-86.02399133h-34.38444z"/><path d="m134.99998 23.46875v46.875h28.125c8.74937-1.435037 13.75295-6.336474 15.65625-14.0625.0175-6.255304.003-12.494669 0-18.75-1.9033-7.726026-6.90688-12.627462-15.65625-14.0625zm11 9.40625h12.46875c3.9161.694632 7.63206 1.922577 9.40625 7.8125l-.0312 12.5c-1.7896 5.881358-5.4902 7.117868-9.4063 7.8125h-12.46875l.0312-28.125z" stroke-width="1.11043465"/><path d="m14.639798 70.353531v-35.925714h-14.07128834l-.004331-10.935179h43.77975934l-4.693319 10.935179-10.943856.0043v35.921377z" stroke-width="1.11043465"/><path d="m49.031233 23.5-17.1875 46.84375h14.09375l5.4375-17.15625 5.46875 7.8125h9.375l3.125 9.34375h14.1875l-17.3125-46.84375zm8.53125 12.46875 5.53125 14.09375h-10.9375z" stroke-width="1.11043465"/><path d="m84.95721 70.353531v-46.860893h17.22477l17.19456 34.380961v-34.380961h10.94367l-.009 46.860893h-17.19202l-17.196758-34.351152-.0044 34.351152z" stroke-width="1.11043465"/><path d="m191.27104 48.512593-18.74565-25.019955h14.05901l10.19528 15.597603 10.14621-15.597603h15.60376l-18.80379 24.941709.0346 21.919184h-12.47726l-.0122-21.840938z" stroke-width="1.11043465"/></g><path d="m288.27612 86.023995h34.39609l51.67494-86.023995h-34.38444z"/><path d="m243.12157 86.024002h34.39609l51.67494-86.02399833h-34.38444z" stroke="#fff"/></g></svg>