<svg height="81.179924" viewBox="0 0 559.24859 81.179927" width="559.2486" xmlns="http://www.w3.org/2000/svg"><g fill="#fff"><path d="m159.94156 18.077167h22.14592c14.60043 0 19.75304 10.796441 19.75304 21.839491 0 13.434571-7.1161 21.962462-22.39117 21.962462h-19.50711v-43.801953zm13.49574 32.574781h5.27625c8.40425 0 9.63126-6.809678 9.63126-10.919407 0-2.760426-.85878-10.429548-10.61299-10.429548h-4.29452zm33.00282-32.574781h25.70463c7.66776 0 14.29332 4.233372 14.29332 12.514651 0 4.539786-2.08576 9.32484-6.56373 10.981231 3.68102 1.411795 5.94958 5.459705 6.44077 10.91941.18345 2.146922.24459 7.361362 1.4716 9.385991h-13.49572c-.67533-2.208075-.92059-4.477298-1.1047-6.747864-.36825-4.171549-.73716-8.526546-6.07388-8.526546h-7.1786v15.275752h-13.4957v-43.802625l0 0zm13.4957 19.139541h7.05496c2.51515 0 5.95091-.430055 5.95091-4.354998 0-2.759753-1.53343-4.354996-6.68739-4.354996h-6.31848zm46.56106-19.139541h13.18928l15.94975 43.801283h-13.98626l-1.83982-6.257329h-13.92647l-1.96347 6.257329h-13.55753zm10.61229 28.157295-3.92626-13.495719h-.12296l-4.23272 13.495719zm52.38765 11.166021c-3.00638 3.863793-7.66778 5.520175-12.45216 5.520175-12.94538 0-20.91957-10.060634-20.91957-22.513467 0-16.685529 11.71771-23.372239 21.59422-23.372239 11.16468 0 18.21963 6.073207 20.18244 16.379115h-12.94471c-.48986-3.189813-3.18914-5.459706-6.37895-5.459706-9.26301 0-8.95661 9.754224-8.95661 12.759918 0 4.109059 1.6564 11.287645 9.87585 11.287645 3.12866 0 6.31846-1.595241 6.99311-4.846203h-5.94955v-9.386658h17.91321v24.109387h-8.52723zm37.78719-40.366203c13.31295 0 22.20706 9.569434 22.20706 22.943525 0 13.374094-8.89478 22.943525-22.20706 22.943525-13.31225 0-22.20771-9.569431-22.20771-22.943525 0-13.373419 8.89613-22.943525 22.20771-22.943525zm0 34.966973c3.4351 0 8.71136-2.269894 8.71136-12.02479 0-9.754224-5.27626-12.024118-8.71136-12.024118-3.43507 0-8.71133 2.269894-8.71133 12.024118 0 9.754896 5.27694 12.02479 8.71133 12.02479zm27.97184-33.924086h13.8028l12.75992 23.434061h.12298v-23.434061h12.75992v43.801283h-13.12816l-13.43457-23.924598h-.12296v23.924598h-12.75993z" stroke="#fff"/><path d="m447.3364 33.413395c.0624-5.029649 2.08577-8.711338 5.33674-11.164676 3.25163-2.392864 7.66845-3.558048 12.45349-3.558048 12.39035 0 16.50208 7.36136 16.50208 10.981229 0 8.955931-5.64383 8.955931-5.64383 9.141395v.122969c0 .490533 6.99381.490533 6.99381 9.999491 0 5.214438-3.92627 13.435245-17.9132 13.435245-19.20002 0-19.26251-13.496394-18.95609-16.686877h11.65655c-.0618 2.269892.48985 3.988777 1.65706 5.091468 1.16452 1.411124 2.94454 1.901657 5.09147 1.901657 3.49623 0 5.70429-1.288153 5.70429-4.78438 0-3.742168-2.88338-4.416818-5.70429-4.416818-1.77869 0-2.6388.183444-3.55804.306416v-8.343774c.91924.06183 1.90097.245267 3.55804.245267 2.57631 0 5.82794-.551683 5.82794-3.864463 0-2.700622-3.06683-3.742167-5.58335-3.742167-3.31278 0-6.01139 1.778691-5.88975 5.336738zm38.21726 3.742164c-.67533-11.717701 6.6249-18.464888 18.09799-18.464888 10.36705 0 17.42202 4.354994 17.42202 13.434568 0 10.919409-10.67415 14.354488-18.71084 19.262511v.06183h19.32433v10.429551h-36.99159c-.24528-4.110404.98173-7.669125 3.06618-10.551849 3.55803-4.969843 9.69305-8.220131 15.15277-11.532912 2.20807-1.349973 5.76611-3.067514 5.76611-6.196849 0-3.865135-2.26989-5.214438-5.15262-5.214438-4.90801 0-6.56441 3.558048-6.44144 8.772486h-11.53291l0 0z"/><path d="m373.43719 67.356299h3.88665c2.56152 0 3.46665 1.893595 3.46665 3.832199 0 2.358599-1.24917 3.854388-3.93098 3.854388h-3.42366v-7.686587l0 0zm2.37001 5.717066h.9253c1.47431 0 1.69066-1.194756 1.69066-1.917783 0-.484495-.15118-1.830434-1.862-1.830434h-.75326v3.748217zm8.14085-5.717066h2.31424l2.7994 7.686587h-2.45469l-.32185-1.099328h-2.44462l-.34471 1.099328h-2.37943zm1.862 4.94162-.68875-2.368679h-.0214l-.74185 2.368679h1.4521zm4.84756-2.971427h-2.15298v-1.970873h6.6753v1.970873h-2.15365v5.717065h-2.36732v-5.717065l0 0zm6.73173-1.970193h2.31425l2.79939 7.686587h-2.45468l-.32186-1.099328h-2.44395l-.34538 1.099328h-2.37943zm1.86201 4.94162-.68875-2.368679h-.0214l-.74185 2.368679h1.4521zm13.40971-4.94162h2.368v5.717066h3.40148v1.970864h-5.77083v-7.68793l0 0zm7.1927 1.970193h-2.1523v-1.970873h6.67529v1.970873h-2.15364v5.717065h-2.36734v-5.717065h0zm5.39653-1.970193h3.88665c2.56152 0 3.46665 1.893595 3.46665 3.832199 0 2.358599-1.2485 3.854388-3.93031 3.854388h-3.42432v-7.686587l0 0zm2.36867 5.717066h.9253c1.47496 0 1.69067-1.194756 1.69067-1.917783 0-.484495-.15054-1.830434-1.86201-1.830434h-.75329zm6.07523-.161274h2.23899v2.131466h-2.23899z"/></g><path d="m76.054685 41.738351h-6.642352l15.811971-27.385207c3.050041-5.3112003 8.744276-8.6098702 14.863846-8.6098702h32.67424l-3.32085 5.7520092h-29.35339c-4.071425 0-7.858621 2.198666-9.879218 5.727146zm17.792931-22.42141c1.279415-2.235623 3.670927-3.624573 6.241204-3.624573h26.92894l1.43666-2.48761h-28.3656c-3.45927 0-6.677984 1.868731-8.397536 4.872409l-13.661026 23.661184h2.871983zm2.516499 10.564612h22.461745l3.88396-6.727029 1.18197-2.048145 2.13954-3.704536h-25.94184c-1.958776 0-3.781813 1.059016-4.757501 2.763786l-12.454858 21.57205h6.642364zm-51.038999 0c-.0039.04704-.0071.06853-.005.06853-.05238.177397-.29432.687419-1.140994 2.10795-1.789438 3.003679-3.619871 6.757267-3.620541 11.819169 0 9.449826 7.687939 17.138429 17.138429 17.138429h65.25641l-6.77407 11.73316h6.64237l5.32061-9.215985c.49927-.840622.76267-1.805561.76267-2.789991 0-3.021145-2.45736-5.478516-5.47853-5.478516h-65.728875c-6.27883 0-11.386422-5.108268-11.386422-11.386425 0-3.452549 1.123527-6.044985 2.810823-8.873952 1.569041-2.634097 1.96415-3.543264 1.963478-5.394525 0-3.020477-2.45737-5.477847-5.477848-5.477847h-19.274221l3.320181 5.752009h15.67153zm78.100334 21.184998h-65.72881c-3.963242 0-7.188664-3.225425-7.188664-7.189339.000669-2.189931.602076-4.012967 2.218154-6.725012 1.737691-2.915651 2.556146-4.610344 2.556146-7.544135 0-5.334048-4.340213-9.674934-9.675606-9.674934h-26.50628l-.93671-1.620777-6.286226 2.842406 9.728016 3.118583-1.069768-1.853274h25.070968c3.963912 0 7.187991 3.225424 7.187991 7.187996.000682 2.23159-.495905 3.402151-2.204708 6.269421-1.848569 3.101111-2.568241 5.344125-2.568241 7.999054 0 5.335392 4.340885 9.676276 9.675599 9.676276h65.728819c3.96391 0 7.18867 3.225425 7.18867 7.188668 0 1.291516-.34675 2.558842-1.00929 3.676317l-4.80926 8.329658h2.8713l4.08421-7.073085c.88295-1.489075 1.35065-3.194519 1.35065-4.93289 0-5.33472-4.34089-9.674933-9.67696-9.674933zm-59.577657 11.815137h-6.641679l-5.697586 9.867114h6.642361zm-.850031 9.866443 5.696914-9.867116h-2.871308l-5.696903 9.867116zm14.313497-9.866443h-6.642362l-5.696903 9.867114h6.64169zm46.114191-19.277964h-65.446586c.03488-.419979.216379-1.052296 1.157128-2.632084 2.044786-3.429702 3.608447-6.445474 3.608447-11.363575 0-9.449827-7.687269-17.138436-17.138442-17.138436h-.450213l-3.789872 3.790549-3.789883-3.790549h-17.977036l3.321512 5.752683h22.684821c6.27883 0 11.38575 5.108267 11.38575 11.385753.000672 3.474722-1.056329 5.498005-2.797384 8.419032-1.458834 2.448636-1.976245 3.979368-1.976245 5.850115 0 3.020477 2.458042 5.478521 5.47852 5.478521h65.728813c6.27883 0 11.38643 5.107595 11.38643 11.385751 0 2.039404-.5463 4.040522-1.58048 5.788965l-3.58962 6.21701h6.64237l1.91509-3.318155c1.54685-2.628054 2.36465-5.631057 2.36465-8.688491.00066-9.448481-7.68727-17.137089-17.13777-17.137089zm-76.377415-31.863846-5.682123-5.6814533-5.681452 5.6814533h2.638127l3.043325-3.0433234 3.043987 3.0433234z" fill="#f5ffff"/></svg>