<svg enable-background="new 0 0 566.93 89.334" height="89.334" viewBox="0 0 566.93 89.334" width="566.93" xmlns="http://www.w3.org/2000/svg"><g fill="#fff" transform="translate(-6.84376 -490.88)"><path d="m429.039 490.88c-.636 0-.999.541-.999 1.212l-.132 13.085c0 .636.541.966 1.212.966l6.011-.049c.672 0 1.213-.362 1.213-.999v-2.424c0-.637-.541-.982-1.213-.982l-3.881.016c-.671 0-1.229-.33-1.229-.967v-8.646c0-.671-.344-1.212-.982-1.212zm29.396 0c-.08 0-.158.017-.229.033-.496.113-.77.591-.77 1.179l-.147 13.085c0 .398.218.665.54.818.064.031.142.061.213.082.073.021.15.039.229.049s.162.017.246.017l5.993-.049c.672 0 1.212-.362 1.212-.999v-2.424c0-.636-.54-.982-1.212-.982l-3.882.016c-.671 0-1.212-.33-1.212-.966l-.017-8.647c.001-.671-.328-1.212-.964-1.212zm-94 .017c-.673 0-1.229.378-1.229 1.015l.065 1.965-.065 10.988c0 .672.346 1.212.982 1.212.079 0 .142 0 .213-.016.496-.113.786-.608.786-1.196v-8.646c0-.636.541-.999 1.211-.999h.836c.671 0 1.212.363 1.212.999l.818 4.602c0 .672.33 1.212.967 1.212h2.146c.078 0 .157-.002.229-.016.492-.098.77-.527 1.08-1.13 0 0 2.469-5.901 2.57-6.125.223-.483.836-.403.836.065v8.793l.033 1.294c0 .672.328 1.229.965 1.229l2.474.016c.08 0 .147-.001.213-.016s.127-.037.181-.066c.323-.168.471-.574.786-1.13l1.852-4.045c.301-.585.704-.987 1.211-.999h3.063c.672 0 1.212.362 1.212.999l.164 4.308c-.009.436.219.678.573.818.118.047.252.089.394.115.565.105 1.291.065 1.884.082.563.015 1.44-.358 1.44-.982l.032-13.363c0-.637-.54-.982-1.212-.982h-6.484c-.671 0-1.021.34-1.212.982 0 0-4.266 10.776-4.372 11.021-.014.03-.035.055-.064.082-.063.052-.164.092-.264.115-.244.055-.539-.002-.539-.312 0-.496-.018-10.546-.018-10.546 0-.672-.279-1.294-.917-1.294h-2.293c-.637 0-.871.426-1.326 1.212 0 0-2.704 6.669-2.866 6.977-.039.077-.108.146-.181.196-.069.051-.135.087-.212.098-.154.022-.303-.047-.346-.262-.081-.429-1.324-7.254-1.324-7.254 0-.636-.541-1.015-1.212-1.015zm118.383 0c-.672 0-1.229.345-1.229.982l-.064 13.232c0 .238.081.432.212.59.132.157.307.277.524.343.071.021.149.038.229.049.078.011.161.017.245.017l2.063.016v.017h5.044c.084 0 .168-.006.246-.017.078-.01.156-.028.229-.049.437-.124.737-.423.737-.9 0-.636-.541-1.016-1.213-1.016h-5.044v.033c-.646-.017-1.161-.395-1.161-1.015l.082-6.977c0-.636.539-.966 1.212-.966h4.978c.672 0 1.229-.33 1.229-.966v-2.326c0-.637-.558-.999-1.229-.999zm21.633 0c-.084 0-.166.006-.245.017-.555.072-.981.408-.981.966-.002.332.003.651 0 .982-.024 3.76-.104 7.54-.049 11.299.003.231-.037.477-.051.721-.007.123-.002.245.018.361.019.116.054.225.114.327.158.269.388.44.639.541.252.1.537.123.819.115.442-.012.862.034 1.261.016.132-.006.27-.027.393-.049.495-.088.906-.331 1.181-.982l.163-4.308c0-.636.54-.999 1.212-.999h3.274c.672 0 1.212.362 1.212.999l.05 4.045c0 .672.328 1.212.966 1.212.079 0 .158 0 .229-.016.496-.113.785-.608.785-1.196v-3.537-2.014c0-.955-.837-1.264-1.457-1.573-.188-.092-.354-.187-.476-.294-.12-.107-.181-.234-.181-.393 0-.842-.016-5.257-.016-5.257 0-.637-.542-.982-1.212-.982zm14.527 0c-.084 0-.167.006-.246.017-.554.072-.982.408-.982.966l-.064 13.232c0 .318.141.565.359.736.057.043.115.082.181.115.193.099.421.148.672.148h8.435c.67 0 1.211-.363 1.211-.999l-.064-13.232c0-.637-.54-.982-1.212-.982zm13.117 0c-.084 0-.167.005-.245.017-.159.022-.297.065-.428.13-.322.163-.539.47-.539.868l.064 1.965-.064 10.988c0 .588.263 1.083.754 1.196.068.016.133.016.213.016.079 0 .158 0 .229-.016.496-.113.786-.608.786-1.196v-8.646c0-.636.542-.999 1.212-.999h4.438c.671 0 1.212.363 1.212.999l.049 8.614c0 .672.33 1.212.966 1.212.079 0 .158 0 .229-.016.496-.113.786-.608.786-1.196l-.018-9.58.018-3.341c0-.637-.559-1.015-1.229-1.015zm20.831 0c-.505 0-.946.193-1.131.557-.063.121-.082.267-.082.426l-.081 13.232c0 .238.081.432.213.59.218.262.58.409.999.409l7.105.033c.671 0 1.212-.329 1.212-.966 0-.636-.541-1.015-1.212-1.015l-4.978.033c-.671 0-1.229-.38-1.229-1.016l.082-6.977c0-.636.54-.966 1.212-.966h4.979c.672 0 1.229-.33 1.229-.966v-2.326c0-.637-.557-.999-1.229-.999zm-5.961.017c-.397 0-.682.2-.834.524-.063.128-.11.284-.133.442-.01.079-.016.161-.016.245l.064 8.729c0 .478-.25.793-.654.918-.068.02-.139.038-.214.049s-.161 0-.245 0h-.459c-.671 0-1.326.329-1.326.966v2.325c0 .319.163.565.409.737.062.042.126.082.196.114.213.099.47.148.721.148h3.996c.671 0 1.212-.363 1.212-.999v-2.325c0-.1-.004-.184-.018-.263-.088-.551-.473-.62-.852-.687-.162-.029-.319-.062-.458-.131-.232-.116-.395-.336-.395-.852v-8.729c.004-.671-.357-1.211-.994-1.211zm-150.449.032c-.672 0-1.229.361-1.229.999v2.326c0 .636.558.966 1.229.966h1.521c.671 0 1.212.33 1.212.966l-.064 8.729c0 .671.346 1.212.982 1.212.079 0 .143 0 .212-.017.497-.113.786-.607.786-1.195v-8.729c0-.557.412-.877.967-.949.079-.011.162-.017.245-.017h4.193c.669 0 1.211.33 1.211.966v8.729c0 .671.362 1.212.999 1.212.08 0 .159 0 .229-.017.49-.113.735-.607.735-1.195l-.064-8.729c0-.557.43-.877.981-.949.079-.011.162-.017.246-.017h1.522c.672 0 1.212-.33 1.212-.966v-2.326c0-.637-.539-.999-1.212-.999zm96.767 0c-.168 0-.329.021-.475.064-.073.022-.148.049-.213.082-.323.163-.54.454-.54.852v2.326c0 .636.557.966 1.228.966h1.523c.671 0 1.212.33 1.212.966l-.065 8.729c0 .335.082.648.246.868.04.055.097.104.146.146.102.088.22.148.359.18.07.017.149.017.229.017.079 0 .142 0 .213-.017.496-.113.785-.607.785-1.195v-8.729c0-.557.414-.877.967-.949.079-.011.162-.017.245-.017h1.523c.67 0 1.211-.33 1.211-.966v-2.326c0-.637-.541-.999-1.211-.999h-7.385v.002zm78.426 0-7.188.049c-.084 0-.167.005-.245.015-.555.08-.967.427-.967.983l.082 6.681c0 .637.541.982 1.212.982l3.521.065c.671 0 1.212.379 1.212 1.015l-.082 2.44c0 .159-.036.305-.099.426-.122.242-.348.409-.639.491-.072.021-.15.022-.229.033s-.162.016-.246.016l-5.011.017c-.085 0-.167.007-.246.016-.554.074-.966.409-.966.967 0 .318.124.565.344.736.221.172.532.263.868.263h9.448c.335 0 .633-.083.853-.246s.36-.401.36-.72l.082-6.567c0-.636-.558-.966-1.229-.966h-5.829c-.673 0-1.213-.33-1.213-.967l-.082-2.768c0-.636.558-.999 1.229-.999l5.061.017c.673 0 1.213-.363 1.213-.999-.002-.634-.542-.981-1.214-.98zm-153.527.114c-.671 0-1.212.33-1.212.967v4.603c0 .67-.329 1.212-.967 1.212l-1.311.033c-.67 0-1.212.33-1.212.966l-.082 6.271c0 .479.318.8.754.933.072.022.134.038.213.049s.162.017.245.017l9.843.033c.671 0 1.212-.33 1.212-.966s-.541-1.015-1.212-1.015l-7.713.033c-.672 0-1.212-.38-1.212-1.016l.063-2.342c0-.636.541-.966 1.213-.966l7.647.016c.084 0 .167-.006.245-.016.079-.011.141-.029.213-.049.438-.124.754-.439.754-.917 0-.557-.413-.904-.967-.982-.078-.012-.161-.017-.245-.017l-1.703-.017c-.084 0-.167-.005-.246-.016-.315-.045-.577-.167-.753-.377-.131-.157-.213-.367-.213-.606l.065-2.866c0-.636.557-.982 1.229-.982h1.621c.671 0 1.212-.346 1.212-.982 0-.637-.541-.999-1.212-.999zm29.38 0c-.42 0-.781.124-1 .377-.043.05-.084.119-.114.179-.062.121-.098.25-.098.41v4.602c0 .67-.329 1.212-.966 1.212l-1.312.033c-.671 0-1.212.33-1.212.966l-.082 6.271c0 .238.082.432.213.59.131.157.322.277.54.343.073.022.15.038.229.049s.161.017.245.017l9.825.033c.672 0 1.212-.33 1.212-.966s-.54-1.015-1.212-1.015l-7.713.033c-.671 0-1.212-.38-1.212-1.016l.065-2.342c0-.636.558-.966 1.229-.966l7.63.016c.085 0 .167-.006.246-.016.08-.011.156-.029.23-.049.436-.124.735-.439.735-.917 0-.557-.411-.904-.967-.982-.079-.012-.161-.017-.246-.017l-1.702-.017c-.084 0-.166-.005-.246-.016-.315-.045-.577-.167-.753-.377-.132-.157-.213-.367-.213-.606l.082-2.866c0-.636.541-.982 1.211-.982h1.622c.672 0 1.212-.346 1.212-.982 0-.637-.54-.999-1.212-.999zm24.383 0c-.42 0-.797.124-1.016.377-.044.05-.083.119-.114.179-.063.121-.099.25-.099.41l.017 4.602c0 .67-.347 1.212-.982 1.212l-1.294.033c-.672 0-1.212.33-1.212.966l-.082 6.271c0 .238.082.432.214.59.132.157.306.277.523.343.072.022.15.038.229.049.077.011.16.017.244.017l9.826.033c.671 0 1.229-.33 1.229-.966s-.559-1.015-1.229-1.015l-7.696.033c-.672 0-1.229-.38-1.229-1.016l.082-2.342c0-.636.54-.966 1.211-.966l7.632.016c.084 0 .166-.006.246-.016.078-.011.156-.029.229-.049.437-.124.754-.439.754-.917 0-.557-.431-.904-.982-.982-.08-.012-.162-.017-.246-.017l-1.688-.017c-.083 0-.166-.005-.245-.016-.316-.045-.595-.167-.771-.377-.131-.157-.195-.367-.195-.606l.064-2.866c0-.636.54-.982 1.212-.982h1.621c.671 0 1.229-.346 1.229-.982 0-.637-.559-.999-1.229-.999zm-84.452 2.015h2.702c.67 0 1.212.33 1.212.966l.082 2.849c0 .637-.542.999-1.212.999h-4.013c-1.378-.019-1.197-.984-1.113-1.31l1.13-2.539c.326-.554.54-.965 1.212-.965zm119.104 0h3.342c.671 0 1.212.33 1.212.966l.082 2.849c0 .637-.559.999-1.229.999h-3.472c-.672 0-1.212-.362-1.212-.999l.065-2.849c.001-.636.542-.966 1.212-.966zm14.314 0h4.404c.671 0 1.212.33 1.212.966l.064 6.993c0 .636-.541.999-1.212.999h-4.534c-.672 0-1.213-.362-1.213-.999l.065-6.993c.002-.636.543-.966 1.214-.966z" fill="#fff"/><path d="m340.803 496.705s-15.496 59.53-15.91 60.881c-.542 1.758-2.217 2.334-3.094.304-1.082-2.165-12.817-42.374-12.817-42.374h-21.38s15.962 52.369 16.685 53.919c7.577 16.235 24.275 9.751 27.705-2.153 3.528-12.255 18.618-70.577 18.618-70.577zm-220.761 4.447-33.175 21.159c-.001-4.093 0-6.685 0-6.685h-10.552v29.199c0 .729-1.371 2.065-2.597.275 0 0-14.051-20.15-19.144-26.242-4.228-5.062-18.975-4.803-19.031 7.182-.038 7.607.026 52.152.026 52.152h10.553v-36.82c0-2.039 1.806-1.322 2.928-.057.521.587 23.124 35.004 24.142 36.381 2.306 3.108 13.701 5.406 13.701-6.354 0-8.427-.021-33.382-.028-46.849h10.304c1.081 0 2.457 1.213 2.458 1.215-.01 1.021-.166 33.137-.166 37.375 0 9.529 7.895 15.966 16.436 15.966h19.032v-9.255h-8.756c-3.138 0-5.607-2.305-5.607-5.44v-36.104c0-1.942 1.559-4.696 4.668-4.696 3.111 0 9.75-.083 9.75-.083v-7.956h-13.093c-1.218 0-1.851-.958-1.851-1.851zm-113.032.359s-.166 73.3-.166 77.675l20.468-.027v-77.646zm478.674 13.259c-9.841 0-18.67 4.102-24.807 10.635-.359.385-.708.786-1.05 1.188-4.783 5.61-7.679 12.791-7.679 20.635 0 4.481.954 8.769 2.651 12.65.213.485.429.964.662 1.437 4.005 8.041 11.321 14.246 20.247 16.934.526.158 1.067.281 1.604.414 2.68.668 5.476 1.021 8.37 1.021 18.524 0 33.562-14.529 33.562-32.456.001-17.929-15.035-32.458-33.56-32.458zm-89.525.469c-12.308 0-21.85 8.804-21.85 21.325 0 12.896 14.227 16.998 21.739 17.789 4.725.497 9.28 3.765 9.28 8.397 0 3.727-3.219 6.74-6.686 6.74l-21.96-.084v9.254h24.309c.384 0 .752-.008 1.132-.027 11.774-.579 21.132-10.041 21.132-21.711 0-1.926-.107-3.633-.358-5.166-.063-.383-.145-.743-.221-1.104-2.104-9.761-9.756-11.649-21.685-14.806 0 0-6.326-1.967-6.326-5.773 0-2.379 1.377-4.012 3.261-4.889.188-.088.382-.175.579-.249.986-.364 2.065-.524 3.149-.524l14.888.055v-9.227zm-133.805.083s-.166 6.508-.166 10.883l20.469-.056v-10.828h-20.303zm86.929 0s-.139 6.508-.139 10.883l20.441-.056v-10.828h-20.302zm78.282 0s-.138 6.508-.138 10.883l20.439-.056v-10.828h-20.301zm-274.596.056c-5.871 0-10.142 3.04-12.237 8.039-.189.455-.343.923-.497 1.41-.617 1.942-.938 4.135-.938 6.519v31.187c0 9.528 5.134 16.324 13.673 16.324h30.661v-9.227h-18.259c-3.137 0-5.578-2.657-5.552-5.801v-12.209h20.966v-9.227l-20.993-.057-.056-12.265c0-3.137 2.498-5.44 5.635-5.44h18.259v-9.254zm34.97.11s-.166 43.219-.166 47.594c0 1.785.276 3.451.746 4.998.156.517.321 1.033.524 1.521 2.234 5.345 7.184 8.819 12.928 9.364.521.049 1.068.083 1.602.083h19.032v-9.254h-8.396c-3.137 0-5.607-2.306-5.607-5.441v-48.865zm36.241 0s-.138 43.219-.138 47.594c0 8.934 6.365 15.141 14.197 15.883.522.049 1.041.083 1.575.083h19.031v-9.255h-8.729c-3.137 0-5.635-2.305-5.635-5.44v-48.865zm339.013.138v29.199c0 .729-1.369 2.064-2.597.275 0 0-14.023-20.15-19.114-26.242-4.23-5.062-19.001-4.803-19.061 7.182-.035 7.607.027 52.152.027 52.152h10.552v-36.82c0-2.039 1.805-1.322 2.929-.057.521.587 23.151 35.004 24.17 36.381.432.581 1.164 1.135 2.1 1.573.313.146.646.297.994.414 4.171 1.403 10.58.479 10.58-8.342 0-11.761-.028-55.715-.028-55.715zm-77.509 6.712c8.129 0 11.381 11.144 11.381 24.889 0 13.743-3.822 24.871-11.381 24.889-2.066.004-3.795-.676-5.248-1.935-.183-.158-.353-.323-.524-.497-.519-.523-.998-1.125-1.437-1.796-.146-.224-.306-.452-.442-.69-2.616-4.539-3.701-11.812-3.701-19.971 0-.859.013-1.705.027-2.542.143-7.528.986-14.067 3.563-18.093.145-.225.288-.428.442-.635 1.695-2.286 4.048-3.619 7.32-3.619zm-223.33 7.846s-.166 44.627-.166 49.002l20.469-.027v-48.975zm86.929 0s-.139 44.627-.139 49.002l20.441-.027v-48.975zm78.282 0s-.138 44.627-.138 49.002l20.439-.027v-48.975z" fill="#fff"/></g></svg>