<svg enable-background="new 3 136.909 270 82.35" height="82.35" viewBox="3 136.909 270 82.35" width="270" xmlns="http://www.w3.org/2000/svg"><g fill="#fff"><path d="m30.09546 204.46515c-6.309-7.225-9.388-16.951-9.387-27.437l0 0c .002-7.001 1.363-14.389 4.107-21.802l0 0c1.076-2.91 4.309-4.396 7.218-3.319l0 0c2.91 1.076 4.397 4.309 3.319 7.219l0 0c-2.32 6.266-3.409 12.366-3.407 17.902l0 0c .002 8.335 2.439 15.287 6.605 20.039l0 0c4.195 4.729 10.087 7.654 18.639 7.703l0 0c2.787 0 5.846-.332 9.18-1.07l0 0c3.029-.668 6.028 1.246 6.697 4.275l0 0c .668 3.031-1.244 6.029-4.274 6.697l0 0c-4.05.895-7.92 1.334-11.602 1.334l0 0c-.063 0-.124.002-.186.002l0 0c-11.194-.002-20.664-4.336-26.909-11.543z"/><path d="m68.97846 184.63115c.004-17.6 14.265-31.862 31.867-31.865l0 0c17.599.003 31.861 14.265 31.866 31.865l0 0h-.001c-.004 17.604-14.266 31.863-31.865 31.867l0 0c-17.602-.004-31.863-14.264-31.867-31.867zm11.237 0c .02 11.393 9.237 20.609 20.63 20.631l0 0c11.389-.021 20.608-9.238 20.629-20.631l0 0h-.002c-.019-11.389-9.238-20.606-20.627-20.628l0 0c-11.391.022-20.61 9.239-20.63 20.628z"/><path d="m157.58746 213.74615c-1.918-1.084-3.554-2.5-5.073-4.129l0 0c-3.017-3.268-5.636-7.445-8.307-12.416l0 0c-5.301-9.924-10.676-23.086-16.948-37.551l0 0v .002c-1.234-2.847.073-6.156 2.92-7.391l0 0c2.848-1.234 6.156.074 7.391 2.921l0 0c4.144 9.565 7.874 18.474 11.334 26.044l0 0c3.448 7.564 6.672 13.811 9.539 17.854l0 0c1.889 2.709 3.645 4.34 4.65 4.869l0 0c .503.277.76.328.936.34l0 0c .013-.004.028-.01.049-.018l0 0c .141-.053.438-.197.833-.48l0 0c .798-.555 1.95-1.652 3.189-3.174l0 0c2.507-3.047 5.378-7.713 8.17-12.971l0 0c5.617-10.551 11.023-23.438 14.884-32.047l0 0c1.271-2.83 4.596-4.094 7.427-2.824l0 0c2.831 1.271 4.096 4.595 2.825 7.427l0 0c-2.473 5.502-5.698 13.068-9.292 20.76l0 0c-3.604 7.701-7.552 15.523-11.687 21.791l0 0c-2.793 4.184-5.555 7.707-9.017 10.205l0 0c-1.979 1.396-4.386 2.555-7.306 2.572l0 0c-.009 0-.019 0-.026 0l0 0c-2.356.001-4.598-.71-6.491-1.784z"/><path d="m204.36646 205.73415c-5.375-6.164-7.414-14.008-7.416-21.465l0 0c .014-8.898 4.037-16.559 9.321-22.019l0 0c5.346-5.448 11.925-9.059 18.738-9.476l0 0c .485-.027.965-.037 1.438-.038l0 0c4.446.011 9.197.956 13.684 2.808l0 0c4.463 1.871 8.738 4.648 11.726 8.875l0 0c1.979 2.799 3.274 6.342 3.26 10.174l0 0c .007 3.309-.54 6.424-1.873 9.209l0 0c-1.32 2.791-3.396 5.066-5.755 6.797l0 0c-4.765 3.455-10.533 5.348-17.933 7.934l0 0h .002c-2.936 1.01-6.133-.549-7.144-3.482l0 0c-1.01-2.934.55-6.135 3.485-7.143l0 0c5.511-1.891 9.784-3.43 12.586-4.916l0 0c2.853-1.527 3.962-2.691 4.618-4.031l0 0c .442-.934.773-2.235.776-4.368l0 0c-.013-1.402-.393-2.506-1.23-3.73l0 0c-.837-1.206-2.204-2.443-3.965-3.502l0 0c-3.494-2.149-8.521-3.418-12.237-3.387l0 0c-.301 0-.585.008-.858.023l0 0c-2.845.063-7.637 2.258-11.242 6.066l0 0c-3.665 3.79-6.174 8.829-6.159 14.206l0 0c-.003 5.463 1.525 10.541 4.633 14.064l0 0c3.124 3.498 7.903 6.1 16.539 6.156l0 0c1.799 0 3.758-.125 5.885-.393l0 0c3.079-.391 5.891 1.787 6.282 4.865l0 0c .39 3.078-1.788 5.891-4.865 6.281l0 0c-2.557.324-4.987.484-7.302.484l0 0c-.082 0-.163 0-.245 0l0 0c-10.903.003-19.431-3.843-24.749-9.992z"/><circle cx="93.587463" cy="146.41016" r="6.4109998"/><circle cx="109.31246" cy="146.41016" r="6.4109998"/></g></svg>