<svg enable-background="new 0 0 566.93 118.865" height="118.865" viewBox="0 0 566.93 118.865" width="566.93" xmlns="http://www.w3.org/2000/svg"><g fill="#fff"><path d="m177.639 103.668c0-1.56 1.428-1.949 4.808-2.339 4.161-.391 4.418-2.209 4.418-8.188 0-14.036-.907-39.771-1.428-53.677-.13-1.949-.13-2.6-.65-2.6s-.651.781-1.171 1.95c-2.47 6.5-6.497 19.235-16.505 51.208-3.64 12.086-3.25 14.557-5.719 14.557-1.56 0-1.949-1.041-3.25-6.5-4.288-16.115-14.296-48.998-17.546-59.135-.391-1.17-.649-1.82-1.301-1.82-.518 0-.518 1.04-.777 2.859-.91 12.215-1.688 33.142-1.688 44.449 0 8.578-.133 16.246 4.288 16.896 2.339.391 5.719.52 5.719 2.34 0 1.039-.779 1.82-2.602 1.82-2.598 0-4.676-.521-9.617-.521-4.548 0-7.146.521-8.966.521-1.302 0-2.079-.261-2.079-1.82 0-1.949 1.949-1.69 4.158-2.209 3.77-.781 4.289-3.77 4.678-10.139.78-13.906 2.209-44.319 2.209-55.107.13-7.018 0-8.317-4.418-8.968-2.209-.259-4.288-.519-4.288-2.079 0-1.82 1.688-1.949 3.509-1.95 2.729 0 6.368.39 9.229.39 2.209 0 5.587-.39 7.668-.389 1.429 0 1.949.389 2.6 2.339 4.81 15.855 9.62 31.711 14.298 47.438 1.038 3.77 1.819 6.76 2.729 6.76.778 0 1.429-1.82 2.597-5.592 4.941-15.854 9.88-31.71 14.818-47.438.776-2.469 1.559-3.509 2.989-3.51 1.948 0 5.198.39 7.668.39 2.6 0 6.366-.39 9.097-.389 1.432 0 2.729.519 2.729 1.819 0 1.69-1.688 2.081-5.459 2.339-2.339.26-2.988 1.95-2.988 7.798 0 12.867 1.561 43.279 1.95 59.266 0 4.809 1.168 6.629 3.769 6.889 3.25.779 4.679 1.041 4.679 2.47s-1.169 1.69-2.986 1.69c-2.729 0-5.851-.521-11.828-.521-5.199 0-9.487.521-12.348.521-1.69 0-2.988-.521-2.988-1.69v-.127h-.005z"/><path d="m239.633 57.01c0-6.108-1.432-8.579-5.459-8.579-6.239 0-9.097 4.68-11.179 11.048-.91 2.729-2.469 4.938-4.418 6.238-1.431 1.04-3.25 1.819-5.198 1.819-2.47 0-3.38-1.041-3.38-3.379 0-7.537 11.179-19.364 27.294-19.364 4.81 0 8.579.649 10.785 2.6 2.212 1.69 2.732 4.159 2.732 8.188v37.17c0 3.25 1.038 5.589 3.638 5.589 2.081 0 3.25-1.169 3.9-2.339.521-1.17 1.038-2.469 1.817-2.469.78 0 1.041.648 1.041 2.209 0 2.858-4.418 10.526-11.959 10.526-5.459 0-7.018-4.419-8.059-7.019-.391-1.04-.777-1.819-1.428-1.819-1.041 0-3.12 2.47-6.37 4.81-2.989 2.34-7.019 4.418-12.217 4.418-6.108 0-10.918-4.157-10.918-11.697 0-6.887 4.81-11.567 15.336-18.064 4.161-2.73 7.277-4.549 9.619-6.109 3.509-2.078 4.419-3.25 4.419-6.237v-7.54zm-17.679 35.61c0 4.81 2.732 7.279 6.5 7.279 2.859 0 5.589-1.69 8.06-4.16 2.339-2.338 3.119-4.158 3.119-7.407v-13.257c0-1.561-.261-1.95-.91-1.95-.647 0-1.299.26-2.989 1.301-2.729 1.819-5.329 3.897-7.538 6.108-3.638 3.379-6.24 7.277-6.24 11.957z"/><path d="m259.776 77.675c0-18.975 12.347-32.882 28.073-32.882 3.51 0 8.188.649 11.178 2.469 2.729 1.56 2.989 2.079 3.12 5.199v4.68c0 1.169-.131 3.118-.392 4.288-.261 2.34-1.171 3.12-2.858 3.12-2.34 0-2.99-3.378-5.459-8.837-1.819-4.29-3.511-6.499-7.278-6.499-7.537 0-14.167 9.877-14.167 23.782 0 18.457 7.021 26.645 15.726 26.645 4.683 0 8.188-1.949 10.788-5.719 1.56-2.339 2.601-5.587 3.642-5.587.776 0 1.298.778 1.298 1.819 0 6.108-6.497 16.506-19.624 16.506-14.428 0-24.045-11.827-24.045-28.854z"/><path d="m312.414 60.778c0-4.158-.91-5.199-4.94-5.849-1.559-.26-2.206-.649-2.206-1.56 0-1.17 1.168-1.689 4.158-2.598 4.156-1.172 7.798-3.121 10.526-4.681 1.298-.778 2.079-1.3 2.601-1.3.776 0 1.037.521 1.037 1.949v6.109 41.852c0 4.42-.042 6.641 1.637 7.147 2.295.696 3.25.781 3.25 2.081 0 1.169-.521 1.561-2.079 1.561-2.729 0-2.677-.521-8.395-.521-6.238 0-6.057.521-8.524.521-1.041 0-1.952-.521-1.952-1.561 0-1.3.911-1.695 2.603-2.081 2.067-.471 2.286-1.56 2.286-6.759zm5.589-24.173c-3.382 0-6.499-2.731-6.499-7.669 0-4.808 2.859-7.798 6.63-7.798 3.638 0 6.497 2.859 6.497 7.668 0 5.068-2.859 7.799-6.497 7.799z"/><path d="m338.926 60.778c0-4.418-.521-4.938-3.768-5.328-2.339-.26-3.12-.391-3.12-1.431 0-1.3 1.299-1.56 4.028-2.469 4.678-1.69 8.32-3.769 10.267-5.329 1.171-.909 1.821-1.43 2.474-1.43.776 0 1.038 1.04 1.038 2.209v5.2c0 1.819.13 2.209.521 2.209 1.171 0 3.249-2.209 6.106-4.418 2.991-2.209 7.02-4.549 11.827-4.549 4.419 0 8.579 1.43 11.565 4.549 2.732 2.859 4.291 7.019 4.291 12.476v33.143c0 4.549 1.154 5.979 4.146 6.367 0 0 1.924.651 1.924 1.951 0 1.169-.911 1.561-2.34 1.561-1.562 0-3.339-.521-9.447-.521-5.848 0-6.474.521-8.551.521-1.433 0-2.079-.391-2.079-1.69 0-.909.927-1.354 2.209-1.69 1.2-.314 2.962-1.688 2.962-5.328v-33.013c0-3.12-.647-5.849-2.209-7.929-1.819-2.338-4.549-3.639-7.798-3.639-3.382 0-6.628 1.301-9.098 3.51-2.339 2.209-3.641 4.809-3.641 7.928v33.142c0 3.379.632 4.78 3.771 5.328.549.096 1.148.375 1.148 1.543 0 1.301-.91 1.69-1.951 1.69-1.559 0-1.147-.375-8.813-.375-6.63 0-6.735.521-8.814.521-1.559 0-2.47-.521-2.47-1.69s1.044-1.785 2.34-1.95c2.813-.355 3.482-2.079 3.482-7.277z"/><path d="m407.782 92.362c0 5.067 1.431 7.276 4.551 7.276 2.47 0 4.028-1.69 5.068-3.249 1.169-1.561 1.949-3.12 2.99-3.12.776 0 1.298.39 1.298 1.3 0 1.95-3.51 12.088-13.647 12.088-3.768 0-6.627-1.039-8.575-3.119-2.078-2.34-2.859-5.459-2.859-10.398v-40.03c0-1.431-.65-1.951-1.562-2.08-.907-.131-2.079-.131-3.116-.131-1.172 0-2.213-.129-2.213-1.56 0-.91.78-1.819 2.473-3.379 4.027-3.12 7.408-6.628 11.826-14.426 1.171-2.209 1.559-2.99 2.469-2.99.908 0 1.299.521 1.299 2.729v12.348c0 1.95.65 2.729 2.604 2.729h7.017c2.209 0 2.729.52 2.729 2.34 0 2.08-.521 2.729-2.989 2.729-2.209 0-4.548-.131-6.757-.131-2.082 0-2.604.521-2.604 2.859z"/><path d="m446.125 106.657c-15.076 0-25.477-14.037-25.477-30.934 0-16.636 10.008-30.932 25.605-30.932 15.856 0 25.604 14.427 25.604 30.803 0 17.025-10.397 31.063-25.604 31.063zm.518-3.638c8.969 0 13.127-13.646 13.127-25.994 0-14.428-4.549-28.594-13.777-28.594-8.967 0-13.255 12.997-13.255 25.995 0 14.425 4.679 28.593 13.775 28.593z"/><path d="m472.887 61.298c0-10.917 9.487-16.505 20.665-16.505 4.157 0 8.84.778 11.309 2.079.647.39.911 1.3 1.038 3.119.131 1.17.131 2.6.131 4.55v3.379c-.131 2.08-.388 3.25-1.56 3.25-1.688 0-1.948-2.47-4.03-6.89-1.559-3.379-3.769-5.979-7.926-5.979-5.07 0-9.103 3.51-9.103 8.318 0 6.238 6.24 9.228 12.74 12.996 6.369 3.77 12.996 8.318 12.996 17.677 0 12.606-10.138 19.364-22.354 19.364-3.9 0-7.668-.649-10.27-1.56-.908-.26-1.818-.519-2.471-1.04-.646-.39-1.168-1.04-1.298-3.639-.13-1.82-.13-4.288-.13-7.669 0-5.199.388-6.627 1.688-6.627 1.82 0 1.947 2.079 3.899 7.538 1.948 5.068 4.938 9.357 10.269 9.357 5.849 0 10.007-3.898 10.007-9.748 0-7.668-6.109-11.048-12.089-14.687-6.497-3.64-13.516-7.798-13.516-17.156v-.13h.005z"/><path d="m514.162 27.766c0-3.769-.518-4.678-4.028-5.069-2.209-.52-2.988-.65-2.988-1.82 0-1.3.911-1.43 3.641-2.209 5.198-1.56 8.448-2.729 10.527-3.899 1.688-.781 2.469-1.17 3.25-1.17.776 0 .906.519.906 2.339v36.912c0 .779.262 1.169.781 1.169.521 0 1.168-.391 1.688-.91 3.25-2.988 8.317-7.668 15.855-7.668 9.747 0 15.466 6.627 15.727 16.896v33.272c0 4.42 1.172 6.108 4.291 6.498 2.079.26 3.117.65 3.117 1.82 0 1.169-.908 1.561-1.949 1.561-1.168 0-5.068-.521-10.784-.521-6.24 0-8.579.521-10.4.521-1.429 0-2.209-.521-2.209-1.69s.91-1.431 2.339-1.69c3.25-.519 4.291-1.688 4.291-5.328v-33.012c0-3.25-.521-6.108-2.078-8.058-1.821-2.469-4.552-3.641-8.063-3.641-3.377 0-6.627 1.301-9.096 3.51-2.34 2.21-3.512 4.81-3.512 8.06v32.752c0 3.378 1.172 5.069 5.069 5.718 1.951.393 2.469.65 2.469 1.82 0 1.169-.907 1.561-1.947 1.561-1.56 0-3.512-.521-11.438-.521-6.367 0-8.446.521-10.658.521-1.168 0-2.078-.391-2.078-1.69 0-1.169 1.172-1.819 2.47-1.95 4.157-.389 4.809-1.949 4.809-7.277z"/><g><path d="m66.344 21.192c4.43-4.859 6.735-11.682 7.055-20.858l.011-.333-.324.066c-15.553 3.182-23.586 12.929-23.873 28.971l-.006.312.307-.048c7.408-1.161 12.914-3.814 16.83-8.11z"/><path d="m12.824 103.702.285.412c2.572 3.707 5.52 7.315 8.761 10.725 2.47 2.595 6.403 4.025 11.076 4.025 3.424 0 6.976-.808 9.269-2.103 4.738-2.681 7.252-2.687 9.084-2.688.371 0 .715-.002 1.043-.021l.303-.021c.396-.024.806-.051 1.268-.051 1.625 0 4.057.318 8.471 2.813 3.082 1.29 6.068 1.944 8.881 1.944l0 0c7.658 0 14.371-4.789 20.521-14.633l.252-.402z"/><path d="m92.947 42.269c1.023-1.02 2.126-2.024 3.313-3.015l.197-.165-.164-.201c-5.769-7.118-13.672-10.958-22.852-11.102l-.42-.003c-4.651 0-8.764.872-11.896 2.521-4.059 2.138-7.079 2.613-7.108 2.617-.051.007-.383.02-1.295.02-1.104 0-2.061-.018-2.176-.035l-.072-.008c-1.301-.169-4.621-.714-7.309-2.148-3.656-1.949-7.729-2.979-11.775-2.979l-.267.001c-10.703.121-19.652 5.336-25.215 14.497z"/><path d="m83.973 57.487c1.052-5.094 3.895-10.039 8.531-14.771l.438-.447h-87.033l-.075.127c-2.668 4.426-4.435 9.545-5.273 15.09h83.412z"/><path d="m86.01 72.52c-2.104-4.323-3.136-9.319-2.09-14.72l.059-.313h-83.41l-.033.226c-.706 4.807-.706 9.782-.053 14.807z"/><path d="m4.58 88.291h95.323l.558-1.206-.23-.115c-4.563-2.259-10.678-7.203-14.159-14.303l-.072-.146h-85.522l.042.297c.58 4.348 1.771 9.632 4.06 15.473z"/><path d="m12.827 103.702h79.201c3.026-4.899 5.517-10.297 7.707-15.039l.172-.373h-95.313l.144.361c2.085 5.205 4.789 10.233 8.089 15.051z"/></g></g></svg>