<svg enable-background="new 0 -0.001 566.929 157.78" height="157.78" viewBox="0 -.001 566.929 157.78" width="566.929" xmlns="http://www.w3.org/2000/svg" xmlns:xlink="http://www.w3.org/1999/xlink"><linearGradient id="a" gradientUnits="userSpaceOnUse" x1="557.9487" x2="11.5903" y1="80.1875" y2="80.1875"><stop offset="0" stop-color="#013a67"/><stop offset="1" stop-color="#6cd1ff"/></linearGradient><path d="m491.191 27.662 45.586.284 21.172-22.019-77.998-.285-73.289 73.575-10.262.567.286-70.783-41.205 42.054-9.856 1.169v-42.85l-84.361 83.468-10.489 1.116.892-85.881-73.73 74.863-9.682.047-1.135-71.898-39.778 40.061-11.064.567.419-42.778-105.106 105.956 34.618-.567 45.389-44.052h8.705l-.42 44.264 36.152-36.997h8.644v37.687l-39.787 39.5 38.127-.565 75.017-75.866h10.104v37.271l46.757.284 45.218-45.501 8.728-.567-.135 43.013 36.131-36.132h8.536l.566 36.435-.738 1.896h109.175l20.901-21.183-67.881-1.154-.617-9.852 10.576-11.139 25.611-.003 22.248-22.534-13.447-.568v-9.483z" fill="url(#a)"/></svg>