<svg enable-background="new 0 0 566.929 96.834" height="96.834" viewBox="0 0 566.929 96.834" width="566.929" xmlns="http://www.w3.org/2000/svg"><g fill="#fff" stroke="#fff" transform="matrix(.93403196 0 0 .93403196 -613.862018 -328.537019)"><g transform="translate(.000015605469)"><path d="m1036.018 414.062h2.403c2.244 0 6.081.462 7.662 1.388 1.581.92 2.624 1.953 3.126 3.095.504 1.142.759 3.661.759 7.551v15.273c0 4.609-4.87 6.957-7.216 7.467-2.357.508-4.646.763-6.877.763-6.43 0-11.98-1.673-16.66-5.021-4.674-3.35-8.061-8.586-10.163-15.727-2.097-7.131-3.143-15.422-3.143-24.892 0-7.811.958-15.43 2.875-22.852 1.922-7.424 5.188-13.208 9.801-17.36 4.613-4.148 10.395-6.223 17.337-6.223 7.266 0 11.518 1.839 16.865 7.398 5.47 5.681 10.717 12.137 13.78 21.614h4.473v-34.796h-2.545c-.918 2.787-1.92 4.68-3.015 5.679-1.1 1.003-2.29 1.502-3.565 1.502-.824 0-3.49-.906-7.988-2.718-4.498-1.814-7.756-2.915-9.765-3.303-3.699-.772-6.574-1.162-11.185-1.162-14.895 0-27.259 5.119-37.085 15.355-9.826 10.245-14.736 22.785-14.736 37.63 0 8.295 1.595 15.792 4.795 22.487 2.513 5.192 5.997 9.857 10.451 14.01 4.456 4.147 9.602 7.496 15.422 10.048 5.828 2.543 13.151 3.818 21.969 3.818 6.903 0 13.556-.713 19.98-2.139 6.422-1.43 12.597-3.546 18.55-6.351v-20.524c0-3.597.203-5.859.613-6.779.73-1.752 1.767-3.003 3.114-3.76 1.344-.757 5.016-1.248 8.438-1.495v-3.36h-48.486v3.36z"/><path d="m1147.468 440.646c-5.525 4.23-12.879 6.344-22.05 6.344h-5.228c-2.802 0-4.826-.381-6.085-1.152-1.248-.77-2.112-1.757-2.568-2.959-.458-1.202-.688-4.498-.688-9.88v-27.567c4.711 0 10.227.613 12.703 1.844 2.474 1.225 4.646 3.624 6.512 7.191 1.874 3.565 3.099 7.503 3.682 13.092h3.975v-50.731h-3.975c-.78 7.622-2.574 12.739-5.391 16.644-2.815 3.905-7.356 5.858-13.615 5.858h-3.896v-34.029c-.031-5.915 5.242-5.23 5.242-5.23h6.16c7.448 0 12.521.436 15.229 1.305 4.642 1.443 8.235 3.706 10.773 6.787 2.541 3.084 4.508 8.161 5.911 15.241h3.335v-28.978h-82.888v3.969h2.614c3.185 0 5.696.673 7.528 2.019 1.305.914 2.2 2.218 2.679 3.9.245 1.006.366 3.726.366 8.153v61.307c0 4.906-.266 7.938-.799 9.096-.675 1.633-1.644 2.789-2.896 3.463-1.74 1.012-4.032 1.516-6.875 1.516h-2.616v4.611h84.291l5.065-31.174h-4.625c-2.415 8.678-6.386 15.133-11.913 19.361"/><path d="m1212.688 352.888c-14.125-.583-26.03 4.02-35.697 13.819-9.686 9.791-14.514 22.035-14.514 36.713 0 13.078 3.718 24.378 11.16 33.907 9.414 12.053 22.738 18.088 39.975 18.088 17.18 0 30.49-6.319 39.908-18.964 7.11-9.516 10.667-20.557 10.667-33.104 0-14.679-4.77-26.906-14.297-36.68-9.537-9.775-21.927-14.366-37.185-13.778m22.531 78.46c-2.308 6.827-5.531 11.798-9.675 14.901-3.25 2.434-7.3 3.647-12.153 3.647-7.206 0-12.803-2.821-16.814-8.454-5.744-8.065-8.621-20.524-8.621-37.391 0-14.192 1.859-25.073 5.581-32.651 4.567-9.229 11.227-13.844 19.984-13.844 4.757 0 8.96 1.338 12.609 4.011 3.649 2.671 6.65 7.253 9.004 13.737 2.357 6.491 3.534 16.263 3.534 29.341 0 10.98-1.152 19.886-3.463 26.715"/></g><path d="m899.717 454.844c17.18 0 30.488-6.321 39.908-18.964 7.108-9.527 10.666-20.555 10.666-33.104 0-14.679-4.77-26.905-14.299-36.68-9.535-9.774-21.926-14.364-37.183-13.778-14.125-.582-26.03 4.021-35.697 13.82-9.684 9.79-14.514 22.035-14.514 36.713 0 13.077 3.717 24.379 11.162 33.906 9.411 12.053 22.736 18.088 39.974 18.088m-20.227-83.96c4.566-9.229 11.227-13.844 19.987-13.844 4.756 0 8.957 1.335 12.606 4.009 3.649 2.673 6.651 7.253 9.007 13.737 2.354 6.49 3.532 16.262 3.532 29.332 0 10.98-1.152 19.888-3.462 26.715-2.305 6.827-5.531 11.798-9.675 14.909-3.248 2.43-7.299 3.645-12.153 3.645-7.206 0-12.805-2.819-16.817-8.454-5.743-8.065-8.618-20.524-8.618-37.39 0-14.192 1.858-25.073 5.579-32.651"/><path d="m849.935 420.502h-4.627c-2.414 8.676-6.387 15.133-11.913 19.359-5.526 4.23-12.879 6.344-22.042 6.344h-5.229c-2.801 0-4.823-.385-6.082-1.15-1.253-.772-2.112-1.759-2.57-2.961-.457-1.204-.688-4.498-.688-9.882v-27.567c4.71 0 10.228.615 12.705 1.846 2.474 1.225 4.647 3.626 6.513 7.191 1.872 3.567 3.098 7.503 3.681 13.094h3.976v-50.733h-3.976c-.779 7.619-2.575 12.739-5.392 16.644-2.811 3.906-7.354 5.857-13.613 5.857h-3.897v-34.029c-.032-5.916 5.244-5.23 5.244-5.23h6.155c7.453 0 12.532.435 15.24 1.302 4.645 1.443 8.235 3.709 10.774 6.789 2.541 3.082 4.51 8.164 5.914 15.239h3.332v-29.001h-82.887v3.994h2.612c3.185 0 5.696.674 7.529 2.017 1.303.914 2.196 2.218 2.676 3.901.244 1.007.366 3.725.366 8.151v61.309c0 4.906-.265 7.938-.797 9.088-.674 1.633-1.644 2.794-2.893 3.465-1.74 1.012-4.032 1.516-6.882 1.516h-2.612v4.611h84.29l5.067-31.174z"/><path d="m690.849 447.002h-2.237c-3.21 0-6.061-.985-8.554-2.957-2.488-1.972-3.734-5.765-3.734-11.392v-59.211l64.138 79.957 4.159.006v-81.55c0-4.637.385-5.983 1.15-7.891s1.835-3.285 3.201-4.131c1.368-.844 4.05-1.532 8.04-2.064v-4.149h-31.818v4.149c5.245-.096 8.991 1.255 11.211 4.057 1.626 2.077 2.439 4.135 2.439 10.031v42.706l-49.931-60.943h-30.381v3.291c2.888.096 2.991 1.063 4.529 1.88l8.138 8.191-.011 65.664c0 5.194-1.026 8.868-3.074 11.03-2.05 2.164-5.684 3.268-10.897 3.316v3.969h33.617v-3.969z"/><path d="m977.661 403.577c0 6.516-5.282 11.796-11.794 11.796-6.517 0-11.797-5.284-11.797-11.796 0-6.517 5.284-11.796 11.797-11.796 6.516 0 11.794 5.283 11.794 11.796z" stroke-width=".133"/></g></svg>