<svg height="185.059" viewBox="0 0 566.929 185.059" width="566.929" xmlns="http://www.w3.org/2000/svg"><g fill="#fff" transform="translate(2.322326 -490.7257)"><path d="m100.923 651.636c5.332 0 8.531-1.087 8.531-6.155 0-3.752-2.327-5.76-7.658-5.76h-7.368v11.915zm-9.306 15.655v-29.984h10.955c7.755 0 9.792 3.878 9.792 8.375 0 6.699-6.011 8.366-11.537 8.366h-6.399v13.242z"/><path d="m116.143 667.291h2.424v-29.984h-2.424z"/><path d="m138.925 655.958c-2.132.872-4.362 1.047-6.494 1.213-3.782.289-6.107 1.666-6.107 4.575 0 2.637 2.327 3.878 4.654 3.878 3.974 0 7.949-1.92 7.949-6.292zm-4.265-1.241c.969-.087 2.521-.339 3.296-.718.873-.369.969-1.492.969-2.238 0-2.54-1.551-4.372-5.428-4.372-3.393 0-5.816 1.124-6.302 4.867h-2.521c.388-5.081 4.168-7.126 8.919-7.126 4.362 0 7.756 1.716 7.756 6.708v11.741c0 1.957.581 2.414 2.617 1.666v1.959c-.291.126-1.163.416-1.938.416-.389 0-.679-.038-1.066-.125-1.745-.242-2.037-1.706-2.037-3.21-2.037 2.338-4.944 3.588-8.046 3.588-3.781 0-7.175-2.046-7.175-6.204 0-3.616 2.521-5.826 7.562-6.495z"/><path d="m147.553 673.156c.679.126 1.356.262 2.036.262 2.909 0 3.296-4.09 4.265-5.962l-8.434-21.735h2.812l6.98 18.536 6.882-18.536h2.715l-8.047 21.279c-2.037 5.409-3.393 8.784-6.883 8.784-.873 0-1.648-.125-2.327-.29z"/><path d="m170.722 658.334c.485 5.37 3.976 7.328 8.628 7.328 5.332 0 7.562-2.906 7.562-6.204 0-9.287-18.226-3.121-18.226-14.898 0-4.171 3.393-8.038 10.179-8.038 6.689 0 10.082 4.071 9.985 8.959h-2.617c0-4.587-3.587-6.544-7.368-6.544-5.817 0-7.853 3.537-7.368 6.62 1.26 7.736 18.323 2.161 18.323 13.775 0 5.508-4.072 8.746-10.955 8.746-6.302 0-10.955-3.238-10.955-9.743z"/><path d="m202.812 667.37c-.582.125-1.648.504-2.909.504-2.424 0-3.781-1.086-3.781-4.294v-15.783h-3.103v-2.074h3.103v-6.001h2.521v6.001h3.975v2.074h-3.975v14.785c0 2.133 0 3.043 2.132 3.043.679 0 1.356-.126 2.037-.29z"/><path d="m221.52 655.958c-2.132.872-4.264 1.047-6.398 1.213-3.78.289-6.107 1.666-6.107 4.575 0 2.637 2.327 3.878 4.655 3.878 3.974 0 7.851-1.92 7.851-6.292zm-4.168-1.241c.873-.087 2.425-.339 3.297-.718.776-.369.872-1.492.872-2.238 0-2.54-1.454-4.372-5.332-4.372-3.489 0-5.816 1.124-6.301 4.867h-2.521c.387-5.081 4.168-7.126 8.821-7.126 4.364 0 7.853 1.716 7.853 6.708v11.741c0 1.957.486 2.414 2.619 1.666v1.959c-.389.126-1.262.416-1.939.416-.388 0-.775-.038-1.164-.125-1.648-.242-1.939-1.706-1.939-3.21-2.134 2.338-4.943 3.588-8.046 3.588-3.781 0-7.271-2.046-7.271-6.204 0-3.616 2.521-5.826 7.562-6.495z"/><path d="m238.778 667.37c-.581.125-1.649.504-2.908.504-2.423 0-3.781-1.086-3.781-4.294v-15.783h-3.006v-2.074h3.006v-6.001h2.521v6.001h3.975v2.074h-3.975v14.785c0 2.133 0 3.043 2.132 3.043.678 0 1.358-.126 2.037-.29v2.035"/><path d="m246.243 667.291h-2.425v-21.569h2.425zm-2.619-26.283v-3.701h2.812v3.701z"/><path d="m260.978 647.389c-5.235 0-7.271 4.449-7.271 9.112 0 5.371 2.521 9.122 7.271 9.122 5.234 0 7.368-4.498 7.368-9.122 0-5.08-2.036-9.112-7.368-9.112zm-9.985 9.111c0-6.281 3.393-11.371 9.985-11.371 6.785 0 10.082 5.04 10.082 11.371 0 6.837-3.975 11.372-10.082 11.372-5.429-.086-9.985-3.829-9.985-11.372"/><path d="m277.071 667.291h-2.521v-21.569h2.521v2.995c1.938-2.123 3.975-3.587 6.883-3.587 2.713 0 5.041.833 6.592 3.083 1.064 1.552 1.162 3.169 1.162 4.953v14.124h-2.521v-14.076c0-3.866-1.647-5.825-5.623-5.825-3.103 0-5.235 1.996-6.01 4.196-.486 1.377-.486 2.59-.486 4.092v11.614"/><path d="m301.499 660.283c-.291-.136-.678-.204-1.258-.204h-.777v1.997h.875c.386 0 .773-.038.968-.114.387-.155.582-.445.582-.873 0-.399-.195-.671-.39-.806zm-1.065-.883c.681 0 1.164.059 1.551.193.582.243.775.708.775 1.416 0 .494-.099.854-.484 1.086-.194.126-.483.215-.774.271.387.067.678.262.871.553.194.301.291.593.291.873v.407c0 .135 0 .281.098.418v.299.068h-.873c0-.021 0-.039 0-.049 0-.021 0-.05 0-.078l-.096-.173v-.447c0-.658-.195-1.086-.486-1.289-.193-.126-.58-.185-1.066-.185h-.773v2.221h-.971v-5.584zm-3.004-.29c-.873.853-1.263 1.89-1.263 3.091 0 1.231.39 2.27 1.263 3.123.872.863 1.841 1.289 3.103 1.289s2.229-.426 3.103-1.289c.872-.854 1.263-1.891 1.263-3.123 0-1.201-.391-2.238-1.263-3.091-.872-.854-1.841-1.281-3.103-1.281-1.262-.001-2.231.426-3.103 1.281zm6.689 6.687c-.97.99-2.229 1.493-3.586 1.493-1.359 0-2.619-.504-3.586-1.493-.972-.987-1.455-2.189-1.455-3.597 0-1.386.483-2.588 1.455-3.567.967-.998 2.227-1.482 3.586-1.482 1.356 0 2.616.483 3.586 1.482.969.97 1.455 2.172 1.455 3.567 0 1.409-.487 2.61-1.455 3.597"/><path d="m322.634 651.636c5.332 0 8.627-1.087 8.627-6.155 0-3.752-2.422-5.76-7.754-5.76h-7.369v11.915zm-9.304 15.655v-29.984h10.955c7.756 0 9.789 3.878 9.789 8.375 0 6.699-5.914 8.366-11.535 8.366h-6.4v13.242z"/><path d="m345.222 647.389c-5.234 0-7.365 4.449-7.365 9.112 0 5.371 2.615 9.122 7.365 9.122 5.236 0 7.369-4.498 7.369-9.122-.097-5.08-2.037-9.112-7.369-9.112zm-9.984 9.111c0-6.281 3.297-11.371 9.984-11.371 6.787 0 9.986 5.04 9.986 11.371 0 6.837-3.975 11.372-9.986 11.372-5.525-.086-9.984-3.829-9.984-11.372"/><path d="m361.414 667.291h-2.521v-21.569h2.521v4.044h.098c1.354-3.463 3.393-4.635 6.98-4.635v2.716c-5.625-.126-7.076 4.032-7.076 8.86v10.584"/><path d="m382.451 667.37c-.582.125-1.648.504-2.813.504-2.52 0-3.879-1.086-3.879-4.294v-15.783h-3.004v-2.074h3.004v-6.001h2.521v6.001h4.072v2.074h-4.072v14.785c0 2.133.098 3.043 2.133 3.043.682 0 1.455-.126 2.037-.29v2.035"/><path d="m400.384 655.958c-2.133.872-4.266 1.047-6.398 1.213-3.781.289-6.107 1.666-6.107 4.575 0 2.637 2.328 3.878 4.652 3.878 3.977 0 7.854-1.92 7.854-6.292v-3.374zm-4.17-1.241c.871-.087 2.424-.339 3.297-.718.777-.369.873-1.492.873-2.238 0-2.54-1.455-4.372-5.332-4.372-3.488 0-5.816 1.124-6.301 4.867h-2.521c.387-5.081 4.17-7.126 8.822-7.126 4.363 0 7.854 1.716 7.854 6.708v11.741c0 1.957.482 2.414 2.617 1.666v1.959c-.389.126-1.262.416-1.938.416-.389 0-.777-.038-1.164-.125-1.646-.242-1.938-1.706-1.938-3.21-2.135 2.338-4.945 3.588-8.051 3.588-3.777 0-7.27-2.046-7.27-6.204 0-3.616 2.52-5.826 7.561-6.495z"/><path d="m420.162 665.623c4.168 0 7.27-3.043 7.369-8.452.191-5.41-2.23-9.782-7.369-9.782-4.557 0-7.271 4.158-7.271 9.026-.003 5.214 2.521 9.208 7.271 9.208zm-7.274 1.668h-2.52v-29.984h2.52v11.865c1.555-2.618 4.654-4.043 7.66-4.043 6.59 0 9.598 5.38 9.598 11.42 0 6.359-2.715 11.323-9.693 11.323-2.813 0-6.01-1.541-7.561-4.372l0 0v3.791"/><path d="m435.673 667.291h2.52v-29.984h-2.52z"/><path d="m459.908 654.999c0-4.198-2.326-7.61-6.785-7.61s-6.787 3.538-7.271 7.61zm-14.057 2.093c0 4.654 2.521 8.532 7.271 8.532 3.199 0 5.816-1.794 6.494-4.953h2.811c-1.26 4.07-3.779 7.203-9.305 7.203-6.885 0-9.891-4.915-9.891-11.282 0-6.293 3.686-11.461 9.891-11.461 5.914 0 9.5 4.218 9.5 11.962z"/><path d="m-2.322 490.726h176.632v52.38h-169.653v45.398h-6.979v-52.38h169.652v-38.42h-169.652z"/><path d="m394.956 543.106v45.398h-6.98v-52.38h169.65v-38.42h-169.65v-6.979h176.631v52.38h-169.651"/><path d="m264.371 490.726v90.798h-90.061v6.98h97.428v-90.8h90.062v-6.979h-97.429"/></g></svg>