<svg enable-background="new 0 0 567.429 113.032" height="113.032" viewBox="0 0 567.429 113.032" width="567.429" xmlns="http://www.w3.org/2000/svg"><g fill="#fff"><path d="m165.884 28.918v28.77 28.769h5.039 5.039v-25.681-25.681h6.186c4.461 0 6.475.12 7.233.437 1.496.625 3.036 2.529 3.667 4.521.331 1.047.604 3.313.701 5.831.2 5.154-.398 8.356-1.971 10.433-1.641 2.168-2.645 2.51-7.284 2.51h-3.982v3.119 3.127l6.257-.121 6.258-.122 2.214-1.046c4.045-1.908 6.982-5.811 8.167-10.84.662-2.808.652-9.086-.021-12.099-.646-2.896-1.991-5.813-3.504-7.579-.633-.738-1.857-1.797-2.712-2.347-2.933-1.882-4.062-2.001-18.356-2.001zm44.535 0v28.77 28.769h5.038 5.039v-28.769-28.77h-5.039zm126.372 0c-4.514.001-9.158.16-10.321.346-2.622.418-5.682 1.805-7.415 3.372-1.748 1.579-3.238 3.949-4.044 6.44-.501 1.548-.659 2.959-.68 5.933-.028 4.103.317 5.851 1.728 8.614.916 1.798 3.361 4.393 5.039 5.363 1.948 1.129 4.44 1.727 8.725 2.072 3.26.264 4.02.426 5.08 1.129.834.551 1.566 1.453 2.184 2.711.87 1.771.919 2.141.915 5.953-.004 3.801-.058 4.176-.896 5.771-.567 1.083-1.385 2.032-2.244 2.601l-1.352.895-8.563.102-8.553.092v3.077 3.068h9.73c5.92 0 10.412-.146 11.459-.366 3.984-.839 7.299-3.421 8.908-6.938 1.357-2.963 1.834-6.008 1.656-10.576-.186-4.817-.9-7.441-2.824-10.32-2.389-3.576-5.063-4.802-11.854-5.424-2.513-.23-5.086-.635-5.72-.904-1.397-.592-2.704-2.082-3.28-3.738-.57-1.633-.561-6.361.02-8.359.572-1.973 2.306-3.79 4.135-4.338.884-.266 3.852-.396 8.848-.396h7.528v-3.09-3.088h-8.209zm115.806 0v4.227 4.226h5.039 5.039v-4.226-4.227h-5.039zm-96.902 6.502.104 20.723c.09 20.399.104 20.754.803 22.604.389 1.033 1.225 2.58 1.857 3.443 1.293 1.76 2.973 2.994 5.1 3.738 1.023.359 2.76.498 6.064.51l4.633.02v-3.088-3.088h-3.027c-2.881 0-3.072-.039-3.891-.895-.508-.529-1.006-1.563-1.207-2.52-.221-1.032-.313-6.405-.256-14.791l.092-13.164 5.445-.092 5.445-.092v-3.076-3.08h-5.527-5.525v-3.576-3.576h-5.049zm69.596 0v20.469c0 19.797.023 20.54.672 22.512.77 2.347 2.338 4.672 4.043 5.973.65.497 1.939 1.165 2.863 1.482 1.289.445 2.73.582 6.156.59l4.469.01v-3.088-3.088h-2.885c-2.41 0-3.02-.104-3.727-.662-.467-.365-.996-1.205-1.18-1.868-.205-.739-.336-6.584-.336-15.106v-13.896h5.537 5.537l-.092-3.007-.092-3.008-5.445-.09-5.443-.093v-3.565-3.565h-5.039zm-8.889 7.069-10.758.174c-11.568.178-12.766.32-16.162 2.042-3.799 1.925-6.447 5.663-7.648 10.788-.502 2.138-.59 3.979-.59 12.109 0 9.231.027 9.661.742 11.428 1.441 3.561 3.586 5.759 6.674 6.826 1.361.471 2.781.58 7.457.588l5.771.011v-3.089-3.088h-4.043c-3.828 0-4.088-.047-4.998-.813-.602-.505-1.092-1.35-1.32-2.255-.453-1.794-.475-15.937-.031-19.362.631-4.865 1.727-7.146 4.014-8.371.787-.42 2.145-.57 5.973-.67l4.957-.132v18.896 18.885h5.203 5.201v-12.141c0-6.674-.105-16.567-.225-21.982zm-152.672.011-10.808.162c-11.746.181-13.433.396-16.64 2.113-3.725 1.994-6.385 5.936-7.508 11.123-.713 3.295-1.047 16.791-.498 20.053.48 2.847 1.811 5.713 3.404 7.334 1.172 1.193 3.117 2.369 4.743 2.865.447.137 3.481.258 6.745.273l5.932.031v-3.088-3.086h-4.154c-4.686 0-5.303-.221-6.186-2.235-.395-.897-.549-2.662-.65-7.416-.146-6.756.324-14.086 1.056-16.519.657-2.185 1.881-3.863 3.321-4.57 1.052-.516 2.019-.613 6.125-.62l4.875-.011.082 18.773.082 18.772h5.039 5.039v-21.981-21.973zm10.85.071c-2.928 0-5.319.037-5.313.082.004.045 3.346 9.857 7.426 21.811l7.416 21.738-4.176 10.769c-2.295 5.927-4.175 10.819-4.175 10.869s1.993.05 4.429 0l4.43-.091 12.951-32.508c7.127-17.879 12.963-32.543 12.963-32.588.002-.045-2.102-.082-4.684-.082-3.404 0-4.765.113-4.947.408-.137.223-2.627 6.543-5.525 14.049-2.898 7.504-5.398 13.688-5.566 13.744-.17.057-2.471-6.265-5.109-14.049l-4.795-14.152zm178.017 0v21.942 21.942h5.039 5.039v-21.942-21.942h-5.039zm60.951.162-.094 21.861h.012l-.092 21.861h5.211 5.201v-18.884-18.895l4.957.133c5.262.137 6.141.356 7.619 1.939 1.16 1.24 1.988 3.499 2.357 6.439.191 1.539.346 8.603.346 16.01v13.258h5.039 5.037l-.01-12.922c-.002-13.704-.242-16.956-1.564-20.672-1.795-5.053-5.102-8.049-10.482-9.508-1.779-.483-3.68-.567-12.811-.59zm-25.478.092c-2.842 0-5.674.357-7.709 1.057-2.709.932-4.41 2.023-6.117 3.921-1.852 2.06-3.193 4.849-3.98 8.259-.482 2.09-.596 3.844-.568 8.939.027 5.359.133 6.729.711 8.848.979 3.596 2.26 6.016 4.205 7.985 1.916 1.938 4.748 3.423 7.936 4.146 1.434.324 3.422.426 6.461.344 5.238-.139 7.73-.813 10.787-2.904 2.563-1.752 4.5-4.516 5.598-7.995 1.57-4.968 1.846-13.157.641-19.2-.586-2.936-2.01-6.119-3.598-8.056-1.492-1.821-3.936-3.418-6.551-4.287-2.113-.7-4.974-1.057-7.816-1.057zm.123 6.054c1.475 0 2.953.285 4.113.873 1.514.768 2.465 2.104 3.291 4.632.541 1.653.676 3.158.803 8.625.166 7.14-.162 10.505-1.27 13.043-.781 1.792-2.045 3.185-3.434 3.779-.592.253-2.156.446-3.605.446-2.055 0-2.844-.145-3.992-.75-.902-.478-1.773-1.295-2.336-2.205-1.469-2.371-1.953-5.48-1.973-12.484-.016-6.667.328-9.348 1.557-12.059.416-.92 1.256-2.043 1.879-2.52 1.184-.903 3.07-1.38 4.967-1.38z"/><path d="m559.435 83.912h.77v-2.835h1.756c.48 0 .795.078.938.232.139.148.229.493.268 1.032l.068.836c.012.159.029.292.055.399.023.115.063.228.117.335h.807v-.21c-.064-.057-.107-.125-.135-.204-.037-.095-.063-.212-.072-.351l-.07-.972c-.047-.472-.109-.796-.189-.972-.117-.264-.322-.422-.611-.477.309-.07.555-.244.742-.525.189-.285.283-.633.283-1.039 0-.334-.068-.625-.207-.871-.145-.275-.352-.487-.617-.635-.217-.12-.477-.198-.777-.234-.201-.023-.508-.036-.914-.036h-2.209v6.527zm.772-3.537v-2.288h1.557c.303 0 .523.008.662.022.205.033.369.092.488.174.146.097.256.219.328.369.08.158.121.334.121.526 0 .433-.121.739-.367.921-.246.184-.648.274-1.207.274z"/><path d="m567.179 80.649c0 2.957-2.398 5.356-5.355 5.356-2.959 0-5.355-2.397-5.355-5.356s2.396-5.356 5.355-5.356c2.957-.001 5.355 2.397 5.355 5.356z" stroke="#000" stroke-miterlimit="10"/><g transform="translate(-61.6856 -312.868)"><path d="m142.207 336.374-.099 89.525-23.986-7.801v-105.23l30.618 8.096c19.599 5.267 31.592 15.507 31.398 33.45-.195 20.873-9.849 29.258-28.667 23.797v-41.155c-.002-4.976-9.264-5.267-9.264-.682z"/><path d="m107.102 400.738-11.311 3.804c-7.314 2.537-13.554-3.412-6.826-5.853l5.46-1.948-20.575-6.536c-6.338 2.148-12.288 6.73-11.896 13.168.39 6.533 15.309 8.095 26.815 9.947 10.726 1.754 20.477.779 29.351-2.342v-6.73zm35.2 25.162 20.965-7.313-21.16-6.729v13.557z"/><path d="m198.08 406.299.389-.099c9.167-3.217 13.067-7.707 12.092-11.898-1.56-7.021-12.773-10.826-30.033-12.093-12.384-.878-24.572 1.853-36.468 5.947l-1.95.685 21.355 6.633 12.48-4.197c13.067-2.436 18.333 1.854 5.755 5.854l-6.242 2.146zm-79.958-31.012-9.459 3.217 9.459 2.925z"/><path d="m163.268 418.585 34.812-12.286-22.624-7.022-33.348 11.41v1.17zm-45.146-21.552-11.019 3.705 11.019 3.512zm23.985 5.756v-13.946l21.355 6.631zm-47.682-6.047 23.696-8.486v-6.826l-9.459-2.926-34.324 11.605c-.097 0-.292.096-.487.096z"/></g></g></svg>