<?xml version="1.0" encoding="UTF-8" standalone="no"?>
<svg xmlns:rdf="http://www.w3.org/1999/02/22-rdf-syntax-ns#" xmlns="http://www.w3.org/2000/svg" height="81.887mm" width="340.69mm" version="1.1" xmlns:cc="http://creativecommons.org/ns#" xmlns:dc="http://purl.org/dc/elements/1.1/" viewBox="0 0 1207.1565 290.15046">
	<g stroke-linejoin="round" stroke-linecap="round" stroke-miterlimit="10" clip-rule="evenodd" transform="translate(275.01 -304.43)">
		<path d="m912.93 570.35-43.586-54.013c-1.727-2.14-5.39-3.891-8.14-3.891h-45.201c-2.749 0-5-2.25-5-5v-3.76c0-2.75-2.249-5-5-5h-41.275c-2.75 0-5-2.25-5-5v-23.455c0-2.75 2.25-5 5-5h41.275c2.751 0 5-2.25 5-5v-3.756c0-2.75-2.249-5-5-5h-41.275c-2.75 0-5-2.25-5-5v-21.854c0-2.75 2.25-5 5-5h41.275c2.751 0 5-2.25 5-5v-3.751c0-2.75-2.249-5-5-5h-55.035c-2.75 0-5 2.25-5 5v96.576c0 2.75-2.25 5-5 5h-27.731c-2.75 0-5-2.25-5-5v-107.58c0-2.75-2.25-5-5-5h-5.48c-2.75 0-5 2.25-5 5v107.58c0 2.75-2.25 5-5 5h-82.175c-2.75 0-5-2.25-5-5v-69.065c0-2.75 2.25-5 5-5h44.713c2.75 0 5-2.25 5-5v-61.052c0-2.75-2.25-5-5-5h-61.055c-2.749 0-5 2.25-5 5v140.12c0 2.75-2.249 5-5 5h-61.775c-2.75 0-5-2.25-5-5v-11.77c0-2.75 2.25-5 5-5h24.32c2.75 0 5-2.25 5-5v-74.806c0-2.75-2.25-5-5-5l-74.813-.002c-2.75 0-5 2.25-5 5v74.808c0 2.75 2.25 5 5 5h23.523c2.75 0 5 2.25 5 5v11.77c0 2.75-2.25 5-5 5h-61.771c-2.75 0-6.51-1.668-8.357-3.706l-39.167-43.237c-1.847-2.038-1.106-3.706 1.643-3.706h37.671c2.749 0 5-2.25 5-5v-45.929c0-2.75-2.251-5-5-5h-53.638c-2.75 0-5 2.25-5 5v96.578c0 2.75-2.25 5-5 5h-28.303c-2.75 0-5-2.25-5-5v-126.36c0-2.75 2.25-5 5-5h47.293c2.75 0 5-2.25 5-5v-3.755c0-2.75-2.25-5-5-5h-118.35c-2.75 0-5 2.25-5 5v3.755c0 2.75 2.25 5 5 5h46.292c2.75 0 5 2.25 5 5v126.36c0 2.75-2.25 5-5 5l-27.16-.002c-2.749 0-5-2.25-5-5v-3.756c0-2.75-2.249-5-5-5h-41.268c-2.751 0-5-2.25-5-5v-23.459c0-2.75 2.249-5 5-5h41.268c2.751 0 5-2.25 5-5v-3.754c0-2.75-2.249-5-5-5h-41.268c-2.751 0-5-2.25-5-5v-21.854c0-2.75 2.249-5 5-5h41.268c2.751 0 5-2.25 5-5v-3.753c0-2.75-2.249-5-5-5h-55.027c-2.75 0-5 2.25-5 5v96.576c0 2.75-2.25 5-5 5h-34.474c-2.749 0-6.151-1.934-7.556-4.296l-41.959-70.473c-1.406-2.362-.307-4.296 2.444-4.296h45.083c2.75 0 5-2.25 5-5v-61.05c0-2.75-2.25-5-5-5h-61.051c-2.75 0-5 2.25-5 5v140.12c0 2.75-2.25 5-5 5h-45.032c-2.751 0-6.438-1.732-8.193-3.849l-44.294-53.399" stroke="#fff" stroke-width="10px" fill="none"/>
		<path d="m699.82 373.94-.251-.003-.251-.009-.249-.015-.249-.021-.25-.026-.251-.033-.248-.039-.246-.044-.25-.051-.245-.057-.245-.063-.245-.069-.243-.074-.241-.081-.241-.087-.237-.093-.222-.092-.135-.06-.117-.053-.115-.054-.116-.056-.116-.058-.116-.06-.115-.061-.114-.063-.113-.063-.112-.066-.112-.066-.113-.07-.109-.069-.111-.072-.11-.073-.107-.074-.11-.077-.108-.079-.103-.076-.103-.079-.107-.083-.106-.086-.103-.084-.1-.085-.102-.089-.097-.087-.101-.091-.099-.094-.094-.09-.083-.082-14.701-14.702-.083-.084-.089-.092-.093-.099-.093-.101-.089-.101-.088-.101-.083-.098-.086-.104-.084-.105-.081-.103-.08-.105-.08-.108-.079-.11-.074-.105-.074-.107-.073-.111-.072-.11-.07-.11-.066-.109-.071-.117-.063-.111-.063-.111-.064-.116-.061-.115-.061-.118-.056-.113-.055-.113-.056-.119-.054-.119-.058-.132-.091-.219-.094-.24-.087-.242-.08-.239-.076-.245-.069-.245-.062-.244-.056-.246-.051-.246-.044-.247-.039-.251-.033-.25-.027-.249-.02-.249-.015-.249-.01-.25v-.252-.253l.01-.249.014-.249.021-.249.027-.249.033-.251.039-.251.044-.246.051-.246.056-.246.063-.245.069-.245.075-.245.08-.238.087-.242.094-.24.092-.22.057-.131.054-.119.056-.118.055-.114.056-.114.06-.117.063-.117.063-.115.063-.111.063-.11.071-.118.067-.11.068-.107.073-.112.074-.112.073-.106.074-.105.078-.108.081-.109.081-.107.08-.101.084-.106.086-.104.082-.096.089-.103.091-.102.09-.098.094-.101.089-.092.081-.083 14.699-14.698.082-.082.099-.095.098-.091.1-.092.1-.089.097-.084.104-.089.104-.085.102-.082.105-.083.105-.08.108-.08.104-.076.108-.076.111-.076.108-.072.109-.07.111-.071.113-.069.112-.067.11-.064.117-.066.114-.063.111-.058.118-.061.117-.059.115-.055.113-.054.119-.054.135-.059.221-.093.239-.093.24-.087.241-.08.243-.075.245-.069.245-.063.247-.056.246-.051.247-.044.249-.039.251-.033.249-.027.248-.021.251-.015.251-.009.251-.003.25.003.251.009.25.015.249.021.25.027.25.032.248.039.248.045.248.05.246.057.244.063.244.068.244.075.243.081.24.087.236.092.223.093.133.059.117.053.118.055.115.056.116.058.116.06.113.06.114.062.113.064.113.065.113.068.111.068.112.071.108.07.11.073.111.077.106.074.107.078.105.078.105.079.106.083.106.086.101.084.099.083.101.088.102.09.102.094.094.088.096.092.087.086 14.696 14.694.082.083.095.099.093.099.087.096.091.101.089.103.083.098.086.104.083.104.08.102.082.108.08.107.079.109.074.106.072.105.075.111.073.113.068.108.067.109.068.113.066.114.066.117.06.111.062.116.061.118.054.108.057.118.058.124.052.113.056.129.094.223.093.24.088.242.08.241.074.242.07.245.061.243.058.248.05.248.044.245.04.25.032.251.027.246.021.252.015.252.01.246v.253.252l-.01.247-.015.252-.021.252-.027.246-.032.251-.04.25-.044.244-.05.249-.058.248-.061.242-.069.246-.075.242-.08.241-.088.242-.093.24-.093.222-.057.129-.052.115-.058.123-.057.117-.054.109-.06.117-.063.117-.06.111-.065.115-.067.115-.067.113-.068.11-.068.108-.072.111-.075.112-.073.106-.073.105-.079.109-.08.107-.082.108-.081.103-.083.104-.086.104-.082.097-.089.103-.09.101-.088.096-.094.1-.094.098-.081.082-14.696 14.7-.083.082-.099.095-.097.092-.1.091-.101.089-.097.085-.102.087-.105.087-.104.083-.104.081-.105.081-.106.078-.106.077-.11.077-.107.074-.11.073-.11.072-.11.069-.113.07-.111.066-.11.064-.114.064-.118.065-.115.061-.114.059-.116.058-.116.056-.113.053-.119.054-.136.06-.22.092-.238.093-.24.087-.243.081-.242.074-.244.069-.246.063-.245.057-.249.051-.247.044-.248.039-.251.033-.25.026-.249.021-.249.015-.251.009-.251.003zm0-11.203 13.964-13.968-13.965-13.964-13.966 13.966 13.967 13.966z" fill-rule="evenodd" fill="#fff"/>
		<g fill-rule="evenodd" transform="matrix(.53788 0 0 .53788 -535.47 275.33)" fill="#fff">
			<g fill-rule="nonzero">
				<path d="m545.45 453.56c8.3652 22.395 18.188 48.692 19.93 53.355 15.052 40.296 69.566 60.277 124.26 60.277 55.153 0 110.49-20.301 125.81-60.562 1.8498-4.8594 11.645-30.592 20.043-52.652-6.1754 1.645-12.48.55476-18.93 1.3164-9.0477 1.0701-9.2514 12.012-16.809 16.754-10.358 6.5006-21.066 4.1328-32.27 2.2266-12.703-2.1469-16.321 5.2528-26.088 10.566-13.879 7.5504-26.319 2.9752-39.773-2.2051-12.188-4.693-20.464 2.1525-31.74 5.1211-12.3 3.2392-27.065.74235-35.758-9.1348-7.5185-8.549-21.044-2.7188-30.25-1.9668-11.395.93087-25.199-3.3643-29.646-14.979-3.9226-10.243-17.773-5.0447-26.553-7.3984-.75598-.20264-1.5004-.445-2.2324-.71875z"/>
				<path d="m96.533 138.17c-.68046-.0115-1.3615-.002-2.043.0508-3.4763.26668-6.4326 2.1523-9.9648 2.1523-3.2513 0-6.6331-.0593-9.6094 1.4883-4.8603 2.5274-12.056.93529-16.074 5.0898-3.2455 3.3564-9.3681 1.669-13.076 5.1777-.96018.90812-1.1067 2.4248-2.3262 2.8438-1.3698.47248-2.7972.76196-4.1719 1.2246-2.6954.90616-5.5735 2.4698-6.6211 5.3008-.67238 1.8158.23578 2.0552-1.5996 2.8106-1.2671.52159-2.5034 1.1362-3.5918 1.9805-1.9926 1.5456-2.5242 3.6723-2.8125 6.2012-.02211.18908.02585 3.4282.0293 3.4258-.95919.77944-1.8036 1.7178-2.416 2.7969-1.4508 2.5569-1.1703 5.2794-.09375 7.9375 1.1679 2.883 2.1565 3.97 2.2734 6.9375-.12475 1.4228.56193 2.9008 1.0801 4.1738 2.2087 5.4222 3.4665 9.5656 10.053 9.7051 1.3315.028 1.9576 5.2545 2.4531 6.5723 1.222 3.2499 4.1493 5.4851 7.4473 6.3691 4.461 1.1959 11.497-1.4468 13.49 3.7578 2.2597 5.901 9.2749 8.0843 15.064 7.6113 4.6776-.38211 11.549-3.3436 15.369 1 4.4168 5.0185 11.919 6.2864 18.168 4.6406 5.7292-1.5083 9.9342-4.9861 16.127-2.6016 6.8362 2.632 13.157 4.9574 20.209 1.1211 4.9625-2.6998 6.7998-6.46 13.254-5.3691 5.6923.96853 11.134 2.1701 16.396-1.1328 3.8397-2.4095 3.9439-7.968 8.541-8.5117 4.047-.47788 7.9806.48283 11.818-1.5156 4.6388-2.4149 5.7166-7.6612 6.748-12.355 4.0833-.60656 7.6192-1.7153 9.1133-6.0762.93365-2.0633 1.8898-4.2862 2.1953-6.5508.13556-.90223.0964-1.823-.10351-2.7109.67135-.8708 1.3454-1.6465 1.8223-2.6524 2.3025-4.854 1.768-10.519-2.9219-13.633 1.2406-4.4443-.15318-7.5864-4.2031-9.9336-2.0466-1.1856-3.1722-.99139-3.7852-3.2266-.57758-2.0716-1.526-3.6954-3.3457-4.7637-2.3452-1.3742-5.0022-1.6322-7.4688-2.6504-1.0132-2.6384-3.5915-4.2006-6.1582-5.0469-2.1242-.70037-4.3396-.79159-6.4844-1.3633-2.2042-.59183-3.4512-2.649-5.7129-3.4707-2.4508-.89043-5.051-.97304-7.6152-1.2422-2.7612-.29027-4.6796-1.9668-7.293-2.6445-2.7592-.72492-5.4725-.53857-8.2695-.70703-2.8123-.16895-5.1909-1.6381-7.9629-1.9922-2.1993-.28094-4.4017-.0946-6.6055-.008-1.041.0411-2.0429-.0647-3.0352-.21093-.53821 6.801-1.0542 13.286-1.4785 18.486 5.838 1.99 9.6348 5.1566 9.6348 8.7344 0 6.0268-10.721 10.912-23.945 10.912s-23.943-4.8853-23.943-10.912c0-3.6917 4.0331-6.9492 10.189-8.9238-.36361-5.1254-.85528-11.516-1.375-18.154-1.7902.046-3.5778-.11232-5.3691-.14257zm76.166 23.801c3.4827 0 6.845.64622 9.7305 1.8652.2878.10363.67054.26333 1.0684.49024 3.8304 1.9169 5.9346 4.7632 5.9277 8.0234-.00054.70124-.10643 1.3848-.30273 2.0449l-.23633 4.373c-.0358.66501-.0735.97268-.11914 1.3047-.0265.19105-.0472.3401-.0723.79883-.15962 3.1561-2.1894 5.9657-5.7188 7.9121-2.9326 1.6134-6.4437 2.4668-10.152 2.4668-2.8496 0-5.6957-.51629-8.2285-1.4922-1.897-.7317-3.4936-1.6953-4.7559-2.8379.0116.17196.02.34513.0195.51953-.00054.69094-.10235 1.3625-.29297 2.0137l-.24414 4.4082c-.0364.65862-.0769.97568-.1211 1.2949-.0265.19007-.0472.34104-.0723.80664-.16208 3.1585-2.1928 5.9667-5.7207 7.9082-2.9321 1.6144-6.4413 2.4688-10.15 2.4688-2.8496 0-5.6952-.51774-8.2285-1.4941-3.2126-1.2392-5.5912-3.128-6.877-5.4609-.11394-.20677-.2066-.35866-.27929-.48047-.62571-1.0466-.73937-1.5923-.80469-2.9258l-.043-.87109c-.0221-.44056-.0438-.88123-.0645-1.3223l-.20313-4.3672c-.27317-.91209-.36767-1.8626-.25781-2.832.36394-3.2312 2.8165-5.9548 6.9062-7.6719 2.8864-1.2116 6.2512-1.8516 9.7285-1.8516 3.4851 0 6.845.64281 9.7266 1.8613.29174.10461.67933.2643 1.0762.49219 1.0372.51894 1.9426 1.1087 2.7188 1.7539-.006-.0984-.0161-.17516-.0215-.28321-.0349-.72787-.0711-1.4528-.10743-2.1797l-.22265-4.4394c-.25856-.8927-.3448-1.8221-.23828-2.7695.36442-3.2322 2.8185-5.9573 6.9082-7.6738 2.8889-1.2112 6.2508-1.8535 9.7246-1.8535zm0 2.9492c-3.0829 0-6.0512.56022-8.584 1.623-3.0598 1.2838-4.8814 3.161-5.1211 5.2852-.009.0808.002.15986-.002.24023h-.0176l.0137.20117c-.0010.22929.0146.45652.0508.68165l.49219 6.8418c.0158.3177.0315.63526.0469.95313.0624 1.25.0896.98556.71876 2.123 1.1153 2.0225 3.2617 3.3303 5.3594 4.1387 2.2082.85114 4.6862 1.2949 7.168 1.2949 3.0677 0 6.1431-.67775 8.7305-2.1016 2.0427-1.1262 4.0715-2.9934 4.1973-5.4785.0597-1.0947.12047-1.0053.17969-1.9062-.008.006-.0174.0113-.0254.0176l.5332-6.0039h-.004c.0193-.16035.0428-.31997.043-.48242.006-2.7853-2.5843-4.5437-4.3789-5.4277-.23084-.139-.49519-.25491-.73438-.33594-2.5461-1.0913-5.5335-1.6641-8.666-1.6641zm-29.564 15.088c-3.0829 0-6.0551.55973-8.5879 1.623-3.0588 1.2838-4.8804 3.162-5.1192 5.2852-.0505.44607-.008.88368.082 1.3144l.52148 8.1035h.0156c.0571.65965.16607.68776.68359 1.623 1.1159 2.0245 3.2622 3.3317 5.3594 4.1406 2.2082.85163 4.6862 1.2949 7.168 1.2949 3.0677 0 6.1412-.67725 8.7285-2.1016 2.0436-1.1247 4.0735-2.9924 4.2012-5.4785.002-.0281.002-.0262.004-.0527h.006l.0976-1.1758c.0229-.17786.047-.3314.0703-.67969-.004.003-.009.006-.0137.01l.47852-5.6953c.0502-.25818.0817-.51905.082-.7832.007-2.7853-2.5838-4.5422-4.3789-5.4258-.23034-.13998-.49767-.25539-.73632-.33594-2.5451-1.0923-5.5296-1.666-8.6621-1.666z" transform="matrix(1.8592 0 0 1.8592 471.07 40.932)"/>
				<path d="m658.5 224.09c2.4882 29.682 8.6509 104.03 9.291 120.41.41273 10.572 10.889 15.303 21.09 15.303 4.8404 0 9.4277-1.0529 12.912-2.9668 4.5217-2.4882 7.4864-6.2061 8.1348-10.197.59702-3.6573 8.0726-100.11 9.8086-122.54-9.3834 4.0608-19.726 6.3242-30.6 6.3242-10.889 0-21.244-2.2686-30.637-6.3379z"/>
				<path d="m689.14 80.457c-40.221 0-72.826 32.606-72.826 72.822 0 40.215 32.605 72.82 72.826 72.82 40.21 0 72.816-32.605 72.816-72.82.000010-40.216-32.607-72.822-72.816-72.822zm19.35 16.793c-158.28 339.64-79.139 169.82 0 0z"/>
			</g>
			<rect height="2.6559" width=".66398" stroke-miterlimit="10" y="398.72" x="734.34" stroke-width="0"/>
		</g>
	</g>
</svg>
