<svg enable-background="new 0 0 566.929 194.629" height="194.629" viewBox="0 0 566.929 194.629" width="566.929" xmlns="http://www.w3.org/2000/svg"><g fill="#fff"><path d="m235.634 28.608c0 4.249.023 8.497-.009 12.745-.019 2.431-.391 2.779-2.778 2.858-.754.026-1.518-.061-2.264.017-2.171.227-3.76-.682-5.208-2.246-6.147-6.639-12.359-13.217-18.548-19.817-.257-.274-.495-.577-.79-.804-.486-.375-.897-.287-.966.373-.067.654-.04 1.319-.04 1.98-.002 5.758.011 11.517-.006 17.275-.009 2.93-.293 3.187-3.268 3.227-4.516.061-4.517.061-4.518-4.532 0-7.741 0-15.482 0-23.223 0-.661-.005-1.322.017-1.982.032-.984.5-1.656 1.527-1.675 2.169-.042 4.353-.145 6.503.06.811.078 1.664.822 2.295 1.463 3.109 3.157 6.175 6.356 9.207 9.588 3.223 3.436 6.38 6.934 9.595 10.378.351.376.886.58 1.336.863.084-.536.24-1.071.242-1.607.018-5.569.01-11.139.011-16.709 0-.661-.042-1.326.02-1.981.143-1.522.592-2.055 2.105-2.082 6.506-.114 5.488-.327 5.532 5.069.029 3.588.006 7.175.005 10.762z"/><path d="m65.123 26.365h6.509c1.274 0 1.906.631 1.905 1.909-.003 3.773.002 7.546 0 11.32-.001 1.461-.741 2.063-2.176 2.492-1.435.43-5.864 1.337-10.829 1.771s-8.795-.173-13.031-1.387c-1.953-.56-3.82-1.573-5.58-2.627-8.726-5.224-9.135-17.327.058-23.458 3.592-2.396 7.572-3.568 11.829-4.267 4.734-.778 9.369-.271 14.04.189.834.082 1.672.29 2.47.553 1.539.508 1.9 1.057 1.962 2.696.087 2.319-.571 2.805-2.866 2.175-5.256-1.444-10.581-1.705-15.907-.562-2.693.578-5.141 1.815-7.147 3.8-4.566 4.518-3.834 12.207 1.559 15.691 2.246 1.451 4.702 2.139 7.446 2.298 2.74.159 3.197.159 5.942-.029.926-.063 1.845-.294 2.772-.412 1.285-.165 1.706-.907 1.688-2.147-.095-6.195.709-5.074-4.998-5.188-.754-.015-1.516.054-2.262-.029-1.907-.211-2.864-2.033-2.026-3.753.444-.911 1.242-1.051 2.134-1.046 2.17.01 4.339.003 6.509.003-.001.002-.001.005-.001.008z"/><path d="m122.558 28.121c0-3.966-.01-7.934.002-11.9.011-3.258.193-3.458 3.31-3.466 6.233-.015 12.467-.024 18.7.006 2.303.011 2.605.328 2.651 2.308.05 2.187-.32 2.604-2.616 2.626-3.777.037-7.556-.004-11.333.016-2.562.015-2.569.037-2.611 2.475-.02 1.133-.029 2.268.003 3.4.059 2.092.118 2.17 2.323 2.19 3.494.031 6.989-.02 10.483.02 2.348.026 3.42 1.852 2.432 4.017-.45.984-1.341.917-2.181.921-2.928.016-5.856.008-8.784.008-.661 0-1.323-.015-1.983.003-2.185.06-2.239.101-2.291 2.228-.033 1.321-.033 2.645 0 3.966.047 1.953.064 1.988 2.133 2.003 3.778.027 7.555.007 11.333.007.566 0 1.134-.024 1.7.007 2.029.11 2.5.595 2.523 2.552.024 2.124-.446 2.68-2.658 2.692-6.705.039-13.411.038-20.117.001-2.406-.013-2.986-.614-3.009-3.048-.039-4.342-.01-8.687-.01-13.032z"/><path d="m287.481 28.15c0-4.155-.024-8.312.009-12.467.021-2.555.391-2.916 2.992-2.925 6.327-.023 12.655-.027 18.982.003 2.414.011 3.455 1.711 2.521 3.959-.416 1.003-1.293.979-2.144.979-3.399.012-6.801.002-10.2.008-4.527.009-4.046-.385-4.056 4.15-.013 4.318-.354 3.917 3.994 3.927 3.021.006 6.045-.006 9.065.009.841.004 1.933-.103 2.126.934.2 1.065.168 2.264-.143 3.29-.121.4-1.27.672-1.959.69-2.83.077-5.666.034-8.498.035-.565 0-1.135-.004-1.699 0-2.861.022-2.866.022-2.893 2.767-.011 1.228-.035 2.457.008 3.684.062 1.665.093 1.728 1.817 1.744 3.966.037 7.933.011 11.899.013.66 0 1.328-.048 1.98.029 1.607.189 2.038.825 1.985 2.784-.047 1.728-.478 2.309-2.063 2.419-1.41.099-2.832.033-4.248.033-5.385.002-10.769.019-16.149-.007-2.78-.014-3.31-.542-3.326-3.308-.023-4.25 0-8.5 0-12.75z"/><path d="m393.19 15.429c-.035 1.989-.528 2.503-2.38 1.932-3.604-1.113-7.264-1.025-10.928-.752-1.278.096-2.611.471-3.762 1.039-2.391 1.181-2.479 3.761-.176 5.097 1.455.844 3.072 1.413 4.639 2.056 3.131 1.287 6.299 2.48 9.396 3.839 1.102.483 2.172 1.199 3.023 2.043 3.231 3.204 2.752 7.135-.559 9.75-2.615 2.067-5.75 2.756-8.929 3.191-4.485.613-8.968.356-13.418-.442-.646-.116-1.286-.284-1.911-.484-1.85-.594-2.701-2.418-1.904-4.204.152-.342.688-.723 1.043-.722.731.002 1.469.225 2.192.402 4.229 1.037 8.474 1.774 12.825.777.184-.042.382-.021.563-.071 1.754-.486 3.744-.982 4.022-3.043.26-1.925-1.351-2.988-2.954-3.692-1.713-.753-3.462-1.444-5.24-2.028-3.227-1.061-6.482-2.104-9.229-4.14-1.237-.917-2.362-2.23-3.037-3.609-1.118-2.285-.118-5.136 2.003-6.81 2.116-1.67 4.554-2.7 7.172-3.167 5.036-.897 10.099-.987 15.155-.08 1.974.353 2.433.938 2.394 3.118z"/><path d="m529.982 15.429c-.035 1.989-.527 2.503-2.381 1.932-3.602-1.113-7.262-1.025-10.928-.752-1.277.096-2.609.471-3.76 1.039-2.391 1.181-2.48 3.761-.176 5.097 1.455.844 3.07 1.413 4.639 2.056 3.129 1.287 6.299 2.48 9.395 3.839 1.102.483 2.174 1.199 3.023 2.043 3.232 3.204 2.754 7.135-.557 9.75-2.617 2.067-5.75 2.756-8.93 3.191-4.484.613-8.969.356-13.418-.442-.646-.116-1.285-.284-1.91-.484-1.85-.594-2.701-2.418-1.904-4.204.15-.342.686-.723 1.043-.722.73.002 1.469.225 2.191.402 4.229 1.037 8.475 1.774 12.826.777.184-.042.381-.021.561-.071 1.754-.486 3.746-.982 4.023-3.043.262-1.925-1.352-2.988-2.953-3.692-1.713-.753-3.463-1.444-5.24-2.028-3.229-1.061-6.484-2.104-9.229-4.14-1.238-.917-2.363-2.23-3.037-3.609-1.117-2.285-.119-5.136 2.002-6.81 2.117-1.67 4.555-2.7 7.172-3.167 5.037-.897 10.1-.987 15.158-.08 1.97.353 2.429.938 2.39 3.118z"/><path d="m452.875 12.766c1.98 0 3.965-.065 5.941.021 1.416.062 1.756.533 1.813 1.979.064 1.616-.291 2.097-1.73 2.355-2.326.417-2.35.417-2.355 2.749-.012 5.754-.012 11.509.002 17.263.004 2.036.029 2.036 2.035 2.396 1.652.296 2.09.818 2.047 2.443-.041 1.567-.561 2.187-2.264 2.216-3.771.066-7.547.065-11.318-.008-1.545-.03-2.039-.634-2.129-2.062-.102-1.636.328-2.223 1.898-2.584 2.02-.464 2.051-.464 2.057-2.468.018-5.849.018-11.697 0-17.546-.008-2.004-.043-2.004-2.146-2.396-1.533-.286-1.852-.682-1.811-2.281.037-1.568.396-2.007 2.018-2.067 1.98-.072 3.965-.017 5.943-.017-.001.003-.001.005-.001.007z"/><path d="m341.373 193.968c-2.26-2.385-8.34-2.6-9.285-2.6-42.588 0-85.174-.002-127.765.002-4.329 0-5.108.532-4.578-4.957.868-8.979 4.167-17.322 10.688-23.765 1.249-1.271 1.666-1.7 4.52-4.287 12.092-10.957 36.182-19.743 36.182-19.743s20.159-7.443 31.479-11.898c5.085-2 10.05-4.309 14.578-7.444 16.42-12.944 7.894-25.789-13.755-28.782-15.163-2.17-28.978 1.533-41.748 9.677-1.667 1.064-3.074 2.125-4.684 3.281-2.856 2.414-5.307 5.229-5.836 8.34-.286 1.68-.013 2.838.021 3.112.108.871.375 2.251-.272 2.884-.778.76-2.394-.002-3.111-.681-6.58-6.219-13.172-12.424-19.759-18.636-.412-.389-1.173-1.221-1.173-1.221s-.72-.834-.745-1.406c-.029-.644.604-1.249 1.36-1.485 3.589-.661 5.245-.873 7.399-2.448 5.797-4.237 11.855-8.025 18.325-11.18 8.651-4.219 17.747-6.726 27.272-8.01 7.325-.988 28.84-4.338 53.973 6.837 6.629 2.907 12.313 7.024 16.597 12.831 2.536 3.437 12.095 22.281-7.382 37.333-6.963 5.588-15.275 9.039-23.674 11.972-7.188 2.51-12.465 4.396-24.227 7.794-8.931 2.658-15.342 4.736-25.563 9.585-8.129 3.856-13.465 8.543-13.465 8.543s-2.662 2.053-2.147 3.659c.446 1.394 2.668 1.254 3.975 1.257 31.445.02 62.892.014 94.337.016 3.254 0 6.408-.229 8.893-2.784.361-.373 1.318-.574 1.75-.357.414.207.703 1.061.707 1.633.049 7.365.051 14.893.008 22.258-.006.715-.241.971-.596 1.178-.538.313-1.678.147-2.299-.508z"/><path d="m107.1 193.042c-5.159-.315-10.332-.979-15.427-1.879-20.739-3.656-30.385-8.554-36.174-10.826-2.766-1.086-5.47-2.114-8.476-1.012-.343.127-.745.12-1.121.127-1.911.021-2.496-.722-1.666-2.427.989-2.032 2.148-3.985 3.317-5.926 3.167-5.252 6.376-10.479 9.57-15.717.147-.24.315-.471.46-.715.651-1.09 1.366-2.1 2.858-1.891 1.403.197 1.706 1.354 2 2.451.642 2.387 2.099 4.166 4.016 5.647 4.536 3.511 9.659 5.873 15.033 7.748 6.969 2.431 14.143 3.953 21.429 5.097 8.627 1.354 17.299 1.526 25.961 1.024 7.342-.427 14.576-1.752 21.498-4.457 4.213-1.646 7.409-4.552 9.968-8.103 3.395-4.711 2.004-11.188-2.622-14.871-6.284-5.002-13.592-6.979-21.333-8.309-6.96-1.193-13.912-1.065-20.879-.975-3.271.043-11.09.354-14.087 3.135-1.104.972-1.979 1.045-2.504.572-.525-.476-.548-1.228-.554-1.886-.059-6.8-.066-13.603-.021-20.401.015-2.227 1.054-2.902 2.78-1.693 2.18 1.527 4.599 2.195 7.125 2.519 4.196.539 17.892.063 20.69-.303 7.481-.978 6.828-.86 11.194-2.03 4.673-1.251 9.131-4.531 11.458-7.242.038-.043.076-.088.113-.133 3.244-3.908 2.154-8.406-.864-11.626-2.898-3.091-6.541-5.07-10.597-6.267-6.647-1.96-13.456-3.032-20.365-2.707-12.507.588-24.774 2.497-36.083 8.316-2.589 1.332-5.016 3.008-7.407 4.686-2.042 1.432-3.07 3.531-3.128 6.056-.03 1.313.18 2.815-1.379 3.388-1.573.578-2.388-.791-3.285-1.701-5.76-5.852-11.496-11.727-17.238-17.598-.33-.337-.698-.658-.942-1.053-.694-1.123-.267-2.054 1.063-2.208 1.488-.172 3.082.063 4.464-.387 2.042-.665 3.952-1.753 5.895-2.707 5.165-2.533 10.195-5.386 15.502-7.57 8.405-3.458 17.25-5.316 26.285-6.437 8.648-1.073 23.906-1.519 34.944.111 7.378 1.115 14.691 2.597 21.539 5.649 6.041 2.692 11.94 5.698 16.45 10.779 3.26 3.672 5.449 7.775 6.183 12.751.704 4.77-.081 9.127-2.12 13.406-1.404 2.947-3.504 4.856-6.393 6.588-5.668 3.399-9.024 4.248-9.741 4.685-1.14.694-1.19 1.618-.027 2.284 1.046.599 2.248.953 3.413 1.316 6.821 2.129 12.679 5.873 17.563 11.002 3.567 3.745 5.68 8.231 6.39 13.536.726 5.433-.549 10.236-2.896 14.957-1.827 3.675-4.856 6.261-8.043 8.605-6.444 4.744-13.622 7.955-21.316 10.232-5.727 1.693-11.531 2.842-17.409 3.619-20.096 2.197-30.361 1.059-35.064.771z"/><path d="m383.914 72.788c6.705 0 13.41 0 20.116.001.66 0 1.328-.05 1.981.028 1.494.178 1.725.81.787 2.032-1.676 2.182-1.662 2.417.246 4.435.063.069.133.134.199.201 9.356 9.465 18.715 18.931 28.074 28.396.465.47.902.98 1.438 1.361.939.676 1.945.69 2.869-.054.514-.412.969-.899 1.434-1.369 9.24-9.319 18.48-18.64 27.719-27.962.334-.335.682-.659.977-1.026 1.232-1.531 1.203-2.073.053-3.714-1.035-1.398-1.035-2.249 1.076-2.302.461-.012.939-.026 1.412-.026 13.6 0 27.199-.003 40.799.005.844 0 1.711-.01 2.525.169.348.076.771.6.83.971.057.367-.199 1.01-.504 1.162-.918.461-1.902.855-2.906 1.075-3.807.832-6.908 2.712-9.66 5.516-11.838 12.063-23.799 24.005-35.695 36.012-2.984 3.016-5.918 6.092-8.842 9.17-1.85 1.946-1.855 2.863.021 4.782 3.295 3.36 6.68 6.632 9.959 10.007 2.43 2.5 4.688 5.17 7.137 7.648 6.508 6.582 13.096 13.082 19.613 19.653 4.387 4.422 8.736 8.881 13.047 13.377 2.482 2.593 5.373 4.401 8.861 5.293 1.271.322 2.514.806 3.715 1.338.326.146.666.763.617 1.109-.051.356-.516.813-.891.932-.613.193-1.301.195-1.955.195-13.883.01-27.766.008-41.648.002-.563 0-1.15.012-1.684-.14-.883-.252-1.217-.784-.67-1.7.459-.771 1.186-1.648 1.102-2.402-.092-.801-.914-1.588-1.559-2.243-10.768-10.99-21.557-21.96-32.342-32.933-.396-.404-.795-.808-1.203-1.201-2.383-2.303-3.256-2.332-5.643.043-6.896 6.858-13.799 13.715-20.631 20.64-4.438 4.498-8.764 9.108-13.129 13.679-1.646 1.722-1.645 1.831-.396 4.114.713 1.305.445 1.879-1.045 2.092-.646.094-1.316.057-1.979.057-13.41.002-26.82.018-40.23-.023-1.205-.004-3.222.324-3.326-1.143-.211-1.533 1.641-1.611 2.729-1.867 4.883-1.143 8.612-3.928 12.065-7.471 11.008-11.291 22.199-22.398 33.279-33.619 3.439-3.484 6.729-7.119 10.127-10.645 1.311-1.355 2.764-2.568 4.104-3.896 2.799-2.778 2.81-3.517.117-6.237-8.166-8.259-16.348-16.498-24.508-24.761-6.633-6.715-13.291-13.408-19.84-20.205-2.521-2.617-5.482-4.244-8.967-5.059-.643-.15-1.273-.349-1.904-.544-.896-.277-2.004-.489-1.881-1.71.125-1.243 1.217-1.243 2.188-1.241.568.001 1.135-.002 1.701-.002 6.708 0 13.415 0 20.121 0z"/><path d="m522.242 37.74.082-.173-.123.13z"/><path d="m522.201 37.697-.141.125.182-.082z"/></g></svg>