<svg enable-background="new 0 0 566.929 77.199" height="77.199" viewBox="0 0 566.929 77.199" width="566.929" xmlns="http://www.w3.org/2000/svg"><g fill="#fff"><g><path d="m76.534 26.614-1.553-.719c.097-.32.194-.719.194-1.119 0-1.039-9.127-6.633-24.953-6.633-15.146 0-21.651 3.836-21.651 8.79 0 13.104 57.186-6.072 57.186 22.854 0 10.548-12.428 18.699-37.283 18.699-23.689 0-30.486-6.233-32.719-6.233-.583 0-.874.398-1.359.639l-1.262-.24 8.058-13.585 1.554.639c0 .322-.195.642-.195 1.28 0 4.716 12.525 8.069 24.953 8.069 17.671 0 23.69-4.153 23.69-8.55 0-15.66-56.41 3.755-56.41-22.771 0-13.425 17.185-19.019 36.021-19.019 16.894 0 28.739 6.073 29.904 6.073 1.262 0 1.456-.319 1.748-.559l1.553.399z"/><path d="m93.229 66.567c2.136 0 2.524-.639 2.524-2.398v-51.139c0-1.758-.389-2.397-2.524-2.397v-1.119h63.012c2.33 0 3.301-.64 3.301-1.758h1.359v13.265h-1.359c0-1.438-.971-2.077-3.301-2.077h-46.701v14.224h30.487c2.33 0 3.301-.64 3.301-2.078h1.359v13.422h-1.359c0-.639-.194-1.118-.777-1.438-.485-.319-1.359-.48-2.524-.48h-30.487v15.664h47.575c2.33 0 3.301-.641 3.301-1.918h1.359v13.104h-1.359c0-1.119-.971-1.758-3.301-1.758h-63.886z"/><path d="m247.888 37.002v1.119c-.971.16-1.845.799-1.845 2.557v15.741c0 1.279.486 1.757 1.748 1.997v1.119c-6.117 2.876-21.069 8.951-37.866 8.951-22.331 0-41.943-9.112-41.943-29.886 0-20.776 22.913-29.886 43.108-29.886 7.962 0 15.535 1.518 21.069 2.957 5.146 1.838 8.932 3.277 9.612 3.277.874 0 1.748-.4 2.136-.879l1.359.479-9.417 13.104-1.36-.719c.097-.319.194-.799.194-1.358 0-2.478-10.485-7.432-23.398-7.432-16.311 0-29.515 6.633-29.515 20.138 0 14.143 13.204 20.773 28.156 20.773 12.234 0 19.418-3.436 22.331-5.193v-6.631h-16.699c-1.942 0-3.107.799-3.107 1.916h-1.36v-14.061h1.36c0 1.118 1.165 1.917 3.107 1.917z"/><path d="m252.736 67.687v-1.119c1.748-.079 2.33-.479 3.689-3.037l26.506-49.062c.485-.799 1.067-1.678 1.067-2.397 0-.879-.775-1.279-2.039-1.438v-1.12h21.167v1.119c-1.456.16-2.04.639-2.04 1.199 0 .639.389 1.278.874 2.078l28.156 49.621c1.359 2.478 1.748 3.037 3.786 3.037v1.119h-19.32v-1.119c1.263 0 1.748-.4 1.748-.799 0-.879-.874-1.998-7.38-13.425h-33.302c-5.631 10.387-7.087 11.986-7.087 13.025 0 .719.582 1.119 1.456 1.198v1.119h-17.281zm50.585-24.453-11.651-20.935-11.457 20.935z"/></g><path d="m546.461 77.199h-546.461v-77.199h546.461zm-541.544-4.917h536.627v-67.365h-536.627z"/><g><path d="m548.183 1.424h3.321v8.847h1.633v-8.847h3.322v-1.424h-8.276z" fill="#fff"/><path d="m564.854 0-3.047 8.09-3.033-8.09h-2.074v10.271h1.562v-7.672l2.88 7.672h1.345l2.879-7.669v7.669h1.563v-10.271z" fill="#fff"/></g><path d="m350.736 9.514v58.172h186.856v-58.172zm7.921 40.835c-1.553-10.357 32.851-24.162 77.67-31.437-1.011.261-2.969.762-2.969.762s-4.404 1.076-5.622 1.374c-22.864 5.587-38.882 15.652-37.545 24.577 1.37 9.137 20.469 14.083 44.766 12.392 1.35-.095 6.139-.325 7.181-.372-44.989 6.179-81.929 3.064-83.481-7.296zm112.04 2.238c-9.931 2.257-22.345 4.173-22.345 4.173v-25.959l6.4 21.124s15.242-2.474 26.844-7.304c10.084-4.199 16.339-9.466 15.917-15.077-.684-9.115-20.068-13.978-43.999-12.439-1.596.103-6.895.375-7.937.421 44.981-6.181 81.917-3.064 83.471 7.293 1.321 8.81-23.371 20.109-58.351 27.768z"/></g></svg>