<svg height="277.25568" width="1924.6993" xmlns="http://www.w3.org/2000/svg"><g fill="#fff" stroke="#fff" transform="translate(-4.3835455 -772.49433)"><path d="m262.07419 994.08607c-.00029 16.49013-5.00379 29.80603-15.01052 39.94953-10.00728 10.1436-23.52809 15.2144-40.56247 15.2144h-197.1485418v-55.16393h197.1485418v-55.1771h-146.849351c-16.225879 0-29.410368-5.1377-39.553511-15.41312-10.1432264-10.27439-15.2148179-23.52534-15.2147925-39.75079v-55.5858c-.0000254-7.84043 1.4876134-15.14032 4.4629233-21.89965 2.9752492-6.75934 6.9636082-12.57349 11.9650912-17.44346 5.001398-4.86896 10.815778-8.72376 17.443158-11.56237 6.627261-2.83964 13.592963-4.25844 20.897131-4.25945h183.765961v55.16493h-183.765961v55.5858h146.849351c7.84032 0 15.14233 1.4188 21.90608 4.25843 6.76326 2.83862 12.64573 6.69139 17.64743 11.55629 5.00118 4.86591 8.92144 10.68006 11.76082 17.44346 2.83883 6.76339 4.25837 14.0653 4.25866 21.90573z"/><path d="m582.56283 1049.25h-221.07873c-36.7846 0-55.17686-18.3876-55.17683-55.16393v-165.92681c-.00003-7.84043 1.48761-15.14032 4.46292-21.89965 2.97526-6.75934 6.96568-12.57349 11.97128-17.44346 5.00552-4.86896 10.8199-8.72376 17.44316-11.56237 6.62314-2.83964 13.72295-4.25844 21.29947-4.25945h211.75672v55.16493h-211.75672v165.92681h165.50575v-55.1771h-109.93276v-55.16391h165.50574z"/><path d="m790.12279 938.90897h-165.51811v-55.16391h165.51811z"/><path d="m982.26993 1049.25h-165.51815v-55.16393h55.57298v-165.92681h-55.57298v-55.16493h110.74982v221.09174h54.76833z"/><g transform="translate(4.3835455 772.49433)"><path d="m1069.6562.5c-7.2959.00101-14.2476 1.41036-20.875 4.25-6.6272 2.83861-12.436 6.69354-17.4374 11.5625-5.0015 4.86997-8.9935 10.67816-11.9688 17.4375-2.9752 6.75933-4.4688 14.06582-4.4688 21.90625v165.9375c0 36.77633 18.2462 55.15625 54.75 55.15625h165.5313c36.776 0 55.156-18.37992 55.1563-55.15625v-165.9375c-.0004-7.56762-1.4112-14.70941-4.25-21.46875-2.8394-6.75934-6.7489-12.65038-11.75-17.65625-5.0018-5.00485-10.893-8.94264-17.6563-11.78125-6.7637-2.83964-13.9321-4.249-21.5-4.25zm0 55.15625h165.5313v165.9375h-165.5313z"/><path d="m1386.5938.5c-7.296.00101-14.2477 1.41036-20.875 4.25-6.6273 2.83861-12.4361 6.69354-17.4376 11.5625-5.0013 4.86997-8.9934 10.67816-11.9687 17.4375-2.9753 6.75933-4.4687 14.06582-4.4687 21.90625v165.9375c0 36.77633 18.246 55.15625 54.75 55.15625h165.5312c36.7761 0 55.156-18.37992 55.1562-55.15625v-165.9375c-.0002-7.56762-1.4112-14.70941-4.25-21.46875-2.8393-6.75934-6.78-12.65038-11.7812-17.65625-5.0017-5.00485-10.8929-8.94264-17.6562-11.78125-6.7637-2.83964-13.9009-4.249-21.4688-4.25zm0 55.15625h165.5312v165.9375h-165.5312z"/><path d="m1703.5312.5c-7.2959.00101-14.2789 1.41036-20.9062 4.25-6.6273 2.83861-12.4361 6.69354-17.4375 11.5625-5.0014 4.86997-8.9934 10.67816-11.9687 17.4375-2.9753 6.75933-4.4688 14.06582-4.4688 21.90625v165.9375c0 36.77633 18.2774 55.15625 54.7812 55.15625h165.5c36.776 0 55.156-18.37992 55.1563-55.15625v-165.9375c-.0003-7.56762-1.4111-14.70941-4.25-21.46875-2.8393-6.75934-6.7488-12.65038-11.75-17.65625-5.0017-5.00485-10.8929-8.94264-17.6563-11.78125-6.7636-2.83964-13.932-4.249-21.5-4.25zm0 55.15625h165.5v165.9375h-165.5z"/></g></g></svg>