<svg height="79.261032" width="576.38623" xmlns="http://www.w3.org/2000/svg"><g fill="#fff" stroke="#fff" transform="translate(-75.679683 -200.09862)"><path d="m129.28538 258.00867-11.18014 20.85098-41.925557-78.26103h22.360294z"/><path d="m120.90027 231.90304 16.77022-31.30442h22.36029l-27.95036 52.15537z"/><path d="m165.73266 200.59862h19.62116l-.0558 78.26103h-19.56526z"/><path d="m193.68304 200.59862h19.62114l-.0558 78.26103h-19.56523z"/><path d="m218.83837 220.16389v-19.56527h8.38508c10.80745.00009 20.03105 3.81996 27.67087 11.45964 7.63971 7.63985 11.45958 16.86345 11.45966 27.67086-.00008 10.8075-3.81995 20.03113-11.45966 27.67087-7.63982 7.63977-16.86342 11.45966-27.67087 11.45966h-8.38508v-19.56526h8.38508c5.40371.00003 10.01553-1.90992 13.83545-5.72982 3.81984-3.81987 5.72976-8.43165 5.72982-13.83545-.00006-5.40367-1.90998-10.01549-5.72982-13.83542-3.81992-3.81983-8.43174-5.72975-13.83545-5.72981z"/><path d="m274.85089 200.59862h19.62117l-.0558 78.26103h-19.56526z"/><path d="m300.00622 200.59862h30.74541v19.56527h-30.74541z"/><path d="m300.00622 259.29439h30.74541v19.56526h-30.74541z"/><path d="m300.00622 229.94649h30.74541v19.56527h-30.74541z"/><path d="m397.77661 242.52418h19.67706c-.59635 9.61494-4.39761 17.90687-11.40376 24.87581-7.63982 7.63977-16.86343 11.45966-27.67087 11.45966-10.8075 0-20.0311-3.81989-27.67084-11.45966-6.96897-6.96894-10.75157-15.26087-11.34787-24.87581h19.67706c.559 4.21121 2.40372 7.88202 5.53419 11.01243 3.80121 3.83853 8.4037 5.75781 13.80746 5.75778 5.40371.00003 10.02482-1.91925 13.86338-5.75778 3.13041-3.13041 4.97514-6.80122 5.53419-11.01243z"/><path d="m359.03739 236.93409h-19.67706c.5963-9.61488 4.3789-17.90681 11.34787-24.87583 7.63974-7.63968 16.86334-11.45955 27.67084-11.45964 10.80744.00009 20.03105 3.81996 27.67087 11.45964 7.00615 6.96902 10.80741 15.26095 11.40376 24.87583h-19.67706c-.55905-4.21114-2.40378-7.90059-5.53419-11.06835-3.83856-3.80118-8.45967-5.70179-13.86338-5.70185-5.40376.00006-10.00625 1.90067-13.80746 5.70185-3.13047 3.16776-4.97519 6.85721-5.53419 11.06835z"/><path d="m426.00648 200.59862h19.56526v78.26103h-19.56526z"/><path d="m451.1618 220.16389v-19.56527h10.50936c6.74529.00009 12.50307 2.38518 17.2733 7.1553 4.77015 4.77026 7.15524 10.52801 7.1553 17.27331-.00006 6.78267-2.38515 12.55908-7.1553 17.32923-4.77023 4.77024-10.52801 7.15532-17.2733 7.1553h-10.50936v-19.56527h10.50936c1.34156.00006 2.48752-.47508 3.43789-1.42545.95028-.95028 1.42542-2.11487 1.42547-3.49381-.00005-1.34156-.47519-2.48753-1.42547-3.43789-.95037-.95025-2.09633-1.42539-3.43789-1.42545z"/><path d="m529.42283 247.55524-16.7702 31.30441h-22.3603l27.95035-52.15539z"/><path d="m537.58433 252.30679-16.54662-30.85721 11.18015-20.85096 41.92556 78.26103h-22.36029l-3.74534-6.9876h-26.04974l10.45343-19.56526z"/><path d="m616.18077 259.1267v19.62116c-9.61494-.5963-17.90687-4.3789-24.87581-11.34787-7.63979-7.63974-11.45966-16.86337-11.45966-27.67087 0-10.80741 3.81987-20.03101 11.45966-27.67086 6.96894-6.96889 15.26087-10.75149 24.87581-11.34784v19.62116c-4.2112.55906-7.88201 2.40378-11.01243 5.53416-3.83855 3.83859-5.7578 8.45971-5.75777 13.86338-.00003 5.4038 1.91922 10.00628 5.75777 13.80749 3.13042 3.16773 6.80123 5.03109 11.01243 5.59009z"/><path d="m635.29883 228.82849c-.70812-1.04344-1.528-2.03101-2.45965-2.96275-3.16773-3.13038-6.85717-4.9751-11.06832-5.53416v-19.62116c9.61485.59635 17.90681 4.37895 24.87581 11.34784 1.86329 1.86344 3.50306 3.83858 4.91926 5.9255z"/><path d="m651.56593 261.47452c-1.4162 2.08697-3.05597 4.06212-4.91926 5.92547-6.969 6.96897-15.26096 10.75157-24.87581 11.34787v-19.62116c4.21115-.559 7.90059-2.42236 11.06832-5.59009.93165-.93165 1.75153-1.90059 2.45965-2.90683z"/></g></svg>