<svg enable-background="new 0 0 566.929 142.564" height="142.564" viewBox="0 0 566.929 142.564" width="566.929" xmlns="http://www.w3.org/2000/svg"><g fill="#fff"><path d="m0 .016 29.727 142.531 29.573-142.531h-16.006l-13.567 80.108-13.72-80.108z"/><path d="m65.855.016h16.006v142.531h-16.006z"/><path d="m96.181 0v142.555h16.012v-73.656l22.266 73.652h14.762l-17.813-67.397c9.896-5.938 12.81-13.71 12.81-13.71v-45.283c-6.558-14.558-17.865-16.161-17.865-16.161zm16.012 14.51h16.012v49.536h-16.012z"/><path d="m149.24.016h47.867v14.48h-16.007v128.05h-16.006v-128.048h-15.854z"/><path d="m285.669 0-30.924 142.402v.149h15.862l3.353-19.213h22.366l3.202 19.213h16.013zm0 61.443 7.306 49.085h-15.813z"/><path d="m321.955.016h16.008v128.049h23.936v14.481h-39.941z"/><path d="m493.148.016h14.635l14.938 61.435 13.568-61.435h16.156l-22.408 83.842v58.688h-16.006v-58.687z"/><path d="m464.423.016c-18.193 0-24.041 16.146-24.041 16.146.15.229 0 107.181 0 110.23 2.412 17.325 24.041 16.155 24.041 16.155l0 0c24 0 23.992-16.155 23.992-16.155v-110.231c-6.205-16.944-23.992-16.145-23.992-16.145zm-8.031 16.145h16.014v111.881h-16.014z"/><path d="m203.356.016h16.16v126.374h16.159v-126.374h15.853v126.374s-5.183 16.157-23.323 16.157-24.849-16.157-24.849-16.157z"/><path d="m379.587 0v142.555h32.174c14.934-3.89 15.859-14.513 15.859-14.513s-.023-38.076-.023-47.918c-1.121-6.213-6.229-6.422-6.229-6.422s-.021-1.731 0-3.102c5.645-.433 6.254-6.556 6.254-6.556s-.023-38.039 0-47.885c-2.443-11.626-15.861-16.159-15.861-16.159zm16.061 16.26h16.111v47.785h-16.111zm-.049 62.247h16.16v49.535h-16.16z"/><path d="m539.72 128.066h11.125v1.656h-4.725v12.825h-1.604v-12.825h-4.801v-1.656z"/><path d="m552.447 142.548v-14.481h1.602l5.717 12.92 5.486-12.92h1.678v14.481h-1.678v-11.209l-4.73 11.209h-1.615l-4.855-11.209v11.209z"/></g></svg>