<svg enable-background="new 0 0 566.936 85.117" height="90.903244" viewBox="0 0 929.08398 90.903244" width="929.08398" xmlns="http://www.w3.org/2000/svg"><g fill="#fff" transform="translate(0 5.7852477)"><g fill="#fff"><path d="m168.372 54.158-9.313 7.705h-48.147l7.734-32.427 7.789-6.181h7.732l-7.732 32.427 7.732-4.628 6.208-23.142 4.656-4.657h10.895l-7.761 32.427 7.761-6.153 4.629-20.093 6.237-6.181h9.341z"/><path d="m480.338 54.158-10.583 7.705h-44.365l3.951-18.514 7.026-6.745h9.031l-5.304 20.349 7.789-4.629 1.974-10.527 5.195-5.193h10.837l-5.307 20.349 7.339-4.911 2.088-8.693 6.772-6.745h8.073z"/><path d="m364.797 61.863 7.789-7.705h33.416s2.877.848 4.516-2.793c1.495-3.388-1.411-3.388-1.411-3.388h-15.522s-4.459-1.017-4.486-6.491c-.085-13.461 10.979-16.934 10.979-16.934h32.622l-6.489 6.436h-17.104s-5.447 1.553-5.561 6.097c-.084 2.06 2.455 1.637 2.455 1.637h13.941s8.071 1.354 6.209 10.047c-2.428 11.431-10.838 13.095-10.838 13.095h-50.516z"/><path d="m338.269 61.863h13.94l4.233-16.029c.509-1.863 5.419-3.979 4.121-3.754-1.271.226 4.459-.848 4.459-.848s1.806.508 2.709 1.75c.933 1.213-.903 3.021-1.157 4.432-.254 1.41 1.553 1.552 1.553 1.552h7.789s4.178-1.552 5.307-3.104c1.102-1.58 2.482-3.217 2.482-4.6s-3.076-3.104-3.076-3.104l-3.133-1.524h-23.283s-11.146 6.379-12.444 7.705c-.454.393-3.5 17.524-3.5 17.524z"/><path d="m175.313 44.168c-1.072 1.24-4.571 12.135-3.81 13.912.79 1.723 5.108 3.781 5.108 3.781h22.69s10.583-6.632 11.401-7.563c.79-.959 3.782-11.543 3.782-12.645 0-1.101-2.54-5.052-2.54-5.052h-26.529c.002.003-8.999 6.325-10.102 7.567zm17.696-2.512h6.971s-.79 8.383-2.539 10.752c-1.778 2.371-5.701 4.432-5.701 4.432s-4.402.452-5.023 0c-.649-.508-.17-5.053-.17-5.053s.593-4.909 1.411-6.35c.791-1.41 5.051-3.781 5.051-3.781z"/><path d="m259.924 44.168c-1.073 1.24-4.572 12.135-3.782 13.912.79 1.723 5.08 3.781 5.08 3.781h31.58s1.045-5.022 2.343-10.104c1.241-4.77 2.709-12.105 2.709-12.645 0-1.129 7.846-11.033 7.846-11.033h-13.716l-6.941 8.521h-15.015c.029.004-8.974 6.326-10.104 7.568zm17.695-2.512h6.942s-.763 8.383-2.54 10.752c-1.723 2.371-5.673 4.432-5.673 4.432s-4.402.452-5.052 0c-.593-.508-.169-5.053-.169-5.053s.593-4.909 1.439-6.35c.791-1.41 5.053-3.781 5.053-3.781z"/><path d="m211.101 61.863 7.168-25.26h30.311s4.008.424 5.362 2.682c1.411 2.259.96 6.152.96 6.152l-4.121 16.426h-12.644s1.468-8.043 2.879-13.886c1.411-5.842-2.54-6.321-2.54-6.321h-7.563l-4.346 15.154s-3.782 4.403-5.362 5.053z"/><path d="m522.162 61.863 8.044-25.26h30.311s3.979.424 5.391 2.682c1.412 2.259.96 6.152.96 6.152l-4.262 16.426h-13.857s2.314-6.772 3.782-12.645c1.411-5.813-2.061-7.563-2.061-7.563h-7.592l-4.233 15.154s-3.499 4.403-5.051 5.053h-11.432z"/><path d="m301.607 44.168c-1.102 1.24-4.544 12.135-3.781 13.912.762 1.723 5.051 3.781 5.051 3.781h22.72s4.516-2.822 7.874-5.052c0 0-19.305.142-20.489 0-.536-.056-.338-2.397-.282-3.78h15.522s2.991-.649 7.45-4.348c4.516-3.695 5.08-4.092 5.08-7.027 0-2.905-2.541-5.052-2.541-5.052h-26.527c.055.002-8.975 6.324-10.077 7.566zm17.725-2.512h10.188s-1.129 3.867-6.688 6.321h-8.494c-.819-2.2 1.185-3.95 2.313-4.911 1.185-1.072 2.681-1.41 2.681-1.41z"/><path d="m505.737 61.863s4.29-13.574 5.646-17.922c.677-2.369-.903-2.285-3.896-2.285s-5.165.648-9.313 7.563c-4.854 8.072 7.168 10.273 7.168 10.273l-.848 2.369h-13.884s-7.592.312-7.592-8.832c0-11.232 14.365-16.427 14.365-16.427h30.338l-8.071 25.259h-13.913z"/></g><path d="m72.559 23.369c.705-.028 1.439-.058 2.173-.058 15.805 0 29.352 15.324 30.367 23.113.112.819.169 1.553.226 2.174-.198-21.278-33.359-48.598-60-48.598-20.547 0-30.141 8.297-33.303 17.667-4.741 11.825 1.496 28.646 16.059 40.61 1.552 1.242 3.076 2.399 4.656 3.473-.678.057-1.411.057-2.145.057-15.805 0-29.352-15.324-30.367-23.113-.084-.819-.168-1.553-.225-2.174.197 21.279 33.358 48.598 60 48.598 20.545 0 30.141-8.324 33.302-17.666 4.741-11.797-1.496-28.616-16.059-40.611-1.553-1.243-3.076-2.4-4.684-3.472zm-29.663 35.334c-11.74-9.625-15.635-23.765-9.06-31.808 6.632-8.043 21.59-7.112 33.612 2.259 11.91 9.256 16.481 23.367 10.386 31.777 2.483-5.052-.282-12.645-6.83-17.809-7.026-5.531-15.86-6.096-19.755-1.326-3.923 4.77-1.58 13.18 5.306 18.908 5.334 4.432 11.797 5.982 16.425 4.375-7.816 4.15-20.149 1.78-30.084-6.376z" fill="#fff"/></g><g fill="#fff" transform="matrix(.99999583 0 0 .99999577 466.85264 -386.43178)"><path d="m298.8 390.76c-4.492-1.324-9.556 5.023-13.879 14.71-3.851 16.146-12.414 39.95-12.965 56.376-.25 7.29 6.479 9.426 11.051 11.04 14.47 5.104 22.933.11 27.243-5.104 3.1-3.74-.179-6.859-4.02-5.715-5.556 1.643-12.344 2.758-13.747-2.608-1.544-5.915 6.688-30.224 12.373-48.324 3.11-9.89 5.74-18.09-6.05-20.39z"/><path d="m223.82 419.4c-9.796 1.013-29.261 6.196-29.261 31.376 0 1.185-3.55 28.43 31.587 25.271 35.148-3.159 41.064-25.271 41.064-25.271s8.693-29.22-12.636-28.428c-13.016.481-18.952 6.317-18.952 6.317s8.684 1.705 10.559 7.941c3.56 11.823 2.247 31.77-16.876 29.963-19.192-1.813-9.817-27.166-3.77-40.021 2.09-4.42 1.58-7.49-1.71-7.15z"/><path d="m340.69 419.4c-9.797 1.013-29.262 6.196-29.262 31.376 0 1.185-3.549 28.43 31.587 25.271 35.147-3.159 41.065-25.271 41.065-25.271s8.692-29.22-12.636-28.428c-13.016.481-18.951 6.317-18.951 6.317s8.682 1.705 10.557 7.941c3.561 11.823 2.247 31.77-16.876 29.963-19.193-1.813-9.818-27.166-3.771-40.021 2.09-4.42 1.58-7.49-1.71-7.15z"/><path d="m109.27 438.14c-1.574-31.197 41.515-45.195 56.858-46.379 15.353-1.194 31.588 2.155 31.588 2.155s-2.367 30.796-9.477 31.588c-7.099.792-5.525-23.296-18.953-22.111-24.588 2.166-34.455 28.97-34.747 37.904-.129 4.321 1.194 23.685 18.953 22.111 17.769-1.586 21.72-11.061 25.27-12.636 3.559-1.585 10.368-4.703 9.476 3.159-1.965 17.367-34.746 22.111-34.746 22.111s-42.17 2.33-44.22-37.9z"/><path d="m399.88 472.89c-15.004.792-6.711-17.378-3.159-28.429 3.559-11.062 2.907-23.184 15.793-22.11 14.249 1.174 3.158 18.952 3.158 18.952s21.641-23.735 41.063-22.11c4.743.39-9.477 31.586-9.477 31.586s-3.551-11.451-12.634-9.475c-26.11 5.68-19.74 30.8-34.74 31.59z"/></g></svg>