<svg version="1.1" viewBox="0 0 262.41 147.84" xmlns="http://www.w3.org/2000/svg"><g transform="translate(-102.32 -102.32)"><path class="st0" d="m293.91 212.77c-6.0252 0-10.926-4.9046-10.926-10.93s4.9011-10.926 10.926-10.926c6.0254 0 10.926 4.901 10.926 10.926s-4.9009 10.93-10.926 10.93m-120.77 0c-6.0254 0-10.926-4.9046-10.926-10.93s4.9009-10.926 10.926-10.926c6.0252 0 10.926 4.901 10.926 10.926s-4.9011 10.93-10.926 10.93m124.69-65.82 21.838-37.822c1.252-2.1739.50714-4.9507-1.6632-6.2061-2.1704-1.2519-4.9507-.50713-6.2061 1.6632l-22.111 38.301c-16.909-7.7168-35.9-12.015-56.164-12.015-20.264 0-39.254 4.2982-56.163 12.015l-22.111-38.301c-1.2554-2.1704-4.0358-2.9151-6.2061-1.6632-2.1704 1.2554-2.9186 4.0322-1.6632 6.2061l21.838 37.822c-37.499 20.395-63.146 58.359-66.898 103.21h262.41c-3.7554-44.851-29.403-82.814-66.898-103.21" fill="#3ddb85"/><rect class="st1" width="467.05" height="250.16" fill="none"/></g></svg>
