<?xml version="1.0"?>
<svg xmlns="http://www.w3.org/2000/svg" id="OutLine" viewBox="0 0 512 512" width="512" height="512" fill="#fff"><path d="M349.657,18.343A8,8,0,0,0,344,16H120A56.063,56.063,0,0,0,64,72V440a56.063,56.063,0,0,0,56,56H392a56.063,56.063,0,0,0,56-56V120a8,8,0,0,0-2.343-5.657ZM352,43.313,420.687,112H392a40.045,40.045,0,0,1-40-40ZM120,32H336V72a56.063,56.063,0,0,0,56,56h40V352H80V72A40.045,40.045,0,0,1,120,32ZM392,480H120a40.045,40.045,0,0,1-40-40V368H432v72A40.045,40.045,0,0,1,392,480Z"/><path d="M208,384H176a8,8,0,0,0,0,16h8v56a8,8,0,0,0,16,0V400h8a8,8,0,0,0,0-16Z"/><path d="M336,384H304a8,8,0,0,0,0,16h8v56a8,8,0,0,0,16,0V400h8a8,8,0,0,0,0-16Z"/><path d="M275.578,384.845a8,8,0,0,0-10.733,3.577L256,406.112l-8.845-17.69a8,8,0,0,0-14.31,7.156L247.056,424l-14.211,28.422a8,8,0,1,0,14.31,7.156L256,441.888l8.845,17.69a8,8,0,1,0,14.31-7.156L264.944,424l14.211-28.422A8,8,0,0,0,275.578,384.845Z"/><path d="M136,208H376a8,8,0,0,0,0-16H136a8,8,0,0,0,0,16Z"/><path d="M136,240H376a8,8,0,0,0,0-16H136a8,8,0,0,0,0,16Z"/><path d="M136,272H376a8,8,0,0,0,0-16H136a8,8,0,0,0,0,16Z"/><path d="M136,176H376a8,8,0,0,0,0-16H136a8,8,0,0,0,0,16Z"/><path d="M136,304H328a8,8,0,0,0,0-16H136a8,8,0,0,0,0,16Z"/><path d="M136,144h72a8,8,0,0,0,0-16H136a8,8,0,0,0,0,16Z"/></svg>
