<?xml version="1.0" encoding="UTF-8" standalone="no"?>
<svg xmlns:rdf="http://www.w3.org/1999/02/22-rdf-syntax-ns#" xmlns="http://www.w3.org/2000/svg" height="89.2" width="315.79" version="1.1" xmlns:cc="http://creativecommons.org/ns#" xmlns:dc="http://purl.org/dc/elements/1.1/" viewBox="0 0 315.79001 89.199995">
	<g transform="translate(-41.795 -71.524)">
		<g fill="#333">
			<path d="m61.795 137.12c.96 0 1.2-.32 1.28-1.2l1.12-14.72c1.6.48 3.44.72 5.84.72 15.44 0 21.84-11.68 21.84-24.16 0-11.44-5.44-18.24-19.2-18.24-4.72 0-12.88.8-18.4.8-.56 0-1.2.4-1.2 1.2-.08 4.8-.08 6.48-1.68 25.44-.88 10.24-1.6 20.32-1.6 23.04 0 4.64 2.32 7.12 8.32 7.12h3.68zm9.28-45.6c5.44 0 7.2 2.48 7.2 7.04 0 4.08-1.36 12.16-8.8 12.16-1.28 0-2.88-.16-4.48-.56.48-6.96.88-13.76 1.04-18.24 1.92-.24 3.68-.4 5.04-.4z"/>
			<path d="m114.51 137.92c7.12 0 15.68-2.48 15.68-8.72 0-4.8-5.04-5.68-6.08-5.68-2.24 0-2.16 4.4-7.76 4.4-5.44 0-7.6-4.08-7.6-8.16 5.2 0 25.04-.8 25.04-15.44 0-6.56-3.92-12-15.04-12-20.64 0-23.76 18.8-23.76 26.88 0 14.56 10.24 18.72 19.52 18.72zm1.52-34.96c2.72 0 4.08 2 4.08 4.16 0 3.92-4.56 6.16-11.12 6.24.56-4.56 2.32-10.4 7.04-10.4z"/>
			<path d="m164.69 127.68c0 9.6-2.48 15.04-9.52 15.04-8.08 0-6.48-5.2-10.16-5.2-3.04 0-6.96 1.84-6.96 5.92 0 4.48 5.68 9.28 16.88 9.28 14.96 0 20.08-7.04 21.6-14.24 2.32-10.88 3.52-34.4 3.52-37.12 0-6.4-2.4-8.24-7.92-8.24h-3.68c-.64 0-.96.16-1.04.8s-.24 5.12-.32 4.96c-1.12-3.68-3.92-6.56-10.24-6.56-15.28 0-18.96 14.08-18.96 24.32 0 12.56 5.92 18.08 14.72 18.08 5.68 0 9.44-2.32 12.08-7.04zm-6.72-3.6c-4.32 0-6-2.64-6-7.92 0-3.2.64-13.2 8.48-13.2 3.92 0 5.92 2.48 5.92 8.88 0 4-.8 12.24-8.4 12.24z"/>
			<path d="m184.72 127.28c0 7.76 5.2 10.64 11.6 10.64 6.64 0 10.48-3.28 13.04-6.96.8 4.32 3.2 6.96 8.32 6.96 7.36 0 9.6-5.68 9.6-10.4 0-1.68-4.72.08-4.72-5.28 0-2.4 1.36-13.44 1.36-15.84 0-8.96-5.04-14.08-16.88-14.08-12.24 0-18.32 5.44-18.32 12.16 0 4.24 2.72 6.16 8.16 6.16 1.6 0 2.24-.16 2.48-1.12.96-3.84 1.68-6.48 6.16-6.48 4 0 4.96 2.16 4.96 5.6 0 1.12-.08 1.84-.16 2.96-16.72.4-25.6 6.16-25.6 15.68zm24.88-9.12c-.48 6.08-4 9.12-7.44 9.12-1.76 0-3.68-.8-3.68-3.28 0-4.24 5.52-5.84 11.12-5.84z"/>
			<path d="m250.76 92.324c-8.8 0-18.32 3.84-18.32 14.8 0 14.88 17.52 12.24 17.52 18.32 0 2.24-2.48 2.64-5.12 2.64-7.04 0-7.92-2.96-10.56-2.96-3.12 0-4.64 4.24-4.64 6.08 0 5.04 10.96 6.72 16.96 6.72 10.8 0 16.32-5.44 16.32-13.12 0-14.32-19.04-11.84-19.04-18.48 0-2.16 2-3.76 4.96-3.76 4.4 0 4.56 3.44 4.64 5.36 0 .88.4 1.12 1.92 1.12 5.52 0 8.56-2.56 8.56-7.2 0-5.52-4.24-9.52-13.2-9.52z"/>
			<path d="m285.06 99.924c0-4.24-1.6-6.8-8.24-6.8h-2.56c-1.52 0-2.08.56-2.24 2.48-.4 3.68-2 25.52-2 29.68 0 7.04 4.72 12.64 12.88 12.64 4.24 0 9.12-1.76 12.32-7.36.24 3.44 1.92 6.56 8.32 6.56h3.12c1.52 0 1.52-.08 1.68-2.32 1.68-23.52 2.4-30.8 2.4-34.08 0-4.88-1.6-7.6-8.16-7.6h-2.88c-1.2 0-1.68.72-1.76 1.6-.96 10-.64 32.48-9.28 32.48-3.28 0-5.28-2.24-5.28-5.92 0-3.36 1.68-16.96 1.68-21.36z"/>
			<path d="m336.38 92.324c-8.8 0-18.32 3.84-18.32 14.8 0 14.88 17.52 12.24 17.52 18.32 0 2.24-2.48 2.64-5.12 2.64-7.04 0-7.92-2.96-10.56-2.96-3.12 0-4.64 4.24-4.64 6.08 0 5.04 10.96 6.72 16.96 6.72 10.8 0 16.32-5.44 16.32-13.12 0-14.32-19.04-11.84-19.04-18.48 0-2.16 2-3.76 4.96-3.76 4.4 0 4.56 3.44 4.64 5.36 0 .88.4 1.12 1.92 1.12 5.52 0 8.56-2.56 8.56-7.2 0-5.52-4.24-9.52-13.2-9.52z"/>
		</g>
	</g>
</svg>
