<?xml version="1.0" encoding="UTF-8"?>
<svg width="293.14" height="251.87" version="1.1" viewBox="0 0 77.559 66.64" xmlns="http://www.w3.org/2000/svg"><g transform="translate(-43.374 -14.415)"><path d="m115.46 14.714-12.42 2.867-19.43 4.4829-14.351-3.3112v6.6241l-25.622 5.9121v11.864l25.622-5.9138 7.9185-1.8267c-.06555-.37608-.09851-.75712-.09851-1.1389.000517-3.662 2.969-6.6305 6.631-6.631 2.9536.000716 5.5507 1.9546 6.3701 4.7922l18.243-4.2098 11.549-2.6648c-.069-.40355-.14559-.80626-.22985-1.208-.34073-1.3288-.76524-2.6433-1.2719-3.9385-.50615-1.2955-1.0939-2.5702-1.761-3.8193-.36267-.63443-.74588-1.2614-1.1492-1.8803zm5.1984 17.584-12.025 2.7754c-.56604 4.7493-2.7267 9.3225-6.2871 13.314-4.5742 5.1381-11.072 9.4544-18.754 11.235l-14.333 3.3216-25.622 5.9138v11.864l25.622-5.9138v5.9138h14.333v-9.2233c16.089-3.7139 29.349-13.661 34.605-26.768 1.6162-3.9747 2.4493-8.1241 2.4696-12.299-.002-.04413-.007-.08857-.007-.13307zm-51.399 11.862-25.622 5.9138v11.862l25.622-5.9121z" fill="none" stroke="#555" stroke-width=".52917"/></g></svg>
