<?xml version="1.0" encoding="UTF-8"?>
<svg width="187.16" height="187.16" color-interpolation="auto" color-rendering="auto" fill="#eeeeee" font-family="Dialog" font-size="12px" image-rendering="auto" shape-rendering="auto" stroke="#eeeeee" stroke-linecap="square" stroke-miterlimit="10" text-rendering="auto" version="1.1" xmlns="http://www.w3.org/2000/svg"><g transform="translate(-14.422 -202.72)"><path d="m108 206.72q36.984 0 63.281 26.297 26.297 26.297 26.297 63.281 0 37.125-26.226 63.352-26.227 26.227-63.352 26.227-36.984 0-63.281-26.297-26.297-26.297-26.297-63.281 0-36.984 26.297-63.281 26.297-26.297 63.281-26.297zm31.641 79.453q4.7813 0 8.1563-3.375t3.375-8.1563q0-4.6406-3.375-8.0156t-8.1563-3.375q-4.6406 0-8.0859 3.375t-3.4453 8.0156q0 4.7813 3.4453 8.1563t8.0859 3.375zm-63.281 0q4.6406 0 8.0859-3.375t3.4453-8.1563q0-4.6406-3.4453-8.0156t-8.0859-3.375q-4.7813 0-8.1563 3.375t-3.375 8.0156q0 4.7813 3.375 8.1563t8.1563 3.375zm75.375 34.594-6.3282-3.6562q-5.9062 9.5625-16.102 14.836-10.195 5.2735-21.305 5.2735t-21.305-5.2735q-10.195-5.2734-16.102-14.836l-6.3282 3.6562q14.906 28.547 43.734 28.547t43.734-28.547z" stroke="none"/></g></svg>
