<?xml version="1.0" encoding="UTF-8" standalone="no"?>
<svg xmlns:rdf="http://www.w3.org/1999/02/22-rdf-syntax-ns#" xmlns="http://www.w3.org/2000/svg" height="156.28" width="163.22" version="1.1" xmlns:cc="http://creativecommons.org/ns#" xmlns:dc="http://purl.org/dc/elements/1.1/" viewBox="0 0 163.22276 156.27767">
	<g transform="translate(-263.36 -342.32)">
		<path stroke-linejoin="round" stroke="#ccc" stroke-linecap="round" stroke-width="2" fill="#ccc" d="m344.97 351.32c5.0774 0 20.46 39.467 24.568 42.451 4.1077 2.9844 46.397 5.4186 47.966 10.248 1.569 4.8289-31.213 31.655-32.782 36.484-1.569 4.8289 9.1839 45.8 5.0762 48.785-4.1077 2.9844-39.751-19.903-44.828-19.903-5.0774 0-40.721 22.887-44.828 19.903-4.1077-2.9844 6.6452-43.956 5.0762-48.785-1.569-4.8289-34.351-31.655-32.782-36.484 1.569-4.8289 43.858-7.2631 47.966-10.248 4.1077-2.9844 19.491-42.451 24.568-42.451z"/>
	</g>
</svg>
