<?xml version="1.0" encoding="UTF-8" standalone="no"?>
<svg xmlns:rdf="http://www.w3.org/1999/02/22-rdf-syntax-ns#" xmlns="http://www.w3.org/2000/svg" height="114.28mm" width="188.12mm" version="1.1" xmlns:cc="http://creativecommons.org/ns#" xmlns:dc="http://purl.org/dc/elements/1.1/" viewBox="0 0 666.55123 404.94397">
	<g stroke="#aaa" transform="translate(-19.836 -78.798)" fill="none">
		<path stroke-linejoin="round" d="m673.04 249.07c-15.4-57.14-45.622-116.63-92.966-155.46-27.444-20.126-60.928-17.454-83.724 2.6764-21.115 18.646-33.91 32.819-33.91 32.819-58.202 21.709-109.08 22.628-109.08 22.628s-50.878-.91918-109.08-22.628c0 0-12.795-14.174-33.91-32.82-22.796-20.13-56.28-22.802-83.724-2.6764-47.349 38.822-78.202 98.192-93.603 155.33" stroke-linecap="round" stroke-width="2"/>
		<path d="m671.04 241.19s-12.233-49.855-42.426-83.955c-20.132-22.737-45.225-34.856-82.832-36.149-45.981 1.3275-65.376 20.389-83.079 25.917-58.465 21.81-109.34 22.729-109.34 22.729s-50.878-.91918-109.73-23.108c-18.09-5.91-36.72-24.22-82.71-25.55-37.607 1.2933-62.7 13.411-82.833 36.149-30.193 34.1-42.426 83.955-42.426 83.955" stroke-width="0.3"/>
		<path stroke-linejoin="round" d="m211.86 408.88c-38.177 16.239-75.384 75.152-121.15 73.838-42.022-1.2062-53.37-34.883-63.64-81.93-13.692-62.73-4.1855-146.3 22.728-191.42 17.173-28.789 58.589-54.548 102.53-57.074 28.31-1.627 69.323 4.5908 92.934 14.142 54.875 22.199 107.58 19.749 107.58 19.749s53.229 2.4498 108.1-19.749c23.611-9.5513 64.624-15.769 92.934-14.142 43.942 2.5254 85.358 28.284 102.53 57.074 26.914 45.12 36.421 128.69 22.728 191.42-10.269 47.047-21.617 80.724-63.64 81.93-45.763 1.3136-82.97-57.599-121.15-73.838-48.742-20.734-141.51-22.028-141.51-22.028s-92.246 1.2944-140.99 22.028z" stroke-linecap="round" stroke-width="2.0001"/>
	</g>
</svg>
