<?xml version="1.0" encoding="UTF-8" standalone="no"?>
<svg xmlns:rdf="http://www.w3.org/1999/02/22-rdf-syntax-ns#" xmlns="http://www.w3.org/2000/svg" height="14.676mm" width="14.676mm" version="1.1" xmlns:cc="http://creativecommons.org/ns#" xmlns:dc="http://purl.org/dc/elements/1.1/" viewBox="0 0 51.999999 51.999999">
	<g transform="translate(8.8571 -214.93)">
		<g transform="translate(-281.08 68.711)">
			<path fill="#333" d="m306.92 186.08q-.68-1.8-1.28-3.52-.6-1.76-1.24-3.56h-12.56l-2.52 7.08h-4.04q1.6-4.4 3-8.12 1.4-3.76 2.72-7.12 1.36-3.36 2.68-6.4 1.32-3.08 2.76-6.08h3.56q1.44 3 2.76 6.08 1.32 3.04 2.64 6.4 1.36 3.36 2.76 7.12 1.4 3.72 3 8.12h-4.24zm-3.64-10.28q-1.28-3.48-2.56-6.72-1.24-3.28-2.6-6.28-1.4 3-2.68 6.28-1.24 3.24-2.48 6.72h10.32z"/>
			<circle stroke-linejoin="round" stroke-width="2" stroke-linecap="round" stroke="#333" cy="172.22" cx="298.22" r="25" fill="none"/>
		</g>
	</g>
</svg>
