<?xml version="1.0" encoding="UTF-8" standalone="no"?>
<svg xmlns:rdf="http://www.w3.org/1999/02/22-rdf-syntax-ns#" xmlns="http://www.w3.org/2000/svg" height="14.676mm" width="14.676mm" version="1.1" xmlns:cc="http://creativecommons.org/ns#" xmlns:dc="http://purl.org/dc/elements/1.1/" viewBox="0 0 51.999999 51.999999">
	<g transform="translate(6 -383.51)">
		<g transform="translate(-345.5 237.28)">
			<path fill="#333" d="m363.86 186.34q-.84001 0-1.84-.04-.96-.04-1.96-.12-.96-.08-1.92-.2t-1.76-.32v-26.88q.8-.2 1.76-.32t1.92-.2q1-.08 1.96-.12t1.8-.04q2.4 0 4.48.36 2.12.36 3.64 1.24 1.56.84 2.44 2.24t.88 3.44q0 2.28-1.08 3.76-1.08 1.44-2.88 2.16 2.44.72 3.88 2.28t1.44 4.4q0 4.16-3.08 6.28-3.04 2.08-9.68 2.08zm-3.64-13.16v9.76q.44.04 1.04.08.52.04 1.2.08.72 0 1.64 0 1.72 0 3.24-.2 1.56-.24 2.72-.8t1.84-1.56q.72-1 .72-2.52 0-1.36-.52-2.28-.52-.96-1.52-1.52-.96-.56-2.32-.8t-3.04-.24h-5zm0-3.12h4.08q1.44 0 2.72-.2t2.2-.72q.96-.52 1.48-1.36.56-.84.56-2.12 0-1.2-.56-2-.56-.84-1.56-1.32-.96-.52-2.28-.76t-2.8-.24-2.32.04-1.52.12v8.56z"/>
			<circle stroke-linejoin="round" cx="365.5" stroke-linecap="round" stroke="#333" cy="172.22" r="25" stroke-width="2" fill="none"/>
		</g>
	</g>
</svg>
