<?xml version="1.0" encoding="UTF-8" standalone="no"?>
<svg xmlns:rdf="http://www.w3.org/1999/02/22-rdf-syntax-ns#" xmlns="http://www.w3.org/2000/svg" height="17.216mm" width="17.216mm" version="1.1" xmlns:cc="http://creativecommons.org/ns#" xmlns:dc="http://purl.org/dc/elements/1.1/" viewBox="0 0 60.999999 60.999998">
	<g transform="translate(-418.07 -99.005)">
		<g stroke="#333" transform="translate(523.57 -422.86)" fill="none">
			<circle stroke-width="2" cy="552.36" cx="-75" r="30"/>
			<path stroke-linejoin="round" d="m-75 522.36a30 30 0 0 0 -10 1.75v18.25h-18.246a30 30 0 0 0 -1.7539 10 30 30 0 0 0 1.75 10h18.25v18.246a30 30 0 0 0 10 1.7539 30 30 0 0 0 10 -1.748v-18.252h18.246a30 30 0 0 0 1.7539 -10 30 30 0 0 0 -1.75 -10h-18.25v-18.246a30 30 0 0 0 -10 -1.7539z"/>
			<g stroke-linejoin="round" stroke-linecap="round" stroke-width="0.5">
				<path d="m-75 524.36-8 4h16z"/>
				<path d="m-75 580.36-8-4h16z" stroke-opacity=".94118"/>
				<path d="m-47 552.36-4-8v16z"/>
				<path d="m-103 552.36 4-8v16z" stroke-opacity=".94118"/>
			</g>
		</g>
	</g>
</svg>
