<svg enable-background="new 0 0 566.929 92.934" height="92.934" viewBox="0 0 566.929 92.934" width="566.929" xmlns="http://www.w3.org/2000/svg"><g fill="#fff"><g><path d="m162.729 4.833c3.574-4.573 10.968-5.352 15.352-1.52 1.792 1.51 3.048 3.595 3.689 5.837 8.115 27.924 16.267 55.834 24.372 83.76-4.791.003-9.582-.006-14.371.003-2.258-7.694-4.463-15.41-6.693-23.114-9.26-.027-18.519-.008-27.777-.011-2.269 7.701-4.505 15.411-6.733 23.13-4.763-.019-9.525-.008-14.29-.011 7.71-26.636 15.428-53.272 23.175-79.901.921-2.785 1.265-5.899 3.276-8.173m8.454 17.11c-3.396 11.568-6.723 23.16-10.098 34.734 6.73.03 13.458.011 20.186.011-3.368-11.581-6.72-23.163-10.088-34.745z"/><path d="m263.614 5.434c2.495-3.62 7.32-5.379 11.567-4.261 3.89.897 6.865 4.248 7.893 8.021 8.106 27.905 16.241 55.796 24.346 83.694-4.794.043-9.589 0-14.384.021-2.228-7.704-4.435-15.421-6.681-23.122-9.245.003-18.489-.02-27.733.006-2.21 7.713-4.487 15.405-6.698 23.113-4.759.003-9.517 0-14.274.003 7.704-26.78 15.501-53.539 23.268-80.303.815-2.419 1.128-5.083 2.696-7.172m-1.166 51.254c6.702.009 13.401.003 20.102.003-3.332-11.604-6.719-23.193-10.045-34.8-3.347 11.6-6.728 23.192-10.057 34.797z"/><path d="m195.418 1.034h51.97v14.018c-6.378.005-12.755-.007-19.131.005 0 25.952.004 51.902-.003 77.854-4.566 0-9.139 0-13.706 0 0-25.951-.004-51.901.004-77.854-6.379-.012-12.755 0-19.133-.005-.001-4.673-.004-9.344-.001-14.018z"/><path d="m322.652 1.604c1.316-.455 2.721-.61 4.111-.577 5.462.021 10.923.003 16.388.007 9.198.168 17.979 5.88 21.961 14.159 2.756 5.377 3.041 11.631 2.345 17.53-.476 6.176-3.069 12.349-7.814 16.44-2.508 2.238-5.632 3.592-8.314 5.578-1.474 1.126-1.544 3.302-.785 4.861 7.25 11.194 14.789 22.207 22.188 33.307-5.412.011-10.825-.014-16.238.011-7.088-10.645-14.101-21.344-21.16-32-2.075-3.031-2.637-7.051-1.396-10.516.969-2.654 3.292-4.599 5.876-5.599 4.935-1.882 9.798-4.842 12.533-9.498 2.077-3.503 1.973-7.818 1.039-11.649-1.098-4.972-5.943-8.888-11.061-8.714-3.542.024-7.079-.021-10.614.016-1.6-.037-3.106 1.353-3.086 2.979-.018 24.99.009 49.985-.006 74.979-4.603-.008-9.203 0-13.807-.008-.01-26.902.007-53.814-.01-80.717.023-4.718 3.378-9.156 7.85-10.589z"/><path d="m379.969 1.034h14.528c-.005 30.63.004 61.251-.009 91.876-4.838-.011-9.678 0-14.52-.003.001-30.625.001-61.246.001-91.873z"/></g><g><path d="m40.963.865c2.326-.007 4.651 0 6.981-.004.008 5.47 0 10.942.003 16.41.022 4.567-.106 9.131-.295 13.694-.312 6.586-.725 13.188-1.814 19.696-.75 4.488-2.305 8.821-4.229 12.932-3.142 6.622-8.081 12.226-13.632 16.938-4.964 4.372-10.892 7.555-17.126 9.703-3.527 1.221-7.157 2.152-10.851 2.676.003-4.588.003-9.179 0-13.765 4.449-.67 8.726-2.249 12.696-4.337 4.712-2.492 8.954-5.841 12.526-9.794 3.688-4.077 6.626-8.801 8.856-13.814 2.627-5.763 4.033-11.994 4.989-18.229 1.198-7.927 1.697-15.951 1.882-23.958.03-2.714.007-5.43.014-8.148z"/><path d="m50.75.875c4.283-.028 8.565-.003 12.85-.01.001 30.68.001 61.364 0 92.042-4.274.011-8.547-.019-12.82.021-.052-9.781-.007-19.571-.022-29.351-.006-20.899.008-41.799-.008-62.702z"/><path d="m66.458.865c2.315-.004 4.627-.007 6.939 0-.076 9.355.244 18.73 1.358 28.021.913 7.22 2.201 14.494 5.076 21.218 2.725 6.505 6.654 12.553 11.774 17.431 4.892 4.663 10.814 8.248 17.252 10.309 1.796.571 3.632 1.021 5.501 1.299-.001 4.586-.004 9.171 0 13.757-3.669-.499-7.267-1.446-10.769-2.636-4.169-1.449-8.202-3.329-11.907-5.742-2.704-1.733-5.163-3.816-7.524-5.987-3.894-3.593-7.377-7.67-9.996-12.294-2.046-3.598-3.54-7.486-4.711-11.448-1.073-3.983-1.528-8.107-1.945-12.201-.805-8.856-1.106-17.753-1.05-26.64.002-5.029 0-10.057.002-15.087z"/><path d="m50.75.875c.015 20.902.003 41.803.008 62.7.014 9.78-.032 19.567.022 29.352 4.273-.039 8.547-.01 12.82-.021.001-30.678.001-61.361 0-92.045-4.283.011-8.566-.013-12.85.014"/><path d="m66.458.865c-.002 5.028 0 10.058 0 15.085-.057 8.884.245 17.783 1.05 26.64.417 4.094.872 8.218 1.945 12.201 1.169 3.962 2.665 7.851 4.711 11.448 2.618 4.624 6.102 8.701 9.996 12.294 2.363 2.174 4.82 4.254 7.524 5.987 3.705 2.413 7.738 4.29 11.907 5.742 3.501 1.189 7.1 2.134 10.769 2.636-.004-4.586-.001-9.171 0-13.757-1.867-.274-3.706-.728-5.501-1.299-6.438-2.061-12.361-5.646-17.252-10.309-5.12-4.872-9.049-10.924-11.774-17.431-2.875-6.724-4.163-13.998-5.076-21.218-1.115-9.291-1.434-18.666-1.358-28.021-2.315-.005-4.628-.002-6.941.002"/></g><g><path d="m432.911 59.248 1.673 1.314c5.853 4.538 12.9 8.242 20.426 8.242 3.225 0 8.361-1.313 8.361-5.377 0-4.061-4.301-4.418-7.286-5.016l-6.571-1.193c-12.78-2.27-23.531-9.797-23.531-23.893-.001-21.38 19.471-33.325 39.061-33.325 10.272 0 19.708 2.508 28.548 7.884l-8.84 23.054c-5.613-3.821-11.943-6.808-18.991-6.808-2.867 0-7.049 1.073-7.049 4.776 0 3.346 4.063 3.823 6.569 4.419l7.407 1.675c13.855 3.104 23.89 10.511 23.89 25.801 0 21.5-19.59 32.133-39.06 32.133-11.35 0-24.488-3.107-34.642-8.243z" fill="#fff"/><path d="m498.126 1.433h68.803v25.267l-18.036.051v64.749h-32.729v-64.75l-18.038-.05z" fill="#fff"/></g></g></svg>