<svg enable-background="new 0 0 566.929 178.654" height="178.654" viewBox="0 0 566.929 178.654" width="566.929" xmlns="http://www.w3.org/2000/svg" xmlns:xlink="http://www.w3.org/1999/xlink"><linearGradient id="a" gradientUnits="userSpaceOnUse" x1="7.3819" x2="561.023" y1="89.3217" y2="89.3217"><stop offset="0" stop-color="#f090a7"/><stop offset=".1495" stop-color="#ef7b75"/><stop offset=".2564" stop-color="#ee6e5e"/><stop offset=".5894" stop-color="#fce72c"/><stop offset=".8131" stop-color="#acdee4"/><stop offset="1" stop-color="#a3ddf2"/></linearGradient><path d="m279.773 91.536v22.885h-64.96c-7.426 0-7.01 7.381 0 7.381h42.814c33.358 0 33.348 49.458 0 49.458-22.392 0-67.174 0-67.174 0v-22.145h64.221c7.687 0 7.166-7.382 0-7.382-13.287 0-39.861 0-39.861 0-34.278 0-34.157-50.197 0-50.197zm149.115 0h76.033c13.646 0 25.805 10.596 25.836 25.1v54.625h-27.313v-47.242c0-7.886-4.689-9.484-10.336-9.597h-36.908v56.839h-27.314v-79.725zm-71.603 22.234c-7.258.043-10.336 4.6-10.336 10.246v14.764c0 6.133 5.273 10.334 10.336 10.334h30.266c3.59 0 9.598-2.43 9.598-10.334v-14.764c0-4.968-3.021-10.463-9.598-10.427zm-10.336-22.234h50.936c16.17 0 26.574 11.012 26.574 24.359v29.525c0 20.938-18.09 25.838-26.574 25.838h-50.936c-19.133 0-27.313-15.396-27.313-25.838v-29.525c0-17.002 15.215-24.359 27.313-24.359zm-59.793 0h27.313v79.724h-27.313zm-131.399 0h27.313v79.724h-27.313zm-124.016 0h30.266l29.527 51.673 34.695-51.673h25.099l-47.244 79.726h-24.815zm243.604-84.154h86.367v19.932h-59.793v7.382h59.793v19.932h-59.793c0 7.327 5.384 10.334 11.072 10.334h48.721v21.407h-62.746c-14.059 0-23.724-11.67-23.691-24.359zm-69.391 0h26.575v47.244c0 6.786 5.115 10.404 11.073 10.334h28.79v21.407h-41.339c-11.737 0-25.098-5.275-25.098-24.359zm245.081-.001h-59.795c-17.203 0-24.32 15.824-24.359 24.359v29.527c0 19.149 15.754 25.948 24.359 25.837h59.795v-22.145h-45.77c-3.258 0-11.072-2.411-11.072-9.597v-15.501c0-7.384 5.559-10.335 11.072-10.335h45.77zm42.814 22.235c-7.258.042-10.336 4.6-10.336 10.245v14.765c0 6.133 5.273 10.334 10.336 10.334h30.266c3.59 0 9.598-2.431 9.598-10.334v-14.763c0-4.965-3.025-10.463-9.598-10.424zm-10.336-22.234h50.938c16.166 0 26.572 11.012 26.572 24.359v29.527c0 20.938-18.09 25.837-26.572 25.837h-50.938c-19.131 0-27.313-15.395-27.313-25.837v-29.527c.001-17.001 15.216-24.359 27.313-24.359zm-349.902 22.234c-7.257.043-10.334 4.6-10.334 10.246v14.765c0 6.133 5.273 10.334 10.334 10.334h30.266c3.588 0 9.596-2.431 9.596-10.334v-14.764c0-4.965-3.025-10.463-9.596-10.424zm-10.334-22.234h50.935c16.167 0 26.576 11.012 26.576 24.359v29.527c0 20.938-18.091 25.837-26.576 25.837h-50.935c-19.132 0-26.575-15.395-26.575-25.837v-29.527c0-17.001 14.477-24.359 26.575-24.359zm-31.742 0h-59.793c-17.204 0-24.321 15.824-24.36 24.359v29.527c0 19.149 15.753 25.948 24.36 25.837h59.793v-22.144h-46.506c-3.256 0-11.073-2.412-11.073-9.597v-15.501c0-7.384 5.559-10.335 11.073-10.335h46.506z" fill="url(#a)"/></svg>