<svg enable-background="new 0 0 566.929 98.574" height="98.573" viewBox="0 0 566.93504 98.572795" width="566.94" xmlns="http://www.w3.org/2000/svg"><g fill="#fff" transform="translate(.0055519 -.00064086)"><path d="m542.31.917h24.62l-34.71 53.996-5.63 42.128h-22.25l6.52-48.068-22.25-48.056h24.03l11.87 27.298z"/><path d="m283.03 59.066h29.36l2.97-21.36h-29.07l2.08-15.43h33.81l3.27-21.359h-56.07l-13.35 96.124h55.77l2.97-21.37h-33.82z"/><path d="m112.15 49.565 7.416-19.874 2.375 19.874h-9.79zm-8.01 18.987h20.172l3.563 28.48h36.488l16.91-52.213 8.309 52.213h19.283l21.359-55.179 3.561 55.179h21.359l-5.934-96.119h-25.514l-19.88 50.727-7.715-50.727h-22.842l-26.105 78.912-9.791-78.912h-28.48l-31.744 79.8 4.154-31.149h-38.571l-2.672 18.987h16.912l-1.188 6.526c-2.967 1.778-9.789 2.076-12.459 2.076s-22.545-1.779-21.656-23.14c.882-21.358 29.362-41.234 63.181-30.258l3.266-20.47c-22.548-7.712-81.766-3.396-87.815 49.543-3.559 31.149 24.921 45.983 43.906 45.688 10.977.594 23.438-3.561 27.887-5.935l-1.482 4.451h22.547l10.977-28.48z"/><path d="m464.58.028c-15.428-.594-37.678 8.306-45.094 44.204-7.416 35.894 12.459 50.431 30.852 52.804 18.396 2.373 44.205-9.196 48.951-43.609 4.75-34.414-12.17-52.508-34.71-53.399zm-2.37 20.47c6.229 0 19.578 4.154 16.314 29.071-3.262 24.92-18.688 27.887-24.326 27.293-5.637-.594-17.207-4.448-13.943-27.293 3.27-22.841 15.43-29.368 21.96-29.071z"/><path d="m370.83 37.706h12.461c9.197 0 10.977-5.934 11.271-8.305.297-2.375-2.371-7.122-7.117-7.122h-14.537l-2.07 15.427zm-5.34 37.971h16.912c9.195 0 11.271-7.119 11.566-9.493.299-2.373-2.371-7.118-7.117-7.118h-18.986l-2.37 16.611zm-24.91 21.361 13.35-96.118h40.938c9.793 0 24.031 11.274 22.252 26.403-1.779 15.13-6.527 16.02-9.791 18.393 5.045 4.447 10.088 11.568 8.012 24.918-2.078 13.352-13.055 26.403-32.338 26.403l-42.42.001z"/><path d="m538.62 82.498c-3.66 0-6.615 2.951-6.615 6.593 0 3.681 2.953 6.633 6.615 6.633 3.641 0 6.592-2.952 6.592-6.633 0-3.643-2.95-6.593-6.59-6.593v-.907c4.15 0 7.498 3.366 7.498 7.5 0 4.172-3.348 7.538-7.498 7.538-4.174-.001-7.539-3.366-7.539-7.538 0-4.135 3.365-7.499 7.539-7.499v.906z"/><path d="m536.84 85.638h2.402c1.045 0 2.182.157 2.182 1.457 0 1.711-1.828 1.516-3.01 1.516l-1.574-.001v.808h1.891l2.402 3.878h1.219l-2.539-3.878c1.496-.038 2.656-.649 2.656-2.302 0-.71-.313-1.457-.945-1.813-.627-.374-1.338-.413-2.047-.413h-3.658v8.404h1.021v-7.656h.01z"/></g></svg>