<svg enable-background="new -27.464 0 566.929 234.744" height="234.744" viewBox="-27.464 0 566.929 234.744" width="566.929" xmlns="http://www.w3.org/2000/svg"><path d="m9.726 201.467 43.064-169.511h39.932l20.749 73.991 21.531-73.991h37.583l35.233 124.883 85.964-.162c9.024-.088 9.578-18.749-.668-18.744l-50.063-.668c-21.497.207-44.167-23.05-43.063-54.025.229-28.412 25.004-50.786 56.698-50.778l127.69-.114 32.494 44.238 31.71-44.629 52.85.392-57.938 81.428 62.637 88.293-52.573-.162-36.456-50.662-34.681 50.662-53.633-.047 61.072-87.301-26.622-38.757-110.999.162c-12.114.111-11.669 19.169.095 18.812l46.768.716c19.767.127 47.604 20.668 46.911 52.736.302 37.28-33.275 54.312-49.441 53.402l-122.419.163-20.357-76.272-20.357 76.109h-38.644l-21.255-75.718-18.677 75.833z" fill="#fff"/></svg>