<svg enable-background="new 0 0 566.929 180.921" height="180.921" viewBox="0 0 566.929 180.921" width="566.929" xmlns="http://www.w3.org/2000/svg" xmlns:xlink="http://www.w3.org/1999/xlink"><linearGradient id="a" gradientUnits="userSpaceOnUse" x1="254.0586" x2="254.0586" y1="84.6138" y2="176.8153"><stop offset="0" stop-color="#f57e25"/><stop offset="1" stop-color="#fcd660"/></linearGradient><g fill="#fff"><path d="m82.539 36.625c-9.186-12.425-11.377-11.153-16.71-11.153h-23.438-26.126c-3.994 0-4.882 2.99-2.669 5.963 1.245 1.688 3.922 4.414 6.061 6.54l51.718 51.871h50.978c-11.615-15.355-24.811-32.927-39.814-53.221zm7.412 40.505c-1.556.023-4.109.079-5.639.055-1.736-.028-2.228-.421-3.307-1.621l-23.646-26.315c-1.063-1.184-.938-2.53 1.025-2.532l7.278-.007c.98-.001 1.451.099 3.262 2.289l21.288 25.729c1.204 1.454.403 2.395-.261 2.402z"/><path d="m87.845 25.479h26.117 16.336c5.327 0 10.485-1.854 16.696 11.139l25.448 53.229h-45.032l-23.684-32.743c-.976-1.35-1.107-1.527-1.712-2.553-.528-.894.136-1.907 1.549-1.995 5.75-.055 11.499-.11 17.248-.165 2.824.051 3.818.084 5.401 2.714 4.537 6.723 8.598 13.684 13.135 20.408.901 1.666 2.217 1.735 4.94 1.768 3.145.038 5.026-.345 3.094-3.572l-14.921-24.924c-2.243-3.747-8.857-3.116-9.838-3.116h-22.301c-2.63 0-4.637.158-6.288-2.005l-8.877-12.236c-2.167-2.99-1.307-5.949 2.689-5.949z"/><path d="m153.214 25.479h20.907c1.08.105 1.691.444 1.833 1.021 3.115 7.735 5.468 15.47 8.585 23.205.578 1.492 1.098 2.161 1.913 2.007 1.733.011 3.168.022 4.902.035 1.584-.063 2.022-.951 1.492-2.662-2.021-7.354-4.26-14.269-6.282-21.624-.543-1.814.561-1.984 2.433-1.984h14.314c7.166 0 8.325-1.046 10.993 11.139 2.106 9.618 4.035 19.238 6.141 28.858.498 3.184-.794 5.764-4.306 5.67l-6.695-.023 5.114 18.725h-24.798l-7.53-18.679c-2.896.002-4.413.003-7.309.004-4.363-.032-6.525-2.871-8.329-6.739l-15.685-33.004c-1.424-2.998-1.688-5.949 2.307-5.949z"/><path d="m225.108 25.479h27.481 23.326c5.327 0 9.167-.538 8.528 7.315l-.589 7.269c-.098 1.19-.203 2.255-.51 3.381-.67 2.458-2.959 2.829-5.507 2.868h-28.796c-1.307 0-1.741.074-1.745.97l-.026 4.467c-.006 1.014.705.878 2.325.878h22.025c1.612 0 3.183-.076 4.766.304 2.953.708 4.545 2.445 5.364 4.669.681 1.854.402 3.382.245 5.316l-2.188 26.93h-49.454l-1.566-8.994c-.273-1.565.208-2.545 2.109-2.545h26.066c4.525-.654 4.675-3.78 4.218-7.263h-27.814c-2.85.129-4.684-.744-5.905-2.153-1.131-1.303-1.198-2.506-1.483-4.15l-5.47-31.406c-.804-4.612.606-7.856 4.6-7.856z"/><path d="m298.869 25.479h25.791 22.715c5.188 0 9.025-.526 6.508 7.123l-2.553 7.743c-.387 1.16-.752 2.195-1.326 3.292-1.254 2.393-3.571 2.754-6.063 2.792h-25.66c-1.271 0-1.705.072-1.938.944l-1.313 4.92c-.261.986.474.855 2.05.855h19.067c1.567 0 3.115-.072 4.563.296 2.697.689 3.826 2.38 4.076 4.546.207 1.805-.438 3.293-1.064 5.175l-9.508 26.68h-47.4l1.032-8.678c.12-1.524.823-2.479 2.68-2.478h19.616c4.563-.638 5.479-3.682 5.889-7.072h-17.722c-6.374.284-9.358-3.927-8.944-9.532l2.133-28.96c.332-4.488 3.482-7.649 7.371-7.649h.002v.003z"/><path d="m370.328 25.479h27.232 23.979c5.477 0 9.674-.526 4.943 7.123l-4.791 7.743c-.723 1.16-1.389 2.195-2.291 3.292-1.977 2.393-4.523 2.754-7.162 2.792h-20.459c-1.344 0-3.1-.127-3.061.629l.205 4.084c.043.858.929 1.521 2.595 1.521h11.157l7.805.053c1.717.012 2.43 1.576 1.621 2.928l-3.092 5.176-7.245 11.194c-.306.016-.612.025-.921.029h-21.869c-1.396 0-3.229-.127-3.174.844l.212 3.869c.05.857.964 1.521 2.69 1.521h12.219l6.76.045-7.457 11.522h-49.66c4.773-12.022 4.592-12.785 19.908-56.718 1.565-4.486 5.749-7.647 9.856-7.647z"/><path d="m505.251 25.479c-7.457 0-15.498 0-22.955 0-1.229.105-2.047.444-2.443 1.021-6.693 7.735-12.553 15.47-19.244 23.205-1.268 1.492-2.121 2.161-2.949 2.007-1.91.011-3.488.022-5.398.035-1.711-.063-1.813-.951-.51-2.662 5.332-7.354 10.717-14.269 16.047-21.624 1.363-1.814.229-1.984-1.83-1.984h-17.324c-7.861 0-8.691-1.046-16.779 11.139-6.381 9.618-12.57 19.238-18.953 28.858-1.896 3.184-1.568 5.764 2.326 5.67l8.969-.023-13.539 18.725h27.225l16.172-18.679c3.18.002 4.846.003 8.023.004 4.803-.032 8.381-2.871 11.998-6.739l31.188-33.005c2.826-2.997 4.363-5.948-.024-5.948z"/><path d="m540.396 38.507c-1.484 1.387-2.932 2.818-4.385 4.237-1.156 1.132-2.041.882-3.672.882h-23.922c-1.426 0-2.381-.085-2.898-.494-.758-.597-.586-1.702.396-2.691 3.715-3.944 7.436-7.889 11.15-11.832 1.775-1.632 3.43-3.309 6.813-4.407 2.068-.67 3.9-.827 6.041-.827h9.855c2.434.228 4.672-4.551 2.074-5.461h-16.138c-2.123.151-2.729-.605-1.82-2.276 1.75-2.042 2.777-3.29 3.643-3.186h18.721c1.891 0 4.592.198 6.137 1.482 3.311 2.743 2.307 7.848.063 11.148-1.939 2.844-6.27 4.823-9.564 4.935h-12.869c-3.145.228-7.238 6.708-1.572 6.783h11.287c1.623.001 1.664.77.66 1.707"/></g><path d="m118.668 84.97c14.685 19.412 30.529 40.164 40.607 53.508 11.277 14.945 20.692 27.43 28.656 37.979h-30.208c-8.839-8.867-18.978-19.033-30.696-30.789l-60.514-60.698zm322.935.59-27.41-.589-66.154 91.488h14.856zm-99.142-.59c-4.017 10.109-13.427 33.064-36.628 91.488h28.34l58.456-90.331zm-7.125 1.725-48.177.241-10.642 89.522h26.841zm-55.316.53-50.03.536 15.444 88.698h27.331zm-66.377-.73h-25.234l36.271 89.963h13.532l-23.656-86.61zm-43.533-1.525h-46.228l66.173 91.488h23.795l-41.407-86.61" fill="url(#a)"/></svg>