<svg enable-background="new 0 0 566.936 274.332" height="274.332" viewBox="0 0 566.936 274.332" width="566.936" xmlns="http://www.w3.org/2000/svg"><g fill="#fff"><path d="m57.9 201.665c-.39 0-.787-.088-1.161-.271-37.979-18.434-57.589-39.922-56.711-62.147.714-18.296 15.645-35.57 43.177-49.959 26.123-13.65 62.969-24.482 106.557-31.33 1.454-.227 2.815.766 3.043 2.218.229 1.452-.764 2.813-2.217 3.043-88.293 13.866-143.944 43.079-145.238 76.239-.777 19.661 18.299 39.957 53.715 57.146 1.323.644 1.875 2.231 1.233 3.56-.462.948-1.41 1.501-2.398 1.501z"/><path d="m388.979 65.167c-.145 0-.289-.011-.436-.035-28.057-4.606-57.67-7.681-88.023-9.133-1.471-.069-2.604-1.317-2.533-2.787.07-1.468 1.341-2.589 2.787-2.531 30.558 1.463 60.379 4.557 88.636 9.196 1.448.238 2.434 1.607 2.194 3.06-.216 1.305-1.343 2.23-2.625 2.23z"/><path d="m305.16 247.033c-.746 0-1.486 0-2.232-.003-1.471-.003-2.655-1.198-2.651-2.67.004-1.468 1.19-2.653 2.658-2.653h.012c.731.002 1.479.002 2.215.002 142.504.002 254.953-37.04 256.436-84.646.521-16.659-12.862-33.561-38.709-48.873-25.735-15.251-62.619-28.25-106.66-37.589-1.438-.306-2.356-1.72-2.053-3.157.303-1.439 1.721-2.354 3.158-2.052 44.6 9.459 82.039 22.674 108.27 38.217 27.615 16.364 41.902 34.906 41.316 53.62-.787 25.316-28.754 48.395-78.748 64.974-48.338 16.028-113.256 24.83-183.012 24.83z"/><path d="m353.382 108.404 70.299-53.586-82.567 32.958-23.204-24.152 7.398 33.467-70.299 53.584 82.571-32.967 23.2 24.153z"/><g><path d="m265.343 175.296c1.008-4.961 2.846-4.24 7.877-5.039l4.683-.738-1.458 7.809-4.683.748c-5.031.798-7.246 2.144-6.419-2.78zm-10.153-7.148-3.645 19.606c-.998 5.354.62 7.078 5.772 6.263l29.831-4.732 6.394-34.386-29.833 4.725c-5.154.817-7.53 3.172-8.519 8.524zm189.368-30.95-.348 1.896 30.77-4.885c2.429-.39 4.796-2.845 5.291-5.5.486-2.653-1.075-4.492-3.506-4.104l-7.903 1.248-12.609 2.007-3.195.5c-3.695.591-7.75 4.805-8.5 8.838zm-215.887 88.669.25-1.367c1.058.08 2.476.489 3.714.304l31.98-5.016c-1.188 6.38-9.615 7.979-22.475 10.017l-14.637 2.325-7.848 42.202 19.23-3.047c47.345-4.673 65.357-29.143 71.138-58.313l57.688-9.155 9.295-50.021 4.692-.75c5.142-.815 4.384-1.746 3.396 3.597l-8.508 45.769 41.416-6.572.567-3.033c3.126 1.378 6.779 1.865 10.646 1.258l71.625-11.361 6.68-35.953-4.643-3.306c4.023-4.763 7.158-10.593 8.066-15.485l1.129-5.67c3.573-21.207-15.978-26.838-24.9-25.42l-41.104 6.521c-7.279 1.156-15.295 6.229-21.127 12.949-5.394-5.342-13.72-7.418-18.562-6.649l-45.76 7.259 5.123 11.322 41.27-6.54c5.951-.948 9.928 1.428 11.018 6.14-.438 1.248-11.018 57.579-11.018 57.579l-14.797 2.349 7.934-42.645c.982-5.341-.633-7.068-5.771-6.25l-28.357 4.503-9.303 50.021-16.266 2.589 10.645-57.271-13.391-15.796-48.203 17.425 22.846-3.625.369-.051-14.527 78.156c-3.692 19.854-24.878 38.839-43.669 41.823l-19.229 3.047 2.916-15.641 14.627-2.313c12.859-2.047 27.336-14.916 29.833-28.375l1.578-8.468-38.09 6.041c-8.167 1.298-12.6-3.664-10.993-12.291l6.83-36.742c1.208-6.529 5.282-11.95 10.733-14.768l.09-.979 19.109-14.707-11.163 1.877c-5.94.938-16.953 5.392-23.951 14.317-5.292-6.313-14.547-8.786-19.759-7.959l-41.055 6.521 6.69-35.963 29.953-4.752c15.944-2.526 33.586-20.458 36.721-37.301l4.503-24.232c3.135-16.854-8.716-30.103-24.661-27.576l-65.457 10.384-13.948 75.041-60.275 9.565c-5.102.81-10.064 5.841-11.062 11.231l-22.527 121.154c-.999 5.394 2.326 9.113 7.429 8.31l115.008-18.252 9.305-50.021 4.682-.748c5.152-.809 4.393-1.735 3.395 3.604l-8.506 45.757zm-85.343-27.426-38.459 6.101 1.448-7.808 31.061-4.937 7.558-40.646-31.061 4.935 1.447-7.815 38.459-6.103zm-2.327 12.51-3.195 17.192-68.042 10.794 21.207-114.12 56.211-8.916-2.906 15.635-39.937 6.342-6.1 32.828 32.539-5.162-2.905 15.627-32.539 5.162-6.11 32.836zm78.156 4.296-16.274 2.571 7.927-42.632c.999-5.344-.619-7.078-5.771-6.262l-28.355 4.504-9.294 50.021-16.275 2.586 12.201-65.652.379-.063 53.984-8.563c8.167-1.299 12.6 3.652 10.993 12.289zm105.761-80.506 15.905-2.516-12.211 65.652-16.266 2.578 12.199-65.646zm98.685 30.943 5.648-30.372c1.791-9.604 12.113-19.04 20.908-20.438l38.049-6.029c6.412-1.021 10.865 6.14 9.557 13.147l-1.866 9.774c-1.31 7.009-8.468 14.458-14.875 15.476l-39.498 6.271-.568 3.545c-.75 4.031 1.926 7.18 5.621 6.591l44.147-7.03-2.975 16.02-49.801 7.896c-8.796 1.392-16.124-5.239-14.347-14.851zm-235.397-85.116 5.522-29.703 20.707-3.285c2.716-.43 4.104 1.119 3.564 3.983l-3.774 20.329c-.54 2.875-2.596 4.961-5.312 5.391z" fill="#fff"/><g fill="#fff"><path d="m320.565 94.466-4.395-17.412-2.479.299-.797 4.293c-.551 2.977-2.943 5.4-5.752 5.852l-17.015 2.695c-2.808.449-4.414-1.348-3.862-4.323l8.575-46.117c.55-2.965 2.943-5.392 5.748-5.841l17.019-2.695c2.807-.448 4.412 1.349 3.858 4.313l-1.098 5.87 34.396-5.462 1.307-7.029c3.296-17.741-8.766-31.229-25.561-28.574l-32.906 5.223c-16.783 2.666-34.754 20.917-38.048 38.658l-9.154 49.243c-3.295 17.741 8.766 31.229 25.56 28.564l11-1.737z" fill="#fff"/><path d="m344.946 83.962c.898-2.416 1.519-3.334 1.979-5.812l1.168-6.26-13.688 2.176z" fill="#fff"/></g></g></g></svg>