<svg enable-background="new 0 0 566.929 150.848" height="150.848" viewBox="0 0 566.929 150.848" width="566.929" xmlns="http://www.w3.org/2000/svg"><g fill="#fff"><path d="m79.797 76.046c8.316-9.721 20.664-15.885 34.457-15.885 2.767 0 5.474.262 8.103.734 1.774-4.851 2.742-10.091 2.742-15.557-.001-25.039-20.305-45.338-45.344-45.338-25.043 0-45.342 20.299-45.342 45.341 0 5.473.975 10.716 2.751 15.57 2.654-.483 5.384-.75 8.179-.75 13.793.002 26.137 6.167 34.454 15.885zm42.559-15.148c-5.442 14.897-18.476 26.131-34.415 29.042 1.774 4.854 2.744 10.099 2.744 15.563 0 11.251-4.105 21.533-10.886 29.456 8.315 9.721 20.661 15.889 34.454 15.889 25.043 0 45.343-20.301 45.343-45.345 0-22.274-16.065-40.783-37.24-44.605zm-50.702 29.051c-15.973-2.884-29.035-14.128-34.49-29.036-21.135 3.851-37.164 22.344-37.164 44.59 0 25.044 20.302 45.345 45.342 45.345 13.794 0 26.14-6.168 34.456-15.886-6.78-7.926-10.885-18.208-10.885-29.456.001-5.467.969-10.707 2.741-15.557zm0 0c2.63.476 5.334.731 8.102.731 2.796 0 5.53-.259 8.186-.742-1.875-5.135-4.659-9.819-8.144-13.895-3.487 4.076-6.269 8.774-8.144 13.906z" fill="#fff"/><g fill="#fff"><path d="m253.196 55.925c0 8.903-3.024 15.729-9.072 20.476-6.048 4.746-14.615 7.119-25.703 7.119h-14.237v38.05h-6.426v-92.104h22.553c21.924 0 32.885 8.819 32.885 26.459zm-49.012 22.05h12.663c10.373 0 17.87-1.711 22.49-5.135 4.619-3.423 6.929-8.979 6.929-16.663 0-7.097-2.184-12.357-6.551-15.781-4.369-3.422-11.13-5.134-20.286-5.134h-15.245z"/><path d="m350.654 75.392c0 14.616-3.652 26.177-10.962 34.681-7.31 8.508-17.387 12.76-30.237 12.76-12.812 0-22.869-4.252-30.178-12.76-7.308-8.504-10.961-20.104-10.961-34.807 0-14.656 3.686-26.196 11.056-34.618 7.372-8.42 17.44-12.631 30.208-12.631 12.854 0 22.91 4.232 30.178 12.694 7.263 8.464 10.896 20.024 10.896 34.681zm-75.345 0c0 13.188 2.939 23.381 8.819 30.587 5.879 7.202 14.322 10.805 25.326 10.805 11.088 0 19.562-3.567 25.42-10.711 5.855-7.14 8.787-17.363 8.787-30.681 0-13.271-2.932-23.444-8.787-30.521-5.858-7.077-14.291-10.615-25.295-10.615-10.961 0-19.414 3.569-25.355 10.71-5.944 7.138-8.915 17.282-8.915 30.426z"/><path d="m378.248 81.44v40.13h-6.428v-92.104h21.924c11.426 0 19.868 2.11 25.33 6.331 5.459 4.221 8.188 10.574 8.188 19.057 0 6.175-1.627 11.383-4.881 15.624-3.256 4.243-8.196 7.288-14.836 9.137l25.01 41.956h-7.684l-23.756-40.131zm0-5.544h17.576c7.77 0 13.797-1.73 18.082-5.196 4.284-3.466 6.428-8.577 6.428-15.341 0-7.014-2.103-12.115-6.299-15.309-4.201-3.19-11.051-4.788-20.543-4.788h-15.244z"/><path d="m472.494 121.57h-6.488v-86.056h-29.926v-6.048h66.338v6.048h-29.924z"/><path d="m566.929 97.819c0 7.688-2.826 13.777-8.477 18.271-5.648 4.493-13.154 6.74-22.521 6.74-11.256 0-19.887-1.24-25.893-3.72v-6.426c6.637 2.814 15.098 4.223 25.387 4.223 7.563 0 13.557-1.732 17.988-5.195 4.43-3.467 6.645-8.014 6.645-13.643 0-3.482-.734-6.372-2.209-8.661-1.467-2.287-3.859-4.378-7.178-6.269-3.32-1.891-8.188-3.929-14.617-6.111-9.406-3.231-15.904-6.729-19.498-10.486-3.592-3.759-5.387-8.77-5.387-15.026 0-6.887 2.697-12.504 8.098-16.851 5.396-4.349 12.334-6.521 20.818-6.521 8.652 0 16.777 1.639 24.381 4.913l-2.332 5.544c-7.645-3.19-14.951-4.788-21.922-4.788-6.803 0-12.221 1.576-16.252 4.728-4.035 3.148-6.049 7.434-6.049 12.852 0 3.401.617 6.195 1.854 8.379 1.238 2.186 3.27 4.147 6.078 5.892 2.814 1.741 7.646 3.832 14.49 6.269 7.182 2.479 12.578 4.881 16.191 7.213 3.605 2.33 6.244 4.978 7.902 7.938 1.671 2.956 2.503 6.535 2.503 10.735z"/></g></g></svg>